<svg width="180" height="180" viewBox="0 0 180 180" fill="none" xmlns="http://www.w3.org/2000/svg">
<path d="M28.7742 133.785C29.9078 135.309 36.5502 132.377 37.7722 133.787C39.0202 135.214 35.2081 141.4 36.5446 142.711C37.893 144.039 44.0037 140.107 45.4346 141.311C46.8855 142.525 44.0913 149.225 45.6187 150.308C47.1581 151.406 52.5665 146.563 54.1765 147.522C55.7925 148.489 54.0967 155.543 55.7812 156.385C57.4737 157.22 62.0475 151.589 63.7965 152.282C65.5516 152.984 64.9731 160.217 66.7708 160.775C68.5684 161.333 72.2149 155.058 74.0472 155.478C75.8794 155.897 76.445 163.128 78.3118 163.41C80.1726 163.683 82.7912 156.914 84.6726 157.048C86.5481 157.174 88.2324 164.233 90.1145 164.217C91.9966 164.201 93.5345 157.102 95.4092 156.942C97.2779 156.773 100.042 163.491 101.903 163.179C102.021 163.154 102.135 163.106 102.246 163.036L95.3673 147.901C75.2384 149.957 54.5732 141.669 41.6205 124.247C22.0453 97.9159 27.5221 60.6987 53.8448 41.1294C80.1675 21.5602 117.393 27.0311 136.968 53.3618C150.016 70.9129 151.918 93.2991 143.945 112.074L156.312 122.792C156.586 122.675 156.781 122.518 156.89 122.312C157.725 120.62 152.094 116.046 152.787 114.297C153.489 112.542 160.722 113.12 161.28 111.323C161.838 109.525 155.563 105.879 155.983 104.046C156.402 102.214 163.647 101.651 163.915 99.7817C164.189 97.9209 157.419 95.3023 157.547 93.4129C157.673 91.5374 164.732 89.8531 164.716 87.971C164.7 86.0889 157.601 84.551 157.441 82.6763C157.273 80.8076 163.99 78.0439 163.672 76.1745C163.358 74.3272 156.114 73.9186 155.647 72.0847C155.193 70.2667 161.389 66.4828 160.78 64.6922C160.184 62.9177 152.957 63.6553 152.212 61.9161C151.479 60.193 156.997 55.4802 156.114 53.8065C155.243 52.1488 148.229 54.0112 147.222 52.405C146.225 50.8288 150.946 45.3126 149.812 43.7878C148.679 42.263 142.036 45.1951 140.814 43.7859C139.566 42.3586 143.379 36.1726 142.04 34.875C140.692 33.5473 134.581 37.4796 133.15 36.2755C131.699 35.0614 134.493 28.3611 132.966 27.2787C131.427 26.1802 126.018 31.0234 124.408 30.0647C122.786 29.0898 124.488 22.0429 122.803 21.2018C121.111 20.3667 116.537 25.9974 114.788 25.3041C113.033 24.6027 113.611 17.3691 111.814 16.8115C110.016 16.2539 106.37 22.5286 104.537 22.1088C102.705 21.6891 102.134 14.4507 100.273 14.1768C98.412 13.903 95.7934 20.672 93.9039 20.544C92.0285 20.4181 90.3442 13.359 88.4621 13.375C86.58 13.3911 85.0421 20.4907 83.1674 20.6508C81.2987 20.8189 78.535 14.1012 76.6656 14.4193C74.8183 14.7335 74.4097 21.9779 72.5757 22.4442C70.7578 22.8985 66.9739 16.7025 65.1833 17.311C63.4088 17.9075 64.1463 25.1347 62.4072 25.8794C60.6841 26.6121 55.9713 21.0942 54.2975 21.9771C52.6399 22.8482 54.5103 29.8561 52.8961 30.8693C51.3198 31.8667 45.8037 27.1454 44.2789 28.279C42.7541 29.4126 45.6861 36.055 44.277 37.2771C42.8497 38.5251 36.6697 34.721 35.3601 36.0435C34.0324 37.3919 37.9647 43.5025 36.7607 44.9335C35.5465 46.3844 28.8462 43.5901 27.7638 45.1175C26.6653 46.6569 31.5145 52.0734 30.5498 53.6754C29.5829 55.2913 22.528 53.5956 21.6869 55.28C20.8518 56.9725 26.4826 61.5463 25.7892 63.2954C25.0878 65.0504 17.8542 64.472 17.2966 66.2696C16.739 68.0673 23.0137 71.7138 22.594 73.546C22.1742 75.3783 14.9438 75.9438 14.6619 77.8106C14.3881 79.6715 21.1571 82.29 21.0291 84.1795C20.9032 86.055 13.8441 87.7393 13.8601 89.6214C13.8762 91.5034 20.9758 93.0414 21.1359 94.9161C21.304 96.7848 14.5863 99.5485 14.9044 101.418C15.2187 103.265 22.463 103.674 22.9293 105.508C23.3836 107.326 17.1876 111.11 17.7961 112.9C18.3926 114.675 25.6198 113.937 26.3645 115.676C27.0972 117.399 21.5793 122.112 22.4623 123.786C23.3333 125.444 30.3472 123.581 31.3625 125.181C32.3518 126.764 27.6385 132.274 28.7721 133.799L28.7742 133.785Z" fill="url(#paint0_linear_23_507)"/>
<path d="M134.059 148.892L131.938 155.777L128.293 149.566L121.268 151.162L124.82 144.895L119.922 139.615L127.127 139.567L129.248 132.682L132.894 138.893L139.918 137.297L136.366 143.564L141.264 148.845L134.059 148.892Z" fill="url(#paint1_linear_23_507)"/>
<path d="M149.529 132.357L148.3 136.336L146.192 132.745L142.132 133.67L144.181 130.041L141.35 126.987L145.514 126.956L146.751 122.972L148.86 126.563L152.926 125.646L150.87 129.267L153.701 132.321L149.529 132.357Z" fill="url(#paint2_linear_23_507)"/>
<path d="M114.138 158.668L112.901 162.653L110.792 159.062L106.732 159.987L108.782 156.358L105.951 153.304L110.123 153.268L111.352 149.289L113.46 152.88L117.526 151.963L115.471 155.584L118.302 158.638L114.138 158.668Z" fill="url(#paint3_linear_23_507)"/>
<path d="M129.797 59.3536C146.293 81.5433 141.673 112.89 119.483 129.387C97.2937 145.883 65.9469 141.263 49.4562 119.082C32.9655 96.8999 37.5797 65.5451 59.7614 49.0544C81.9431 32.5637 113.306 37.1719 129.797 59.3536Z" stroke="url(#paint4_linear_23_507)" stroke-width="4" stroke-miterlimit="10"/>
<path d="M28.7742 133.785C29.9078 135.309 36.5502 132.377 37.7722 133.787C39.0202 135.214 35.2081 141.4 36.5446 142.711C37.893 144.039 44.0037 140.107 45.4346 141.311C46.8855 142.525 44.0913 149.225 45.6187 150.308C47.1581 151.406 52.5665 146.563 54.1765 147.522C55.7925 148.489 54.0967 155.543 55.7812 156.385C57.4737 157.22 62.0475 151.589 63.7965 152.282C65.5516 152.984 64.9731 160.217 66.7708 160.775C68.5684 161.333 72.2149 155.058 74.0472 155.478C75.8794 155.897 76.445 163.128 78.3118 163.41C80.1726 163.683 82.7912 156.914 84.6726 157.048C86.5481 157.174 88.2324 164.233 90.1145 164.217C91.9966 164.201 93.5345 157.102 95.4092 156.942C97.2779 156.773 100.042 163.491 101.903 163.179C102.021 163.154 102.135 163.106 102.246 163.036L95.3673 147.901C75.2384 149.957 54.5732 141.669 41.6205 124.247C22.0453 97.9159 27.5221 60.6987 53.8448 41.1294C80.1675 21.5602 117.393 27.0311 136.968 53.3618C150.016 70.9129 151.918 93.2991 143.945 112.074L156.312 122.792C156.586 122.675 156.781 122.518 156.89 122.312C157.725 120.62 152.094 116.046 152.787 114.297C153.489 112.542 160.722 113.12 161.28 111.323C161.838 109.525 155.563 105.879 155.983 104.046C156.402 102.214 163.647 101.651 163.915 99.7817C164.189 97.9209 157.419 95.3023 157.547 93.4129C157.673 91.5374 164.732 89.8531 164.716 87.971C164.7 86.0889 157.601 84.551 157.441 82.6763C157.273 80.8076 163.99 78.0439 163.672 76.1745C163.358 74.3272 156.114 73.9186 155.647 72.0847C155.193 70.2667 161.389 66.4828 160.78 64.6922C160.184 62.9177 152.957 63.6553 152.212 61.9161C151.479 60.193 156.997 55.4802 156.114 53.8065C155.243 52.1488 148.229 54.0112 147.222 52.405C146.225 50.8288 150.946 45.3126 149.812 43.7878C148.679 42.263 142.036 45.1951 140.814 43.7859C139.566 42.3586 143.379 36.1726 142.04 34.875C140.692 33.5473 134.581 37.4796 133.15 36.2755C131.699 35.0614 134.493 28.3611 132.966 27.2787C131.427 26.1802 126.018 31.0234 124.408 30.0647C122.786 29.0898 124.488 22.0429 122.803 21.2018C121.111 20.3667 116.537 25.9974 114.788 25.3041C113.033 24.6027 113.611 17.3691 111.814 16.8115C110.016 16.2539 106.37 22.5286 104.537 22.1088C102.705 21.6891 102.134 14.4507 100.273 14.1768C98.412 13.903 95.7934 20.672 93.9039 20.544C92.0285 20.4181 90.3442 13.359 88.4621 13.375C86.58 13.3911 85.0421 20.4907 83.1674 20.6508C81.2987 20.8189 78.535 14.1012 76.6656 14.4193C74.8183 14.7335 74.4097 21.9779 72.5757 22.4442C70.7578 22.8985 66.9739 16.7025 65.1833 17.311C63.4088 17.9075 64.1463 25.1347 62.4072 25.8794C60.6841 26.6121 55.9713 21.0942 54.2975 21.9771C52.6399 22.8482 54.5103 29.8561 52.8961 30.8693C51.3198 31.8667 45.8037 27.1454 44.2789 28.279C42.7541 29.4126 45.6861 36.055 44.277 37.2771C42.8497 38.5251 36.6697 34.721 35.3601 36.0435C34.0324 37.3919 37.9647 43.5025 36.7607 44.9335C35.5465 46.3844 28.8462 43.5901 27.7638 45.1175C26.6653 46.6569 31.5145 52.0734 30.5498 53.6754C29.5829 55.2913 22.528 53.5956 21.6869 55.28C20.8518 56.9725 26.4826 61.5463 25.7892 63.2954C25.0878 65.0504 17.8542 64.472 17.2966 66.2696C16.739 68.0673 23.0137 71.7138 22.594 73.546C22.1742 75.3783 14.9438 75.9438 14.6619 77.8106C14.3881 79.6715 21.1571 82.29 21.0291 84.1795C20.9032 86.055 13.8441 87.7393 13.8601 89.6214C13.8762 91.5034 20.9758 93.0414 21.1359 94.9161C21.304 96.7848 14.5863 99.5485 14.9044 101.418C15.2187 103.265 22.463 103.674 22.9293 105.508C23.3836 107.326 17.1876 111.11 17.7961 112.9C18.3926 114.675 25.6198 113.937 26.3645 115.676C27.0972 117.399 21.5793 122.112 22.4623 123.786C23.3333 125.444 30.3472 123.581 31.3625 125.181C32.3518 126.764 27.6385 132.274 28.7721 133.799L28.7742 133.785Z" fill="url(#paint5_linear_23_507)"/>
<path d="M134.059 148.892L131.938 155.777L128.293 149.566L121.268 151.162L124.82 144.895L119.922 139.615L127.127 139.567L129.248 132.682L132.894 138.893L139.918 137.297L136.366 143.564L141.264 148.845L134.059 148.892Z" fill="url(#paint6_linear_23_507)"/>
<path d="M149.529 132.357L148.3 136.336L146.192 132.745L142.132 133.67L144.181 130.041L141.35 126.987L145.514 126.956L146.751 122.972L148.86 126.563L152.926 125.646L150.87 129.267L153.701 132.321L149.529 132.357Z" fill="url(#paint7_linear_23_507)"/>
<path d="M114.138 158.668L112.901 162.653L110.792 159.062L106.732 159.987L108.782 156.358L105.951 153.304L110.123 153.268L111.352 149.289L113.46 152.88L117.526 151.963L115.471 155.584L118.302 158.638L114.138 158.668Z" fill="url(#paint8_linear_23_507)"/>
<path d="M50.3009 87.1649L68.6625 73.5142L66.9681 71.235L50.3009 87.1649Z" fill="url(#paint9_linear_23_507)"/>
<path d="M100.707 49.6909L82.3533 63.3357L80.6589 61.0565L100.707 49.6909Z" fill="url(#paint10_linear_23_507)"/>
<path d="M76.4323 65.9808C77.0886 66.8635 76.9054 68.1088 76.0226 68.7651C75.1398 69.4213 73.8946 69.2381 73.2383 68.3553C72.582 67.4725 72.7653 66.2273 73.648 65.571C74.5308 64.9147 75.7761 65.098 76.4323 65.9808Z" fill="url(#paint11_linear_23_507)"/>
<path d="M126.36 98.8794L112.805 108.956L114.058 110.642L126.36 98.8794Z" fill="url(#paint12_linear_23_507)"/>
<path d="M89.1472 126.545L102.702 116.468L103.955 118.153L89.1472 126.545Z" fill="url(#paint13_linear_23_507)"/>
<path d="M65.2049 102.705C64.6485 103.119 64.1066 103.382 63.5792 103.495C63.0517 103.608 62.5824 103.611 62.1711 103.505C61.762 103.384 61.4556 103.186 61.252 102.912C61.0674 102.664 60.979 102.384 60.9867 102.073C60.9944 101.761 61.1278 101.503 61.3868 101.297C61.5944 101.129 61.7932 101.048 61.983 101.053C62.1665 101.05 62.3317 101.093 62.4785 101.183C62.6253 101.273 62.7433 101.378 62.8324 101.498C62.8833 101.567 62.9341 101.662 62.9848 101.784C63.0376 101.891 63.0702 102.006 63.0825 102.13C63.1953 102.192 63.336 102.22 63.5045 102.215C63.6667 102.2 63.8322 102.164 64.001 102.105C64.172 102.031 64.3174 101.949 64.4373 101.86C64.7797 101.606 64.9868 101.312 65.0586 100.98C65.1389 100.641 65.1212 100.295 65.0053 99.9426C64.8895 99.5901 64.7234 99.2683 64.507 98.9773C64.3606 98.7804 64.1823 98.5674 63.9721 98.3382C63.7619 98.1091 63.5163 97.9128 63.2354 97.7495C62.963 97.5798 62.6626 97.4975 62.334 97.5025C62.014 97.5012 61.6742 97.6341 61.3147 97.9014C61.1949 97.9905 61.0663 98.1126 60.9292 98.2678C60.7856 98.4144 60.6408 98.5951 60.4949 98.81C60.3575 99.0185 60.2349 99.2558 60.1271 99.522L59.2599 99.5088L56.0202 95.2583L59.3458 92.7859C59.6455 92.5631 59.8459 92.341 59.9471 92.1196C60.0505 91.8832 59.9685 91.5853 59.7012 91.2258L60.5102 90.6244L61.9667 92.7713L57.9921 95.8458L59.6913 98.1314C59.8246 97.8994 60.0144 97.6453 60.2609 97.369C60.5074 97.0927 60.7591 96.8591 61.0159 96.6681C61.5466 96.2736 62.0662 96.007 62.5745 95.8683C63.0828 95.7296 63.5672 95.7018 64.0276 95.7848C64.4817 95.8593 64.8992 96.0274 65.2799 96.2893C65.6629 96.5363 65.9976 96.8523 66.2839 97.2376C66.774 97.8967 67.025 98.574 67.037 99.2695C67.0512 99.9501 66.8885 100.589 66.5489 101.188C66.2093 101.786 65.7613 102.291 65.2049 102.705ZM74.7586 95.2835L74.1286 94.436C74.3191 94.2811 74.4627 94.1345 74.5592 93.9962C74.6644 93.8516 74.6939 93.6768 74.6478 93.4718C74.6103 93.2604 74.4643 92.9835 74.2097 92.6411L73.3792 91.524L68.2387 89.544C67.9725 89.4362 67.699 89.3006 67.418 89.1373C67.1371 88.974 66.9458 88.8238 66.8439 88.6869C66.7133 88.7973 66.6041 88.8917 66.5163 88.9703C66.4222 89.0403 66.3312 89.1146 66.2434 89.1931L65.5084 88.2044L69.2963 85.3884L69.9263 86.2358C69.6653 86.4033 69.479 86.5817 69.3672 86.7711C69.2555 86.9605 69.2398 87.1449 69.3201 87.3245C69.3941 87.4955 69.5886 87.6499 69.9038 87.7878L72.0729 88.6673C72.1666 88.704 72.3135 88.7675 72.5137 88.858C72.7075 88.9398 72.9108 89.0346 73.1237 89.1421C73.3388 89.2348 73.5154 89.3294 73.6537 89.426L73.6665 89.4164C73.633 89.2819 73.5912 89.0737 73.5412 88.7919C73.4911 88.5101 73.4223 88.1492 73.3345 87.7094L73.0285 85.9033C73.0013 85.7773 72.9721 85.6129 72.941 85.4101C72.9035 85.1988 72.8734 84.9885 72.8509 84.7793C72.8305 84.5553 72.8238 84.3675 72.8308 84.2161C72.7002 84.3264 72.5311 84.4655 72.3235 84.6331C72.1158 84.8008 71.9681 84.9239 71.8803 85.0025L71.1453 84.0138L73.983 81.9041L74.613 82.7516C74.3452 83.0171 74.1807 83.3321 74.1194 83.6967C74.0518 84.0527 74.0689 84.5583 74.1706 85.2137C74.2913 85.9481 74.4108 86.6899 74.5293 87.4392C74.6477 88.1885 74.7673 88.9304 74.8879 89.6648C74.977 89.7846 75.0661 89.9045 75.1552 90.0243C75.2443 90.1441 75.3366 90.2683 75.432 90.3967C75.5211 90.5165 75.6102 90.6364 75.6993 90.7562C75.7884 90.876 75.8775 90.9959 75.9666 91.1157C76.1384 91.3469 76.2996 91.5726 76.4501 91.793C76.6007 92.0133 76.7088 92.1855 76.7744 92.3095C76.9072 92.1842 77.0848 92.0389 77.3074 91.8734C77.5322 91.693 77.6874 91.571 77.773 91.5073L78.508 92.4961L74.7586 95.2835ZM83.3742 89.1973C82.7493 89.6619 82.0954 89.9354 81.4123 90.0179C80.723 90.0918 80.0578 89.9748 79.417 89.667C78.7698 89.3507 78.1885 88.8459 77.673 88.1525C77.2275 87.5533 76.9433 86.8939 76.8205 86.1745C76.6977 85.455 76.7582 84.7587 77.0021 84.0856C77.2482 83.3976 77.6923 82.8149 78.3343 82.3376C78.6938 82.0703 79.083 81.8608 79.5017 81.7089C79.9142 81.5485 80.3464 81.4864 80.7985 81.5224C81.2592 81.5521 81.7236 81.7119 82.1917 82.0019C82.6684 82.2855 83.1316 82.7386 83.5812 83.3613L79.4269 86.5695C79.7705 87.0317 80.1348 87.4055 80.5197 87.6909C80.9132 87.9699 81.3222 88.1177 81.7467 88.1344C82.1712 88.1512 82.6059 87.9941 83.0511 87.6631C83.2223 87.5359 83.3926 87.3627 83.5621 87.1437C83.7401 86.9183 83.8895 86.6544 84.0102 86.352C84.1332 86.0346 84.204 85.6829 84.2227 85.2969L85.2014 85.4066C85.2178 86.0723 85.1364 86.6511 84.9573 87.1432C84.7718 87.6267 84.5322 88.0374 84.2385 88.3754C83.9534 88.707 83.6653 88.9809 83.3742 89.1973ZM78.8357 85.6134L81.1983 83.8569C80.9225 83.5037 80.6611 83.2594 80.4142 83.124C80.1695 82.9736 79.9351 82.9086 79.711 82.929C79.4869 82.9494 79.2721 83.036 79.0667 83.1887C78.6901 83.4687 78.4965 83.8252 78.4862 84.2583C78.4695 84.6827 78.586 85.1344 78.8357 85.6134ZM90.6584 83.463C90.5522 83.3559 90.4662 83.267 90.4003 83.1963C90.3367 83.1107 90.2592 83.0154 90.168 82.9105C90.0933 83.4179 89.9378 83.8525 89.7017 84.2142C89.4655 84.5758 89.1804 84.8808 88.8466 85.129C88.2987 85.5363 87.7498 85.6918 87.1998 85.5956C86.6498 85.4994 86.1934 85.2074 85.8307 84.7194C85.5252 84.3086 85.367 83.8812 85.3561 83.4374C85.3537 82.9873 85.4569 82.545 85.6657 82.1107C85.8766 81.6615 86.1568 81.2339 86.5063 80.8279C86.8579 80.4069 87.2414 80.0288 87.6567 79.6935L87.1603 79.0258C86.9948 78.8032 86.8153 78.6243 86.6217 78.4891C86.4367 78.3475 86.2376 78.2763 86.0242 78.2754C85.8195 78.2681 85.6004 78.3579 85.3671 78.5446C85.2108 78.6741 85.0779 78.8261 84.9684 79.0006C84.8588 79.175 84.7898 79.3593 84.7612 79.5533C84.887 79.5794 84.9934 79.6332 85.0806 79.7146C85.1613 79.7875 85.2272 79.8582 85.2781 79.9267C85.4054 80.0979 85.4705 80.3286 85.4736 80.6187C85.4702 80.9003 85.3156 81.1482 85.0096 81.3624C84.7465 81.5447 84.4827 81.6012 84.2185 81.5318C83.9543 81.4624 83.7362 81.3122 83.5644 81.0811C83.3098 80.7387 83.2101 80.3542 83.2653 79.9278C83.3226 79.4864 83.5058 79.0445 83.8148 78.6021C84.1176 78.1511 84.5171 77.741 85.0136 77.3719C85.7669 76.8119 86.4954 76.576 87.199 76.6643C87.9049 76.7377 88.576 77.2024 89.2124 78.0584C89.4288 78.3495 89.6133 78.5977 89.7661 78.8032C89.9188 79.0086 90.0672 79.2172 90.2114 79.4291C90.3642 79.6345 90.5487 79.8827 90.7651 80.1738C90.8542 80.2936 90.9772 80.468 91.1341 80.697C91.2846 80.9173 91.4245 81.1323 91.5538 81.3419C91.6866 81.2166 91.8343 81.0935 91.9969 80.9726C92.1532 80.8431 92.2742 80.7466 92.3598 80.6829L93.0853 81.6588L90.6584 83.463ZM88.3216 80.6147C88.101 80.8186 87.906 81.03 87.7365 81.249C87.5671 81.4681 87.4392 81.6894 87.3529 81.913C87.2752 82.1303 87.2434 82.3467 87.2574 82.5622C87.28 82.7714 87.3581 82.9659 87.4917 83.1456C87.6785 83.379 87.8828 83.4929 88.1047 83.4874C88.3266 83.482 88.5317 83.4092 88.72 83.2692C88.9169 83.1228 89.0691 82.9432 89.1767 82.7303C89.2843 82.5174 89.3556 82.2916 89.3908 82.0528C89.3271 81.9672 89.2667 81.8859 89.2094 81.8089C89.1457 81.7233 89.0821 81.6377 89.0185 81.552C88.9039 81.398 88.7894 81.2439 88.6748 81.0898C88.5539 80.9272 88.4362 80.7688 88.3216 80.6147ZM93.2033 80.2751C93.443 80.0969 93.5792 79.9226 93.6119 79.7521C93.6446 79.5815 93.6102 79.4011 93.5086 79.2108C93.4091 79.0056 93.2767 78.7917 93.1113 78.5691L91.5075 76.412C91.393 76.2579 91.27 76.0835 91.1385 75.8888C91.0007 75.6855 90.8704 75.4834 90.7475 75.2823C90.6169 75.3927 90.4606 75.5222 90.2786 75.6708C90.0989 75.8044 89.9651 75.9105 89.8773 75.9891L89.1518 75.0132L89.6654 74.6314C89.9993 74.3832 90.2713 74.1145 90.4816 73.8252C90.7005 73.5296 90.8209 73.3072 90.8428 73.1579L91.472 72.6902C91.5528 72.763 91.6865 72.9161 91.8733 73.1495C92.0537 73.3742 92.2107 73.5765 92.3443 73.7563C92.3654 73.3019 92.4151 72.9128 92.4932 72.5889C92.5714 72.2649 92.6803 71.9913 92.8199 71.7678C92.9617 71.5295 93.1353 71.334 93.3408 71.1812C93.6404 70.9585 93.9651 70.85 94.315 70.8557C94.6584 70.8529 94.9702 71.0398 95.2502 71.4165C95.3457 71.5449 95.4175 71.7041 95.4658 71.8942C95.5077 72.0757 95.4995 72.2613 95.4411 72.4509C95.3827 72.6405 95.2422 72.8181 95.0196 72.9835C94.8484 73.1108 94.6347 73.1899 94.3786 73.2208C94.1225 73.2517 93.8734 73.1312 93.6313 72.8593C93.4601 72.9866 93.343 73.1866 93.28 73.4594C93.2106 73.7236 93.1806 74.0051 93.19 74.3038C93.2016 74.5876 93.2422 74.8299 93.3118 75.0307L94.8678 77.1237C94.9569 77.2436 95.0799 77.418 95.2368 77.6469C95.3873 77.8673 95.5272 78.0822 95.6564 78.2919C95.7807 78.1729 95.9241 78.053 96.0868 77.9321C96.2516 77.7962 96.3768 77.6965 96.4624 77.6328L97.1879 78.6087L93.8238 81.1098L93.2033 80.2751ZM103.05 74.5694C102.682 74.8431 102.288 75.0633 101.867 75.23C101.446 75.3968 101.083 75.4806 100.778 75.4814L101.09 75.8476L100.114 76.5731L98.4205 74.4027L99.2552 73.7822C99.4718 74.0199 99.7495 74.179 100.088 74.2593C100.427 74.3397 100.79 74.3359 101.176 74.2479C101.557 74.1514 101.926 73.9695 102.286 73.7022C102.431 73.594 102.553 73.4708 102.649 73.3325C102.754 73.1879 102.815 73.0367 102.83 72.8789C102.848 72.7061 102.803 72.547 102.695 72.4015C102.574 72.2389 102.415 72.1507 102.219 72.1371C102.031 72.1171 101.791 72.1428 101.499 72.2141C101.215 72.279 100.865 72.3725 100.451 72.4944C100.109 72.589 99.7601 72.6825 99.4034 72.7748C99.0553 72.8608 98.7084 72.9127 98.3627 72.9304C98.0193 72.9333 97.6931 72.87 97.3843 72.7407C97.0692 72.6029 96.7843 72.3627 96.5298 72.0203C96.3452 71.7721 96.2109 71.4931 96.1269 71.1834C96.0365 70.8652 96.0165 70.5344 96.0671 70.1912C96.1112 69.8393 96.2385 69.4921 96.4491 69.1496C96.6681 68.8006 96.9874 68.4702 97.4068 68.1584C97.638 67.9866 97.9277 67.831 98.276 67.6916C98.6265 67.5374 98.9586 67.4566 99.2722 67.4494L98.9954 67.0771L99.9713 66.3516L101.661 68.6243L100.826 69.2448C100.552 68.9834 100.254 68.8061 99.9325 68.713C99.6193 68.6136 99.2973 68.6005 98.9663 68.6738C98.6289 68.7385 98.3062 68.8854 97.998 69.1145C97.784 69.2736 97.6253 69.4713 97.5219 69.7077C97.4271 69.9377 97.4719 70.1768 97.6565 70.4251C97.8029 70.6219 97.9891 70.7294 98.2151 70.7474C98.4348 70.7569 98.6932 70.711 98.9901 70.6099C99.2871 70.5087 99.6193 70.4013 99.9867 70.2877C100.531 70.1086 101.044 69.9935 101.524 69.9421C102.013 69.8845 102.461 69.9237 102.868 70.0598C103.268 70.1874 103.618 70.4523 103.917 70.8546C104.248 71.2998 104.41 71.7506 104.404 72.2071C104.398 72.6636 104.269 73.0983 104.018 73.5111C103.775 73.9175 103.453 74.2703 103.05 74.5694ZM75.8121 124.526L68.3812 119.304C68.1111 119.119 67.8739 118.943 67.6698 118.776C67.4743 118.602 67.3256 118.447 67.2238 118.31C67.0675 118.44 66.9284 118.556 66.8063 118.66C66.6865 118.75 66.5741 118.84 66.4692 118.931L65.7341 117.942L69.522 115.126L70.1521 115.974C69.829 116.201 69.6381 116.436 69.5795 116.679C69.5294 116.915 69.7064 117.189 70.1104 117.5C70.6016 117.892 71.0927 118.285 71.5839 118.677C72.075 119.07 72.5662 119.462 73.0573 119.855C73.3508 120.089 73.6229 120.312 73.8737 120.524C74.1331 120.73 74.4541 121.01 74.8366 121.363L74.8494 121.354C74.7946 121.208 74.7091 120.986 74.593 120.687C74.477 120.388 74.3525 120.068 74.2195 119.729C74.0887 119.374 73.9674 119.059 73.8555 118.783C73.7458 118.492 73.6687 118.29 73.6244 118.177C73.4368 117.639 73.2449 117.104 73.0488 116.572C72.8612 116.033 72.6693 115.498 72.4731 114.966C72.2855 114.428 72.0937 113.892 71.8975 113.36L73.0531 112.501C73.4657 112.806 73.8783 113.11 74.2909 113.415C74.712 113.713 75.1289 114.015 75.5415 114.32C75.9541 114.624 76.3667 114.929 76.7792 115.234C77.2004 115.532 77.6173 115.833 78.0298 116.138C78.3404 116.359 78.6476 116.603 78.9516 116.868C79.2577 117.119 79.5628 117.378 79.8667 117.643L79.8796 117.634C79.753 117.303 79.62 116.963 79.4807 116.615C79.3435 116.251 79.2 115.88 79.0501 115.499C78.9446 115.232 78.8391 114.965 78.7335 114.698C78.628 114.431 78.5224 114.164 78.4169 113.897C78.305 113.621 78.1963 113.349 78.0907 113.082C77.9852 112.815 77.8796 112.548 77.7741 112.281C77.6727 112.037 77.5853 111.777 77.5118 111.499C77.4319 111.213 77.4053 110.954 77.4319 110.721C77.3013 110.832 77.1321 110.971 76.9245 111.138C76.7105 111.297 76.5596 111.416 76.4718 111.495L75.7368 110.506L78.6258 108.358L79.2559 109.206C79.0739 109.354 78.9323 109.539 78.8311 109.761C78.7321 109.967 78.6873 110.22 78.6967 110.518C78.7061 110.817 78.7793 111.175 78.9162 111.591C79.4202 112.985 79.9199 114.381 80.4154 115.78C80.9108 117.18 81.4094 118.583 81.9112 119.991L80.7685 120.841L75.8358 117.371C75.4764 117.119 75.1404 116.864 74.8279 116.605C74.5175 116.33 74.22 116.073 73.9351 115.833C74.1087 116.156 74.2673 116.476 74.411 116.795C74.5484 117.105 74.6825 117.437 74.8132 117.792L76.9292 123.695L75.8121 124.526ZM88.4849 114.985C88.3787 114.878 88.2926 114.789 88.2268 114.718C88.1632 114.632 88.0857 114.537 87.9944 114.432C87.9197 114.94 87.7643 115.374 87.5281 115.736C87.2919 116.097 87.0069 116.402 86.673 116.651C86.1252 117.058 85.5763 117.213 85.0263 117.117C84.4763 117.021 84.0199 116.729 83.6571 116.241C83.3517 115.83 83.1935 115.403 83.1825 114.959C83.1802 114.509 83.2834 114.067 83.4921 113.632C83.7031 113.183 83.9833 112.756 84.3327 112.35C84.6844 111.929 85.0679 111.55 85.4831 111.215L84.9867 110.547C84.8213 110.325 84.6418 110.146 84.4482 110.011C84.2632 109.869 84.064 109.798 83.8507 109.797C83.6459 109.79 83.4269 109.88 83.1936 110.066C83.0373 110.196 82.9044 110.348 82.7948 110.522C82.6853 110.697 82.6163 110.881 82.5877 111.075C82.7135 111.101 82.8199 111.155 82.907 111.236C82.9878 111.309 83.0536 111.38 83.1045 111.448C83.2318 111.62 83.297 111.85 83.3 112.14C83.2967 112.422 83.1421 112.67 82.8361 112.884C82.5729 113.066 82.3092 113.123 82.045 113.053C81.7807 112.984 81.5627 112.834 81.3909 112.603C81.1363 112.26 81.0366 111.876 81.0917 111.449C81.149 111.008 81.3322 110.566 81.6413 110.124C81.944 109.673 82.3436 109.263 82.8401 108.894C83.5934 108.334 84.3219 108.098 85.0255 108.186C85.7313 108.259 86.4024 108.724 87.0388 109.58C87.2552 109.871 87.4398 110.119 87.5925 110.325C87.7452 110.53 87.8937 110.739 88.0379 110.951C88.1906 111.156 88.3752 111.404 88.5915 111.695C88.6806 111.815 88.8036 111.99 88.9605 112.219C89.1111 112.439 89.251 112.654 89.3802 112.864C89.513 112.738 89.6607 112.615 89.8234 112.494C89.9797 112.365 90.1006 112.268 90.1862 112.205L90.9117 113.18L88.4849 114.985ZM86.1481 112.136C85.9275 112.34 85.7324 112.552 85.563 112.771C85.3935 112.99 85.2657 113.211 85.1794 113.435C85.1017 113.652 85.0698 113.868 85.0838 114.084C85.1064 114.293 85.1845 114.488 85.3182 114.667C85.5049 114.901 85.7093 115.015 85.9312 115.009C86.153 115.004 86.3582 114.931 86.5465 114.791C86.7434 114.644 86.8956 114.465 87.0032 114.252C87.1107 114.039 87.1821 113.813 87.2172 113.574C87.1536 113.489 87.0931 113.408 87.0358 113.331C86.9722 113.245 86.9086 113.159 86.8449 113.074C86.7304 112.92 86.6158 112.766 86.5013 112.611C86.3803 112.449 86.2626 112.29 86.1481 112.136ZM91.0297 111.797C91.2694 111.619 91.4056 111.444 91.4383 111.274C91.471 111.103 91.4366 110.923 91.335 110.732C91.2356 110.527 91.1032 110.313 90.9377 110.091L89.334 107.934C89.2194 107.78 89.0964 107.605 88.965 107.41C88.8272 107.207 88.6968 107.005 88.5739 106.804C88.4433 106.914 88.2871 107.044 88.1051 107.192C87.9253 107.326 87.7915 107.432 87.7037 107.511L86.9783 106.535L87.4919 106.153C87.8257 105.905 88.0978 105.636 88.3081 105.347C88.5269 105.051 88.6473 104.829 88.6693 104.68L89.2985 104.212C89.3792 104.285 89.513 104.438 89.6997 104.671C89.8801 104.896 90.0371 105.098 90.1708 105.278C90.1919 104.824 90.2415 104.434 90.3197 104.111C90.3979 103.787 90.5068 103.513 90.6464 103.289C90.7882 103.051 90.9618 102.856 91.1672 102.703C91.4668 102.48 91.7916 102.372 92.1414 102.377C92.4849 102.375 92.7966 102.561 93.0767 102.938C93.1721 103.067 93.244 103.226 93.2923 103.416C93.3342 103.597 93.3259 103.783 93.2675 103.973C93.2091 104.162 93.0686 104.34 92.8461 104.505C92.6749 104.632 92.4612 104.712 92.2051 104.742C91.9489 104.773 91.6998 104.653 91.4578 104.381C91.2866 104.508 91.1695 104.708 91.1064 104.981C91.0371 105.245 91.0071 105.527 91.0165 105.825C91.0281 106.109 91.0687 106.352 91.1382 106.552L92.6942 108.645C92.7833 108.765 92.9063 108.94 93.0632 109.169C93.2137 109.389 93.3536 109.604 93.4829 109.814C93.6071 109.695 93.7506 109.575 93.9132 109.454C94.0781 109.318 94.2033 109.218 94.2889 109.154L95.0144 110.13L91.6502 112.631L91.0297 111.797ZM97.2004 107.209C97.4401 107.031 97.5763 106.857 97.609 106.686C97.6417 106.516 97.6073 106.335 97.5057 106.145C97.4063 105.94 97.2738 105.726 97.1084 105.503L95.5046 103.346C95.3901 103.192 95.2671 103.018 95.1356 102.823C94.9978 102.62 94.8675 102.418 94.7446 102.216C94.614 102.327 94.4577 102.456 94.2758 102.605C94.096 102.739 93.9622 102.845 93.8744 102.923L93.1489 101.947L93.6625 101.566C93.9964 101.317 94.2684 101.049 94.4787 100.759C94.6976 100.464 94.818 100.241 94.84 100.092L95.4691 99.6243C95.5499 99.6972 95.6836 99.8503 95.8704 100.084C96.0508 100.308 96.2078 100.511 96.3414 100.69C96.3626 100.236 96.4122 99.847 96.4904 99.523C96.5685 99.1991 96.6774 98.9254 96.817 98.702C96.9588 98.4637 97.1325 98.2681 97.3379 98.1154C97.6375 97.8926 97.9622 97.7841 98.3121 97.7899C98.6556 97.7871 98.9673 97.974 99.2473 98.3506C99.3428 98.479 99.4147 98.6383 99.4629 98.8283C99.5048 99.0099 99.4966 99.1954 99.4382 99.385C99.3798 99.5747 99.2393 99.7522 99.0167 99.9177C98.8455 100.045 98.6319 100.124 98.3757 100.155C98.1196 100.186 97.8705 100.065 97.6284 99.7934C97.4572 99.9207 97.3401 100.121 97.2771 100.394C97.2077 100.658 97.1777 100.939 97.1871 101.238C97.1987 101.522 97.2393 101.764 97.3089 101.965L98.8649 104.058C98.954 104.178 99.077 104.352 99.2339 104.581C99.3844 104.801 99.5243 105.016 99.6536 105.226C99.7778 105.107 99.9212 104.987 100.084 104.866C100.249 104.73 100.374 104.631 100.46 104.567L101.185 105.543L97.8209 108.044L97.2004 107.209ZM107.498 100.849C107.392 100.742 107.306 100.653 107.24 100.583C107.177 100.497 107.099 100.402 107.008 100.297C106.933 100.804 106.778 101.239 106.542 101.6C106.305 101.962 106.02 102.267 105.687 102.515C105.139 102.923 104.59 103.078 104.04 102.982C103.49 102.886 103.033 102.594 102.671 102.106C102.365 101.695 102.207 101.267 102.196 100.824C102.194 100.374 102.297 99.9313 102.506 99.497C102.717 99.0477 102.997 98.6201 103.346 98.2141C103.698 97.7932 104.081 97.4151 104.497 97.0798L104 96.4121C103.835 96.1895 103.655 96.0106 103.462 95.8754C103.277 95.7338 103.078 95.6626 102.864 95.6617C102.66 95.6544 102.44 95.7441 102.207 95.9309C102.051 96.0604 101.918 96.2123 101.808 96.3868C101.699 96.5613 101.63 96.7455 101.601 96.9396C101.727 96.9657 101.833 97.0195 101.921 97.1009C102.001 97.1738 102.067 97.2445 102.118 97.3129C102.245 97.4841 102.311 97.7148 102.314 98.005C102.31 98.2866 102.156 98.5344 101.85 98.7486C101.586 98.931 101.323 98.9875 101.059 98.9181C100.794 98.8487 100.576 98.6984 100.404 98.4673C100.15 98.1249 100.05 97.7405 100.105 97.3141C100.163 96.8727 100.346 96.4308 100.655 95.9884C100.958 95.5374 101.357 95.1273 101.854 94.7582C102.607 94.1982 103.335 93.9623 104.039 94.0506C104.745 94.124 105.416 94.5887 106.052 95.4447C106.269 95.7357 106.453 95.984 106.606 96.1894C106.759 96.3949 106.907 96.6035 107.051 96.8153C107.204 97.0208 107.389 97.269 107.605 97.5601C107.694 97.6799 107.817 97.8543 107.974 98.0832C108.125 98.3036 108.265 98.5186 108.394 98.7282C108.527 98.6029 108.674 98.4798 108.837 98.3589C108.993 98.2294 109.114 98.1328 109.2 98.0692L109.925 99.045L107.498 100.849ZM105.162 98.001C104.941 98.2048 104.746 98.4163 104.577 98.6353C104.407 98.8543 104.279 99.0757 104.193 99.2993C104.115 99.5166 104.083 99.733 104.097 99.9485C104.12 100.158 104.198 100.352 104.332 100.532C104.519 100.765 104.723 100.879 104.945 100.874C105.167 100.868 105.372 100.795 105.56 100.655C105.757 100.509 105.909 100.329 106.017 100.117C106.124 99.9037 106.196 99.6779 106.231 99.4391C106.167 99.3535 106.107 99.2722 106.049 99.1951C105.986 99.1095 105.922 99.0239 105.858 98.9383C105.744 98.7842 105.629 98.6301 105.515 98.4761C105.394 98.3134 105.276 98.155 105.162 98.001ZM110.664 98.496L110.043 97.6614C110.283 97.4832 110.419 97.3088 110.452 97.1383C110.485 96.9678 110.45 96.7874 110.349 96.5971C110.249 96.3919 110.117 96.178 109.951 95.9554L108.348 93.7982C108.233 93.6441 108.11 93.4697 107.979 93.2751C107.841 93.0718 107.71 92.8697 107.588 92.6686C107.457 92.779 107.301 92.9085 107.119 93.057C106.939 93.1907 106.805 93.2968 106.717 93.3753L105.992 92.3995C106.386 92.1067 106.704 91.8371 106.946 91.5907C107.188 91.3442 107.364 91.1338 107.473 90.9593C107.591 90.7785 107.661 90.6401 107.683 90.5442L108.312 90.0764C108.412 90.175 108.481 90.2499 108.519 90.3013C108.557 90.3527 108.595 90.404 108.634 90.4554C108.674 90.4918 108.752 90.5604 108.866 90.6612C108.936 90.3969 109.044 90.1307 109.19 89.8625C109.33 89.5858 109.489 89.3347 109.667 89.1093C109.838 88.8754 110.01 88.6948 110.181 88.5675C110.968 87.982 111.693 87.7952 112.356 88.0071C113.021 88.204 113.722 88.799 114.46 89.7919L115.74 91.5125C115.829 91.6324 115.952 91.8068 116.109 92.0357C116.259 92.2561 116.399 92.4711 116.528 92.6807C116.661 92.5554 116.809 92.4323 116.971 92.3113C117.128 92.1819 117.249 92.0853 117.334 92.0217L118.06 92.9975L114.696 95.4986L114.075 94.664C114.315 94.4858 114.451 94.3114 114.484 94.1409C114.525 93.964 114.495 93.7804 114.393 93.5901C114.294 93.3849 114.161 93.171 113.996 92.9484L112.628 91.1346C112.214 90.5782 111.827 90.2278 111.467 90.0833C111.11 89.924 110.742 89.9843 110.366 90.2643C110.152 90.4234 109.973 90.6296 109.829 90.8828C109.693 91.1297 109.6 91.3715 109.55 91.6081C109.639 91.7279 109.732 91.852 109.827 91.9804C109.916 92.1003 110.005 92.2201 110.095 92.34L111.708 94.51C111.797 94.6298 111.92 94.8042 112.077 95.0331C112.227 95.2535 112.367 95.4685 112.496 95.6781C112.621 95.5592 112.764 95.4392 112.927 95.3183C113.092 95.1825 113.217 95.0827 113.302 95.0191L114.028 95.995L110.664 98.496ZM121.473 90.7789C121.216 90.9698 120.946 91.1244 120.662 91.2427C120.377 91.361 120.081 91.4088 119.771 91.3861C119.456 91.355 119.121 91.2181 118.768 90.9755C118.415 90.733 118.038 90.342 117.637 89.8027L115.362 86.6891L114.489 87.3383L113.697 86.2725C113.956 86.0667 114.146 85.7859 114.267 85.4301C114.388 85.0743 114.432 84.6959 114.4 84.2946C114.376 83.8871 114.282 83.5112 114.12 83.1671L115.07 82.4607L116.393 84.2679L118.024 83.0555L118.759 84.0442L117.157 85.2951L119.493 88.4633C119.639 88.6602 119.802 88.8444 119.983 89.0158C120.166 89.1723 120.361 89.2734 120.567 89.3191C120.768 89.3562 120.975 89.2952 121.189 89.1361C121.309 89.047 121.44 88.8833 121.581 88.645C121.732 88.4002 121.799 88.0176 121.785 87.497L122.831 87.6166C122.854 88.1308 122.812 88.5744 122.703 88.9473C122.595 89.3202 122.457 89.6353 122.29 89.8927C122.131 90.1438 121.972 90.3415 121.814 90.4859C121.655 90.6303 121.542 90.728 121.473 90.7789ZM128.044 90.9776C127.719 91.2195 127.368 91.3278 126.99 91.3028C126.628 91.2799 126.329 91.1101 126.093 90.7934C125.921 90.5623 125.841 90.3027 125.853 90.0148C125.88 89.729 126.01 89.4928 126.243 89.306C126.425 89.1575 126.628 89.0996 126.852 89.1326C127.091 89.1677 127.296 89.3009 127.468 89.532C127.487 89.5577 127.506 89.5833 127.525 89.609C127.544 89.6347 127.562 89.6678 127.579 89.7085C127.596 89.6957 127.615 89.6755 127.634 89.6479C127.692 89.5649 127.719 89.4317 127.716 89.2482C127.727 89.0669 127.706 88.8503 127.651 88.5983C127.599 88.3315 127.523 88.0421 127.424 87.7302C127.34 87.4205 127.234 87.1075 127.105 86.7912L122.05 84.2291C121.454 83.9279 121.029 83.6861 120.773 83.5037C120.52 83.3064 120.311 83.1231 120.145 82.9539L119.574 83.4187L118.848 82.4428L122.046 80.0658L122.656 80.8876C122.365 81.1573 122.279 81.4076 122.397 81.6385C122.524 81.8631 122.722 82.0484 122.99 82.1946L126.387 84.1354C126.307 83.8492 126.164 83.424 125.957 82.86C125.744 82.2873 125.528 81.6571 125.309 80.9692C125.26 80.8325 125.208 80.6722 125.151 80.4885C125.096 80.2899 125.049 80.0924 125.009 79.8959C124.963 79.6909 124.944 79.5127 124.951 79.3613L124.248 79.9439L123.522 78.9681L125.808 77.2689L126.419 78.0907C126.198 78.3479 126.096 78.676 126.114 79.075C126.14 79.4676 126.228 79.9075 126.377 80.3945L128.18 86.1718C128.456 87.0433 128.652 87.7812 128.769 88.3855C128.892 88.9982 128.901 89.5103 128.794 89.9216C128.688 90.3329 128.438 90.6849 128.044 90.9776Z" fill="url(#paint14_linear_23_507)"/>
<defs>
<linearGradient id="paint0_linear_23_507" x1="14.4321" y1="77.7697" x2="162.378" y2="99.5413" gradientUnits="userSpaceOnUse">
<stop stop-color="#B07515"/>
<stop offset="0.09" stop-color="#E0BA5F"/>
<stop offset="0.14" stop-color="#F5D77F"/>
<stop offset="0.26" stop-color="#FFFFD7"/>
<stop offset="0.36" stop-color="#F5D77F"/>
<stop offset="0.61" stop-color="#F5D77F"/>
<stop offset="0.74" stop-color="#FFFFD7"/>
<stop offset="0.84" stop-color="#F5D77F"/>
<stop offset="1" stop-color="#B07515"/>
</linearGradient>
<linearGradient id="paint1_linear_23_507" x1="119.442" y1="142.589" x2="141.464" y2="145.83" gradientUnits="userSpaceOnUse">
<stop stop-color="#B07515"/>
<stop offset="0.09" stop-color="#E0BA5F"/>
<stop offset="0.14" stop-color="#F5D77F"/>
<stop offset="0.26" stop-color="#FFFFD7"/>
<stop offset="0.36" stop-color="#F5D77F"/>
<stop offset="0.61" stop-color="#F5D77F"/>
<stop offset="0.74" stop-color="#FFFFD7"/>
<stop offset="0.84" stop-color="#F5D77F"/>
<stop offset="1" stop-color="#B07515"/>
</linearGradient>
<linearGradient id="paint2_linear_23_507" x1="141.083" y1="128.706" x2="153.815" y2="130.579" gradientUnits="userSpaceOnUse">
<stop stop-color="#B07515"/>
<stop offset="0.09" stop-color="#E0BA5F"/>
<stop offset="0.14" stop-color="#F5D77F"/>
<stop offset="0.26" stop-color="#FFFFD7"/>
<stop offset="0.36" stop-color="#F5D77F"/>
<stop offset="0.61" stop-color="#F5D77F"/>
<stop offset="0.74" stop-color="#FFFFD7"/>
<stop offset="0.84" stop-color="#F5D77F"/>
<stop offset="1" stop-color="#B07515"/>
</linearGradient>
<linearGradient id="paint3_linear_23_507" x1="105.683" y1="155.023" x2="118.416" y2="156.896" gradientUnits="userSpaceOnUse">
<stop stop-color="#B07515"/>
<stop offset="0.09" stop-color="#E0BA5F"/>
<stop offset="0.14" stop-color="#F5D77F"/>
<stop offset="0.26" stop-color="#FFFFD7"/>
<stop offset="0.36" stop-color="#F5D77F"/>
<stop offset="0.61" stop-color="#F5D77F"/>
<stop offset="0.74" stop-color="#FFFFD7"/>
<stop offset="0.84" stop-color="#F5D77F"/>
<stop offset="1" stop-color="#B07515"/>
</linearGradient>
<linearGradient id="paint4_linear_23_507" x1="38.1339" y1="81.6435" x2="141.125" y2="96.7997" gradientUnits="userSpaceOnUse">
<stop stop-color="#B07515"/>
<stop offset="0.09" stop-color="#E0BA5F"/>
<stop offset="0.14" stop-color="#F5D77F"/>
<stop offset="0.26" stop-color="#FFFFD7"/>
<stop offset="0.36" stop-color="#F5D77F"/>
<stop offset="0.61" stop-color="#F5D77F"/>
<stop offset="0.74" stop-color="#FFFFD7"/>
<stop offset="0.84" stop-color="#F5D77F"/>
<stop offset="1" stop-color="#B07515"/>
</linearGradient>
<linearGradient id="paint5_linear_23_507" x1="14.4321" y1="77.7697" x2="162.378" y2="99.5413" gradientUnits="userSpaceOnUse">
<stop stop-color="#B07515"/>
<stop offset="0.09" stop-color="#E0BA5F"/>
<stop offset="0.14" stop-color="#F5D77F"/>
<stop offset="0.26" stop-color="#FFFFD7"/>
<stop offset="0.36" stop-color="#F5D77F"/>
<stop offset="0.61" stop-color="#F5D77F"/>
<stop offset="0.74" stop-color="#FFFFD7"/>
<stop offset="0.84" stop-color="#F5D77F"/>
<stop offset="1" stop-color="#B07515"/>
</linearGradient>
<linearGradient id="paint6_linear_23_507" x1="119.442" y1="142.589" x2="141.464" y2="145.83" gradientUnits="userSpaceOnUse">
<stop stop-color="#B07515"/>
<stop offset="0.09" stop-color="#E0BA5F"/>
<stop offset="0.14" stop-color="#F5D77F"/>
<stop offset="0.26" stop-color="#FFFFD7"/>
<stop offset="0.36" stop-color="#F5D77F"/>
<stop offset="0.61" stop-color="#F5D77F"/>
<stop offset="0.74" stop-color="#FFFFD7"/>
<stop offset="0.84" stop-color="#F5D77F"/>
<stop offset="1" stop-color="#B07515"/>
</linearGradient>
<linearGradient id="paint7_linear_23_507" x1="141.083" y1="128.706" x2="153.815" y2="130.579" gradientUnits="userSpaceOnUse">
<stop stop-color="#B07515"/>
<stop offset="0.09" stop-color="#E0BA5F"/>
<stop offset="0.14" stop-color="#F5D77F"/>
<stop offset="0.26" stop-color="#FFFFD7"/>
<stop offset="0.36" stop-color="#F5D77F"/>
<stop offset="0.61" stop-color="#F5D77F"/>
<stop offset="0.74" stop-color="#FFFFD7"/>
<stop offset="0.84" stop-color="#F5D77F"/>
<stop offset="1" stop-color="#B07515"/>
</linearGradient>
<linearGradient id="paint8_linear_23_507" x1="105.683" y1="155.023" x2="118.416" y2="156.896" gradientUnits="userSpaceOnUse">
<stop stop-color="#B07515"/>
<stop offset="0.09" stop-color="#E0BA5F"/>
<stop offset="0.14" stop-color="#F5D77F"/>
<stop offset="0.26" stop-color="#FFFFD7"/>
<stop offset="0.36" stop-color="#F5D77F"/>
<stop offset="0.61" stop-color="#F5D77F"/>
<stop offset="0.74" stop-color="#FFFFD7"/>
<stop offset="0.84" stop-color="#F5D77F"/>
<stop offset="1" stop-color="#B07515"/>
</linearGradient>
<linearGradient id="paint9_linear_23_507" x1="51.5968" y1="78.1643" x2="67.4631" y2="80.4992" gradientUnits="userSpaceOnUse">
<stop stop-color="#B07515"/>
<stop offset="0.09" stop-color="#E0BA5F"/>
<stop offset="0.14" stop-color="#F5D77F"/>
<stop offset="0.26" stop-color="#FFFFD7"/>
<stop offset="0.36" stop-color="#F5D77F"/>
<stop offset="0.61" stop-color="#F5D77F"/>
<stop offset="0.74" stop-color="#FFFFD7"/>
<stop offset="0.84" stop-color="#F5D77F"/>
<stop offset="1" stop-color="#B07515"/>
</linearGradient>
<linearGradient id="paint10_linear_23_507" x1="81.5163" y1="55.0361" x2="99.3414" y2="57.6592" gradientUnits="userSpaceOnUse">
<stop stop-color="#B07515"/>
<stop offset="0.09" stop-color="#E0BA5F"/>
<stop offset="0.14" stop-color="#F5D77F"/>
<stop offset="0.26" stop-color="#FFFFD7"/>
<stop offset="0.36" stop-color="#F5D77F"/>
<stop offset="0.61" stop-color="#F5D77F"/>
<stop offset="0.74" stop-color="#FFFFD7"/>
<stop offset="0.84" stop-color="#F5D77F"/>
<stop offset="1" stop-color="#B07515"/>
</linearGradient>
<linearGradient id="paint11_linear_23_507" x1="72.8545" y1="66.8837" x2="76.7661" y2="67.4522" gradientUnits="userSpaceOnUse">
<stop stop-color="#B07515"/>
<stop offset="0.09" stop-color="#E0BA5F"/>
<stop offset="0.14" stop-color="#F5D77F"/>
<stop offset="0.26" stop-color="#FFFFD7"/>
<stop offset="0.36" stop-color="#F5D77F"/>
<stop offset="0.61" stop-color="#F5D77F"/>
<stop offset="0.74" stop-color="#FFFFD7"/>
<stop offset="0.84" stop-color="#F5D77F"/>
<stop offset="1" stop-color="#B07515"/>
</linearGradient>
<linearGradient id="paint12_linear_23_507" x1="113.553" y1="103.778" x2="125.264" y2="105.501" gradientUnits="userSpaceOnUse">
<stop stop-color="#B07515"/>
<stop offset="0.09" stop-color="#E0BA5F"/>
<stop offset="0.14" stop-color="#F5D77F"/>
<stop offset="0.26" stop-color="#FFFFD7"/>
<stop offset="0.36" stop-color="#F5D77F"/>
<stop offset="0.61" stop-color="#F5D77F"/>
<stop offset="0.74" stop-color="#FFFFD7"/>
<stop offset="0.84" stop-color="#F5D77F"/>
<stop offset="1" stop-color="#B07515"/>
</linearGradient>
<linearGradient id="paint13_linear_23_507" x1="89.9881" y1="120.636" x2="103.154" y2="122.574" gradientUnits="userSpaceOnUse">
<stop stop-color="#B07515"/>
<stop offset="0.09" stop-color="#E0BA5F"/>
<stop offset="0.14" stop-color="#F5D77F"/>
<stop offset="0.26" stop-color="#FFFFD7"/>
<stop offset="0.36" stop-color="#F5D77F"/>
<stop offset="0.61" stop-color="#F5D77F"/>
<stop offset="0.74" stop-color="#FFFFD7"/>
<stop offset="0.84" stop-color="#F5D77F"/>
<stop offset="1" stop-color="#B07515"/>
</linearGradient>
<linearGradient id="paint14_linear_23_507" x1="76.3811" y1="71.6479" x2="105.019" y2="110.169" gradientUnits="userSpaceOnUse">
<stop stop-color="#C18E30"/>
<stop offset="1" stop-color="#F5D77F"/>
</linearGradient>
</defs>
</svg>
