<svg width="176" height="23" viewBox="0 0 176 23" fill="none" xmlns="http://www.w3.org/2000/svg">
<path fill-rule="evenodd" clip-rule="evenodd" d="M52.8945 9.00071C52.0949 9.9463 51.2952 10.9629 49.8409 10.9629C48.3875 10.9629 49.7689 9.36355 47.6598 9.58246C45.5527 9.80036 46.2065 9.72839 45.6977 9.36455C45.1889 9.00071 44.88 9.43752 44.6072 9.87333C42.79 12.7821 40.8028 14.2324 38.7188 16.1986C37.3883 17.452 36.4767 17.8698 36.0639 17.528C36.2908 17.325 36.5197 17.1221 36.7556 16.9242C39.0086 15.0341 41.5535 11.1098 41.5535 9.21962C41.5535 7.32945 38.5728 7.76626 36.9735 9.9473C36.0799 11.1658 34.2577 14.3344 33.659 16.8962C33.0363 17.369 32.5195 17.7159 32.1037 17.9428C31.304 18.3806 30.3584 18.7434 31.376 16.3435C32.3945 13.9465 33.0482 12.3452 33.3391 11.4736C33.63 10.601 32.1037 10.4561 31.0131 11.2557C29.9226 12.0544 28.1784 14.5253 28.7601 12.6361C29.3419 10.7469 28.5422 8.56591 26.5071 10.1652C24.472 11.7635 23.8903 12.783 23.0906 13.5807C22.291 14.3813 21.9271 14.4533 22.7998 12.999C23.6724 11.5466 24.617 10.1652 25.1257 9.36555C25.6345 8.5659 24.9078 6.53081 23.5994 7.83923C23.2366 8.20207 22.0731 9.99028 20.8596 11.9884C20.9066 11.5436 20.6057 11.0648 19.7461 10.8199C19.0134 10.611 18.1708 10.523 17.3102 10.5031C18.4717 7.10954 19.964 2.49858 19.964 1.73491C19.964 0.717361 18.3647 -0.373158 16.9113 1.0802C16.1197 1.87185 11.8146 6.86765 7.79936 11.5576C7.49449 11.5947 7.18785 11.6154 6.88076 11.6196C5.4264 11.6196 2.66462 10.7469 2.66462 12.2013C2.66462 13.6127 4.37586 13.9276 5.8722 13.8096C4.09689 15.8871 2.325 17.9675 0.556543 20.0508C-1.04275 21.941 1.42916 22.6667 2.51868 21.3593C4.63475 18.8214 7.04269 15.9726 9.23572 13.3938C10.971 13.1689 12.8451 12.937 13.7377 12.929C13.5229 13.621 13.345 14.3241 13.205 15.0351C12.7692 17.36 12.0415 17.1431 11.4607 17.0712C10.879 16.9972 9.93442 17.434 10.879 18.5235C11.8236 19.615 11.0969 22.3768 13.132 22.3768C14.8772 22.3768 14.1496 19.2512 16.3306 13.2888L16.5105 12.791C17.5101 12.7441 18.5036 12.7421 19.2383 12.926C19.7021 13.0429 20.1299 12.928 20.4288 12.7011C19.1004 14.9211 17.8179 17.2221 17.5661 18.0148C17.0573 19.614 17.4931 21.1404 19.0924 21.1404C20.6917 21.1404 20.1099 19.9769 21.7822 18.1597C23.4535 16.3425 24.6899 15.3249 24.6899 15.3249C24.6899 15.3249 23.6724 17.6499 23.6724 18.5225C23.6724 19.3951 25.1267 20.2678 26.2163 19.2512C27.3068 18.2317 28.5422 16.9962 28.5422 16.9962C28.5422 16.9962 27.2338 21.0664 29.9966 21.0664C31.44 21.0664 32.6044 20.4497 33.71 19.5921C34.0078 20.1898 34.5956 20.5586 35.5931 20.5586C38.064 20.5586 42.4991 15.9786 42.4991 15.9786C42.4991 15.9786 41.8444 18.9593 41.4805 19.9049C41.1177 20.8495 43.0808 21.2853 43.8075 19.8309C44.5342 18.3786 46.2794 12.7071 47.3689 12.6351C48.4595 12.5631 47.9507 13.5077 50.7135 13.2888C50.7135 13.2888 48.9682 18.0157 48.7503 19.5401C48.5324 21.0664 50.4226 21.4322 50.7864 19.9779C51.1503 18.5235 53.4463 12.0634 55.0026 9.7284C55.8752 8.41897 53.6942 8.05613 52.8945 9.00071ZM56.6739 6.74571C57.001 6.74571 57.3147 6.61575 57.546 6.38443C57.7774 6.15311 57.9073 5.83938 57.9073 5.51225C57.9073 5.18512 57.7774 4.87138 57.546 4.64006C57.3147 4.40874 57.001 4.27879 56.6739 4.27879C56.3467 4.27879 56.033 4.40874 55.8017 4.64006C55.5704 4.87138 55.4404 5.18512 55.4404 5.51225C55.4404 5.83938 55.5704 6.15311 55.8017 6.38443C56.033 6.61575 56.3467 6.74571 56.6739 6.74571ZM58.637 13.2169C58.637 13.2169 58.8549 14.4523 59.8724 14.4523C60.89 14.4523 61.9076 12.5621 62.6352 11.4726C63.3619 10.3821 63.217 9.51049 62.7072 9.14665C62.1984 8.78281 61.4717 8.27403 60.7451 8.71084C60.0174 9.14665 53.1124 13.5077 52.6026 19.0333C52.2078 23.3124 59.4356 20.6326 60.6711 19.2522C60.6711 19.2522 61.4707 23.5393 66.3406 18.5985C66.3406 18.5985 66.6325 22.8856 69.2483 20.1978C71.8652 17.508 73.7553 15.18 73.7553 15.18C73.7553 15.18 72.4469 19.9069 74.6999 19.9069C75.8634 19.9069 80.3694 14.9641 80.3694 14.9641C80.3694 14.9641 79.134 19.8329 79.2069 20.8525C79.2789 21.8701 80.0056 22.7427 80.6603 21.2153C81.314 19.689 83.568 14.1634 84.4406 12.4922C85.3132 10.8199 84.2227 9.00272 82.4045 10.3111C80.5873 11.6196 77.3158 14.7452 76.735 15.181C76.1533 15.6188 76.6621 14.6732 77.1708 13.5817C77.6796 12.4922 79.2069 9.14765 77.6066 9.22062C76.0073 9.29359 73.3175 12.5641 70.9916 14.8891C70.9916 14.8891 70.7007 13.7276 71.5733 12.3452C72.4459 10.9648 72.8088 9.36555 71.6463 9.22062C70.4828 9.07468 70.2649 9.80236 70.2649 9.80236C70.2649 9.80236 67.2112 9.00272 63.9407 12.7831C61.8286 15.223 62.1964 15.7617 62.1964 15.7617C62.1964 15.7617 58.2711 19.3971 56.0171 19.3971C53.7671 19.3951 56.5289 15.106 58.637 13.2169ZM90.2591 16.5604C90.2591 16.5604 88.077 17.7239 88.077 18.5965C88.077 19.4671 89.1676 19.4671 91.2756 19.4671C93.3837 19.4671 96.2185 18.9593 96.2185 16.2695C96.2185 13.5797 91.9293 12.0524 91.9293 8.85478C91.9293 5.65619 96.5093 3.03934 100.87 3.03934C105.231 3.03934 105.16 5.87409 104.068 6.45584C102.978 7.03758 101.014 6.89264 101.089 5.29334C101.089 5.29334 95.1269 4.2748 95.1269 8.27304C95.1269 11.5446 99.9978 11.7615 99.9978 15.6868C99.9978 19.612 94.7641 22.084 90.6209 22.084C86.4767 22.084 84.6605 20.5576 84.6605 19.3212C84.6605 18.0847 86.4058 16.5604 90.2591 16.5604Z" fill="white"/>
<path fill-rule="evenodd" clip-rule="evenodd" d="M130.456 9.87233C128.929 10.3811 124.567 14.1614 123.695 15.106C123.695 15.106 124.495 11.9084 125.221 10.7449C125.95 9.58146 124.276 8.85477 123.259 9.58145C122.241 10.3081 116.645 16.1226 115.625 17.358C115.625 17.358 116.498 14.0885 117.806 12.924C119.117 11.7605 118.316 10.671 117.661 10.8159C117.661 10.8159 117.88 8.345 113.444 9.87133C113.444 9.87133 110.486 9.72639 108.094 9.79136C109.01 7.99015 109.908 6.37487 110.392 5.80012C111.917 3.98292 110.028 3.1113 108.791 4.27379C108.352 4.68861 106.815 7.27747 105.455 9.84434C104.105 9.84034 101.929 9.92331 100.869 10.4531C99.2693 11.2527 99.3402 13.5777 100.869 13.5777C101.667 13.5777 102.395 12.7051 102.395 12.7051L104.062 12.6071C103.988 12.7651 103.916 12.919 103.847 13.0699C102.467 16.1216 102.395 17.431 101.666 17.504C100.94 17.5759 100.214 18.0137 100.214 19.612C100.214 21.2103 100.941 22.084 102.395 20.7735C103.847 19.4651 104.576 17.5759 105.664 14.9601C105.949 14.2744 106.344 13.3998 106.785 12.4632C108.149 12.3972 109.507 12.3422 110.316 12.3422C110.316 12.3422 105.81 15.9047 105.81 18.3026C105.81 20.7016 108.645 21.6471 112.281 18.9583C112.281 18.9583 113.516 25.2815 120.931 14.5972C120.931 14.5972 119.62 19.613 121.657 19.613C122.675 19.613 127.327 14.6702 128.2 13.9435C128.2 13.9435 126.454 18.7404 126.528 19.9759C126.6 21.2113 126.454 21.3563 127.255 21.3563C128.054 21.3563 129.145 17.8678 130.09 15.4679C131.034 13.0709 131.325 12.924 131.325 12.0514C131.328 11.1827 131.983 9.36455 130.456 9.87233ZM175.524 3.54911C176.252 2.6765 174.653 1.65894 173.343 3.33121C172.034 5.00347 170.58 8.12909 169.926 9.29158C169.926 9.29158 166.578 7.91419 163.743 11.2407C161.922 9.19263 159.022 10.7449 159.022 10.7449C159.313 8.63687 157.279 9.07268 156.623 9.80036C155.969 10.527 152.627 14.3074 151.898 15.253C151.171 16.1975 150.518 16.9242 150.081 16.5614C149.645 16.1985 150.882 13.7986 151.535 12.2003C152.189 10.601 150.591 10.8919 150.591 10.8919C150.591 10.8919 151.1 8.92874 149.282 9.14665C147.464 9.36455 142.771 11.0168 140.559 17.6509C140.474 17.9024 140.408 18.1601 140.362 18.4216C140.038 18.6305 139.66 18.6465 139.322 18.0737C139.103 17.6169 138.967 16.8033 139.396 15.3969C140.194 12.781 143.394 6.02002 144.483 4.34776C145.575 2.67649 143.904 1.58597 142.812 2.82143C141.721 4.05688 139.324 9.58145 139.324 9.58145C139.324 9.58145 136.343 8.78181 133.435 11.9074C131.571 13.9106 130.236 17.0692 130.236 18.3776C130.236 19.686 131.508 23.9371 136.161 18.9943C137.157 20.6556 137.67 21.0284 138.467 20.9524C142.061 19.3941 140.22 20.5566 141.532 20.5566C144.969 20.5566 146.046 19.664 146.992 18.2686C147.211 21.6851 149.136 20.6306 150.372 19.5391C151.607 18.4496 154.298 15.7597 154.298 15.7597C154.298 15.7597 153.644 18.8854 153.135 19.9039C152.627 20.9215 155.171 20.7026 155.316 19.9039C155.462 19.1033 156.479 17.358 157.497 15.3239C158.824 12.6711 160.913 12.0524 162.368 12.3432C162.582 12.3862 162.763 12.3922 162.92 12.3742C162.731 12.6771 162.545 13.0049 162.368 13.3618C159.387 19.3222 160.114 23.1735 165.565 19.8299C165.565 19.8299 165.633 23.6663 170.946 18.8854C171.672 18.2316 171.453 17.2861 170.292 17.9408C169.129 18.5965 167.746 18.5965 168.547 17.1421C169.347 15.6878 172.92 6.67474 175.524 3.54911Z" fill="white"/>
<path fill-rule="evenodd" clip-rule="evenodd" d="M67.7238 12.7071C67.7238 12.7071 63.3358 15.8108 64.0175 17.2871C64.4523 18.2317 66.7063 14.8152 67.7238 12.7071ZM113.883 12.6352C113.883 12.6352 111.846 12.8541 110.538 14.5993C109.23 16.3425 107.922 18.8864 109.811 17.8689C111.701 16.8513 113.737 14.6713 113.883 12.6352ZM137.144 12.3443C137.144 12.3443 135.545 12.8541 134.236 14.8162C132.927 16.7783 132.42 20.0499 134.164 18.1607C135.909 16.2696 136.925 14.3804 137.144 12.3443ZM147.466 12.4183C147.466 12.4183 145.794 13.7267 146.302 15.7608C146.302 15.7608 144.703 17.7969 143.614 17.8689C142.523 17.9408 145.285 11.9804 147.466 12.4183ZM166.365 12.1274C165.565 12.5632 163.748 15.325 163.531 16.7773C163.312 18.2317 163.748 18.4506 164.983 17.1422C166.219 15.8338 166.875 14.0166 167.164 12.8531C167.455 11.6896 166.914 11.8265 166.365 12.1274ZM13.0599 10.746C12.5761 10.79 11.9504 10.8879 11.2737 11.0019C14.0135 7.79229 16.0406 5.43933 16.0406 5.43933C16.1136 6.02108 15.4588 8.34705 15.168 9.00076C14.9389 9.53173 14.7239 10.0687 14.5233 10.6111C13.9895 10.656 13.4917 10.706 13.0599 10.746ZM38.8655 11.1828C39.4433 11.6316 37.755 13.3828 36.2507 14.7382C37.3402 11.5436 38.2108 10.673 38.8655 11.1828Z" fill="white"/>
</svg>
