<svg width="80" height="80" viewBox="0 0 80 80" fill="none" xmlns="http://www.w3.org/2000/svg">
<path d="M73.3334 40.0001C73.3334 58.4094 58.4094 73.3334 40.0001 73.3334C21.5906 73.3334 6.66675 58.4094 6.66675 40.0001C6.66675 21.5906 21.5906 6.66675 40.0001 6.66675C58.4094 6.66675 73.3334 21.5906 73.3334 40.0001Z" stroke="#0B5D1E" stroke-width="5"/>
<path d="M49.0341 33.5371C48.7037 30.9949 45.7847 26.8875 40.5361 26.8874C34.4374 26.8873 31.8713 30.2649 31.3506 31.9538C30.5382 34.2127 30.7007 38.8571 37.8491 39.3634C46.7847 39.9967 50.3644 41.0514 49.9091 46.5201C49.4534 51.9884 44.4724 53.1701 40.5361 53.0431C36.5994 52.9167 30.1589 51.1084 29.9089 46.2444M39.9114 23.3269V26.8995M39.9114 53.0104V56.6601" stroke="#0B5D1E" stroke-width="5" stroke-linecap="round"/>
</svg>
