<svg width="137" height="53" viewBox="0 0 137 53" fill="none" xmlns="http://www.w3.org/2000/svg">
<path fill-rule="evenodd" clip-rule="evenodd" d="M33.4433 46.3277L47.0694 36.2448L50.6506 41.033L36.9856 51.1548L33.4433 46.3277ZM56.9967 15.261V15.1832V15.1054C56.9967 14.7941 57.0745 14.482 57.1912 14.1708C57.308 13.8984 57.5025 13.626 57.7749 13.4307C58.0472 13.2362 58.3982 13.1194 58.8262 13.1194C59.0596 13.1194 59.2939 13.1583 59.5266 13.2362C59.76 13.2751 59.9546 13.4307 60.1499 13.6253C60.3444 13.8198 60.4604 14.0929 60.5001 14.4034H59.9942C59.9156 14.1311 59.7989 13.9365 59.6052 13.7809C59.4106 13.6642 59.1772 13.5863 58.904 13.5863C58.8651 13.5863 58.8262 13.5863 58.7484 13.6253H58.5927C58.3982 13.6642 58.2036 13.742 58.0472 13.8976C57.8916 14.0144 57.7749 14.2089 57.697 14.4431C57.6192 14.6377 57.5803 14.9108 57.5803 15.1824C57.5803 15.4556 57.5803 15.7279 57.6581 15.9225C57.736 16.1559 57.8138 16.3116 57.9305 16.4672C58.0472 16.5839 58.1647 16.7006 58.3204 16.7396C58.4371 16.8174 58.5927 16.8563 58.7881 16.8563C59.1772 16.8563 59.4495 16.7396 59.6448 16.5442C59.8394 16.3497 59.9561 16.0773 60.0339 15.7271H60.5398C60.5398 16.0384 60.423 16.3108 60.2666 16.5442C60.1507 16.7785 59.9164 16.9722 59.683 17.0897C59.4495 17.2454 59.1772 17.3232 58.8651 17.3232C58.5149 17.3232 58.2426 17.2843 58.0472 17.1676C57.8138 17.0508 57.6192 16.8952 57.4636 16.7396C57.3079 16.545 57.2301 16.3116 57.1515 16.0773C57.0737 15.8065 56.9967 15.5334 56.9967 15.261ZM64.1988 16.7403V17.2072H61.2401V13.198H64.1599V13.7039H61.7849V14.9108H64.0042V15.4174H61.7849V16.7403H64.1988ZM66.573 13.198H66.8843C67.1178 13.198 67.3131 13.2369 67.5076 13.3529C67.7022 13.4307 67.8578 13.5482 67.9745 13.7039C68.0913 13.8984 68.1302 14.0929 68.1302 14.3264C68.1302 14.7552 67.9745 15.0665 67.5854 15.261C67.7411 15.2999 67.8578 15.3777 67.9356 15.4945C68.0135 15.6112 68.0524 15.7279 68.0524 15.8836C68.0913 16.0392 68.0913 16.2337 68.0913 16.4672C68.0913 16.6617 68.0913 16.8174 68.1302 16.9341C68.1699 17.0127 68.2088 17.0905 68.2858 17.1294V17.2072H67.6244C67.5854 17.0905 67.5855 16.8571 67.5465 16.5847V16.0011C67.5076 15.8843 67.4687 15.7676 67.3909 15.6509C67.2742 15.5723 67.1185 15.4952 66.8851 15.4952H66.5738V15.0275H66.8851C67.0407 15.0275 67.1582 14.9886 67.2742 14.9497C67.3909 14.8719 67.4687 14.7941 67.5076 14.6766C67.5465 14.5988 67.5854 14.482 67.5854 14.3653C67.5854 14.1708 67.5465 14.0143 67.4298 13.8587C67.352 13.7428 67.1574 13.6642 66.9232 13.6642H66.573V13.198ZM64.977 17.2072V13.198H66.573V13.6642L65.5217 13.6649V15.0275H66.5738V15.4952H65.5217V17.208L64.977 17.2072ZM68.4811 13.7039V13.198H71.7511V13.7039H70.3893V17.2072H69.8437V13.7039H68.4811ZM72.8802 13.198V17.2072H72.3347V13.198H72.8802ZM74.3596 15.4174V17.2072H73.853V13.198H76.6179V13.7039H74.3596V14.9108H76.3455V15.4174H74.3596ZM77.8248 13.198V17.2072H77.2793V13.198H77.8248ZM78.5252 15.261V15.1832V15.1054C78.5252 14.7941 78.603 14.482 78.7197 14.1708C78.8365 13.8984 79.031 13.626 79.3034 13.4307C79.6147 13.2362 79.9267 13.1194 80.3555 13.1194C80.5897 13.1194 80.8224 13.1583 81.0559 13.2362C81.2901 13.2751 81.5228 13.4307 81.6792 13.6253C81.8737 13.8198 81.9904 14.0929 82.0683 14.4034H81.5228C81.4846 14.1311 81.3282 13.9365 81.1337 13.7809C80.9225 13.6531 80.6802 13.5858 80.4333 13.5863C80.3952 13.5863 80.3555 13.5863 80.2784 13.6253H80.122C79.9275 13.6642 79.7329 13.742 79.5781 13.8976C79.4217 14.0144 79.3042 14.2089 79.2271 14.4431C79.1493 14.6377 79.1104 14.9108 79.1104 15.1824C79.1104 15.4556 79.1501 15.7279 79.1898 15.9225C79.2676 16.1559 79.3446 16.3116 79.4621 16.4672C79.5788 16.5839 79.6948 16.7006 79.8512 16.7396C80.0061 16.8174 80.1625 16.8563 80.3181 16.8563H80.3578C80.7072 16.8563 80.9811 16.7396 81.1757 16.5442C81.3702 16.3497 81.5251 16.0773 81.5648 15.7271H82.1103C82.0706 16.0384 81.9936 16.3108 81.8364 16.5442C81.6815 16.7785 81.487 16.9722 81.213 17.0897C80.9804 17.2454 80.7072 17.3232 80.3967 17.3232C80.0855 17.3232 79.8115 17.2843 79.5789 17.1676C79.3622 17.0571 79.1646 16.9126 78.9937 16.7396C78.8674 16.5303 78.7636 16.3083 78.6839 16.0773C78.603 15.8065 78.5649 15.5334 78.5252 15.261ZM84.1702 13.198H84.5211L85.9608 17.2072H85.3771L84.988 16.0392H84.1702V15.5715H84.7935L84.1702 13.8198V13.8587V13.198ZM82.4177 17.2072L83.8978 13.198H84.1702V13.8587L83.5468 15.5723L84.1702 15.5715V16.0392L83.3523 16.04L82.9632 17.208L82.4177 17.2072ZM88.142 13.198H88.1801C88.4144 13.198 88.686 13.2759 88.9202 13.4307C89.1544 13.5482 89.349 13.7817 89.5038 14.054C89.6984 14.3264 89.7778 14.6766 89.7778 15.0657C89.7778 15.4166 89.7381 15.7668 89.6213 16.0781C89.5198 16.3961 89.3314 16.6794 89.0774 16.896C88.8432 17.0905 88.5319 17.2072 88.1809 17.2072H88.1428V16.7403C88.3755 16.7403 88.57 16.6625 88.7661 16.5069C88.921 16.3512 89.0385 16.1567 89.1155 15.9232C89.1933 15.6501 89.2322 15.3777 89.2322 15.1054C89.2322 14.9108 89.2323 14.7552 89.1544 14.5606C89.1147 14.4042 89.0766 14.2486 88.9599 14.1326C88.8851 13.98 88.7616 13.8565 88.6089 13.7817L88.142 13.6649V13.198ZM86.4666 13.198H88.142V13.6649H87.0113V16.7411H88.1405V17.208H86.4658L86.4666 13.198ZM93.6313 15.2221C93.6313 14.9108 93.552 14.6385 93.4352 14.3653C93.3185 14.1319 93.1629 13.9373 92.9683 13.8198C92.7738 13.6642 92.5014 13.5863 92.2283 13.5863V13.1187C92.5792 13.1187 92.8913 13.1973 93.1232 13.3132C93.3971 13.4292 93.5917 13.6245 93.7465 13.819C93.9029 14.0136 93.9807 14.247 94.0578 14.4813C94.1356 14.7544 94.1745 14.9871 94.1745 15.2213C94.1745 15.4555 94.1348 15.6882 94.0578 15.9225C93.98 16.1948 93.9029 16.3894 93.7465 16.6228C93.5917 16.8174 93.3971 17.0119 93.1232 17.1294C92.8437 17.2618 92.5375 17.3284 92.2283 17.324V16.8571C92.5022 16.8571 92.7341 16.7792 92.9683 16.6228C93.1629 16.5061 93.3177 16.3116 93.4352 16.0392C93.5527 15.8065 93.6313 15.5334 93.6313 15.2221ZM92.229 13.5871C91.9567 13.5871 91.6851 13.6649 91.4905 13.8206C91.2563 13.9373 91.0999 14.1326 90.9847 14.3661C90.9053 14.6385 90.8283 14.9116 90.8283 15.2229C90.8283 15.5342 90.9061 15.8065 90.9847 16.04C91.0999 16.3131 91.2571 16.5077 91.4905 16.6236C91.6851 16.78 91.9575 16.8578 92.229 16.8578V17.3248C91.8796 17.3248 91.5676 17.2469 91.3341 17.1302C91.0618 17.0135 90.8672 16.8189 90.7108 16.6236C90.5559 16.3902 90.4384 16.1567 90.3614 15.9232C90.3217 15.689 90.282 15.4555 90.282 15.2221C90.282 14.9886 90.3217 14.7552 90.3614 14.482C90.4392 14.2486 90.5559 14.0144 90.7108 13.8198C90.8672 13.6253 91.0618 13.4307 91.3341 13.314C91.5684 13.1973 91.8796 13.1194 92.229 13.1194V13.5871ZM99.0032 16.468V13.198H99.509V17.2072H98.9253L96.8616 13.9762V17.2072H96.3565V13.198H96.9783L99.0032 16.468ZM100.444 17.2072V16.6236H101.027V17.2072H100.444ZM104.531 13.3148C104.882 13.3148 105.116 13.3926 105.348 13.5482C105.543 13.7428 105.699 13.9373 105.777 14.2097C105.855 14.4439 105.894 14.7163 105.894 14.9886C105.894 15.3777 105.854 15.7287 105.777 16.04C105.738 16.3131 105.622 16.5855 105.505 16.7411C105.388 16.9357 105.233 17.0524 105.076 17.1691C104.92 17.2469 104.765 17.2858 104.609 17.3248H104.53V16.8967C104.686 16.8967 104.804 16.8578 104.881 16.78C105.036 16.6633 105.115 16.5069 105.232 16.2734C105.31 16.0789 105.387 15.8065 105.387 15.4563C105.27 15.612 105.152 15.7287 104.958 15.8065C104.841 15.8454 104.685 15.8843 104.529 15.9232V15.4556C104.685 15.4556 104.84 15.4166 104.958 15.3777C105.075 15.2999 105.152 15.1832 105.232 15.0665C105.31 14.9497 105.31 14.7941 105.31 14.5995V14.4439C105.27 14.2097 105.193 14.0151 105.036 13.8984C104.919 13.7817 104.724 13.7428 104.53 13.7428V13.3148H104.531ZM103.247 14.7163C103.247 14.5217 103.286 14.3272 103.324 14.1708C103.404 14.0151 103.441 13.8595 103.559 13.7428C103.675 13.5871 103.793 13.5093 103.948 13.4307C104.104 13.3529 104.259 13.3148 104.493 13.3148H104.531L104.531 13.7428C104.299 13.7428 104.104 13.8206 103.987 13.9762C103.831 14.1326 103.793 14.3264 103.793 14.5606C103.793 15.1443 104.026 15.4556 104.493 15.4945L104.531 15.4556V15.9232H104.454C104.259 15.9232 104.064 15.8843 103.87 15.7676C103.714 15.689 103.559 15.5334 103.441 15.3396C103.313 15.157 103.245 14.9392 103.247 14.7163ZM104.531 17.3248H104.453C104.258 17.3248 104.064 17.2858 103.909 17.208C103.713 17.1302 103.598 17.0135 103.48 16.8578C103.363 16.7022 103.324 16.5069 103.324 16.2734H103.792C103.83 16.7022 104.064 16.8968 104.454 16.9349C104.493 16.9349 104.531 16.9349 104.531 16.8967L104.531 17.3248ZM107.335 14.2875L108.036 13.3148H108.463V15.8446H109.048V16.2726H108.463V17.2072H107.996V16.2726H107.334V15.8446H107.996V14.054L107.334 14.949V14.2875H107.335ZM106.243 15.7676L107.334 14.2875V14.9505L106.711 15.8454L107.334 15.8446V16.2726L106.243 16.2734V15.7676ZM112.397 13.1194L111.033 17.3248H110.681L112.045 13.1194H112.397ZM114.109 15.261V15.1832C114.07 15.1443 114.07 15.1443 114.07 15.1054C114.07 14.7941 114.147 14.482 114.264 14.1708C114.381 13.8984 114.614 13.626 114.887 13.4307C115.16 13.2362 115.511 13.1194 115.9 13.1194C116.134 13.1194 116.367 13.1583 116.6 13.2362C116.835 13.2751 117.067 13.4307 117.262 13.6253C117.418 13.8198 117.536 14.0929 117.613 14.4034H117.067C117.029 14.1311 116.873 13.9365 116.678 13.7809C116.467 13.6531 116.225 13.5858 115.978 13.5863C115.978 13.5863 115.9 13.5863 115.861 13.6253H115.706C115.472 13.6642 115.317 13.742 115.161 13.8976C115.006 14.0144 114.888 14.2089 114.772 14.4431C114.694 14.6377 114.655 14.9108 114.655 15.1824C114.655 15.4556 114.695 15.7279 114.772 15.9225C114.811 16.1559 114.926 16.3116 115.044 16.4672C115.122 16.5839 115.278 16.7006 115.395 16.7396C115.55 16.8174 115.706 16.8563 115.862 16.8563H115.901C116.251 16.8563 116.525 16.7396 116.719 16.5442C116.952 16.3497 117.069 16.0773 117.108 15.7271H117.652C117.614 16.0384 117.537 16.3108 117.38 16.5442C117.225 16.7785 117.031 16.9722 116.796 17.0897C116.524 17.2454 116.251 17.3232 115.939 17.3232C115.627 17.3232 115.355 17.2843 115.121 17.1676C114.888 17.0508 114.694 16.8952 114.577 16.7396C114.421 16.545 114.305 16.3116 114.226 16.0773C114.149 15.8121 114.109 15.5373 114.109 15.261ZM121.311 16.7403V17.2072H118.351V13.198H121.272V13.7039H118.897V14.9108H121.078V15.4174H118.897V16.7403H121.311ZM123.529 15.0665H123.686C124.23 15.0665 124.502 14.833 124.502 14.3264C124.502 13.8984 124.23 13.6642 123.686 13.6642H123.529V13.1973H123.88C124.113 13.1973 124.307 13.2751 124.502 13.3521C124.658 13.4688 124.813 13.5863 124.893 13.7809C125.009 13.9365 125.047 14.1319 125.047 14.3256C125.047 14.5599 125.009 14.7147 124.931 14.91C124.853 15.1046 124.698 15.2213 124.542 15.338C124.347 15.4548 124.153 15.5326 123.88 15.5326H123.529V15.0665ZM122.595 13.6649V15.0665H123.529V15.5326L122.595 15.5334V17.2072H122.051V13.198L123.529 13.1973V13.6642L122.595 13.6649ZM125.087 17.2072V16.6236H125.671V17.2072H125.087ZM128.902 14.2875L129.602 13.3148H129.991V15.8446H130.575V16.2726H129.991V17.2072H129.524V16.2726H128.901V15.8446H129.524V14.054L128.901 14.949L128.902 14.2875ZM127.812 15.7676L128.902 14.2875V14.9505L128.239 15.8454H128.902V16.2734H127.812V15.7676ZM132.366 13.3148H132.446C132.64 13.3148 132.795 13.3529 132.99 13.4307C133.146 13.5093 133.301 13.6253 133.418 13.7817C133.498 13.9373 133.575 14.1326 133.575 14.3264H133.106C133.077 14.1623 132.996 14.012 132.874 13.8984C132.757 13.7817 132.6 13.7428 132.405 13.7428H132.366V13.3148H132.366ZM132.366 14.7163H132.446C132.64 14.7163 132.874 14.7941 133.069 14.9108C133.264 14.9886 133.38 15.1443 133.498 15.3388C133.613 15.5334 133.653 15.7668 133.653 16.0003C133.653 16.1948 133.613 16.4283 133.498 16.6228C133.418 16.8571 133.264 17.0119 133.069 17.1294C132.874 17.2462 132.68 17.324 132.446 17.324H132.366V16.896H132.406C132.601 16.896 132.757 16.8182 132.912 16.6625C133.068 16.5069 133.146 16.3123 133.146 16.0392C133.146 15.7279 133.068 15.5334 132.912 15.3777C132.757 15.2221 132.601 15.1443 132.366 15.1443V14.7163ZM130.965 15.4174C131.004 15.1832 131.005 14.9497 131.044 14.7552C131.082 14.5606 131.122 14.3661 131.199 14.1326C131.316 13.8984 131.473 13.7435 131.668 13.549C131.822 13.4315 132.057 13.3529 132.366 13.3148V13.7435C132.211 13.7435 132.094 13.8214 131.977 13.8992C131.822 14.0159 131.705 14.1715 131.628 14.405C131.55 14.5995 131.511 14.9116 131.473 15.2229C131.588 15.0672 131.706 14.9505 131.862 14.8727C131.977 14.756 132.172 14.7163 132.366 14.7163V15.1443C132.172 15.1443 132.057 15.184 131.939 15.2618C131.822 15.3404 131.705 15.4563 131.667 15.5731C131.587 15.7295 131.55 15.8851 131.55 16.0797C131.55 16.2353 131.588 16.3909 131.667 16.5077C131.782 16.6244 131.861 16.7411 132.016 16.7808C132.094 16.8586 132.211 16.8586 132.366 16.8975V17.3255C132.171 17.3255 131.976 17.2866 131.822 17.2088C131.667 17.131 131.51 17.0143 131.355 16.8586C131.238 16.703 131.16 16.5466 131.081 16.3131C131.003 16.1186 130.964 15.8454 130.964 15.5731V15.4952L130.965 15.4174ZM136.611 14.3264C136.611 14.482 136.572 14.6377 136.532 14.7155C136.494 14.8322 136.417 14.91 136.337 14.9879C136.299 15.0268 136.221 15.0657 136.105 15.1435C136.337 15.2213 136.494 15.377 136.611 15.5326C136.688 15.7271 136.765 15.8836 136.765 16.0781C136.765 16.2726 136.726 16.4283 136.649 16.5839C136.572 16.7396 136.494 16.8571 136.376 16.973C136.26 17.0897 136.104 17.1676 135.948 17.2462C135.793 17.324 135.598 17.324 135.442 17.324H135.404V16.896H135.442C135.948 16.896 136.22 16.6228 136.22 16.1559C136.22 15.8836 136.142 15.6882 135.987 15.5715C135.819 15.4447 135.614 15.3763 135.404 15.377V14.949C135.598 14.949 135.793 14.91 135.908 14.7933C136.025 14.6377 136.104 14.5209 136.104 14.3256C136.104 14.17 136.025 14.0533 135.908 13.9365C135.83 13.8198 135.635 13.742 135.404 13.742V13.314C135.676 13.314 135.908 13.3521 136.065 13.4696C136.26 13.5482 136.416 13.6642 136.494 13.8198C136.572 13.9754 136.611 14.1326 136.611 14.3264ZM135.404 17.3248C135.248 17.3248 135.093 17.3248 134.936 17.2469C134.781 17.208 134.625 17.1302 134.469 17.0135C134.313 16.8967 134.197 16.7411 134.158 16.5855C134.119 16.4298 134.08 16.2742 134.08 16.0797C134.08 15.6517 134.313 15.3404 134.741 15.1451C134.392 14.9894 134.197 14.756 134.197 14.3669C134.197 14.2105 134.236 14.0556 134.313 13.8992C134.392 13.7435 134.507 13.5879 134.702 13.4712C134.858 13.3544 135.092 13.3155 135.404 13.3155V13.7435H135.364C135.13 13.7435 134.975 13.8214 134.858 13.9381C134.78 14.0548 134.702 14.2105 134.702 14.3661C134.702 14.5217 134.781 14.6774 134.936 14.7941C135.053 14.9108 135.21 14.9497 135.404 14.9497V15.3777C135.248 15.3777 135.093 15.4166 134.976 15.4945C134.859 15.5334 134.741 15.6501 134.702 15.7676C134.624 15.8454 134.586 15.9621 134.586 16.1178C134.586 16.2337 134.625 16.3512 134.664 16.468C134.742 16.5847 134.819 16.6625 134.937 16.7792C135.053 16.8571 135.211 16.896 135.405 16.896V17.3248H135.404ZM60.1888 23.281V23.7479H57.2301V19.7768H60.1499V20.2445H57.7749V21.4896H59.9553V21.9573H57.7749V23.281H60.1888ZM64.7046 23.7479H64.1988V20.4001L63.0696 23.7479H62.5249L61.3958 20.4001V23.7479H60.8899V19.7768H61.6681L62.7973 23.1643L63.9264 19.7768H64.7046V23.7479ZM66.145 19.7768V23.7479H65.6003V19.7768H66.145ZM66.7294 20.2445V19.7768H69.9605V20.2445H68.5979V23.7479H68.0913V20.2445H66.7294ZM71.0896 19.7768V23.7479H70.5441V19.7768H71.0896ZM73.6981 19.7768C73.9705 19.7768 74.2039 19.8157 74.4763 19.9714C74.7105 20.127 74.9051 20.3215 75.0599 20.5939C75.2163 20.8663 75.3338 21.2172 75.3338 21.6063C75.3338 21.9954 75.2942 22.3067 75.1774 22.6577C75.0607 22.9689 74.8662 23.2413 74.6335 23.4366C74.3596 23.6701 74.088 23.7479 73.7386 23.7479H73.6989V23.3199C73.9331 23.3199 74.1277 23.2421 74.2825 23.0864C74.4771 22.9308 74.5938 22.6973 74.6716 22.4639C74.751 22.1915 74.7883 21.9581 74.7883 21.6849C74.7883 21.4904 74.7502 21.2958 74.7105 21.1402C74.6708 20.9457 74.5938 20.79 74.516 20.6733C74.4366 20.5169 74.3214 20.4398 74.165 20.362C74.0102 20.2842 73.8537 20.2453 73.6981 20.2453V19.7768ZM72.025 19.7768H73.6981V20.2453L72.5682 20.2445V23.3199H73.6973V23.7479H72.0242L72.025 19.7768ZM79.1485 21.7627C79.1485 21.4515 79.1088 21.1791 78.9921 20.9449C78.8769 20.6725 78.7197 20.4772 78.5252 20.3612C78.291 20.2056 78.0583 20.1667 77.7851 20.1667V19.6609C78.1361 19.6609 78.4482 19.7387 78.6816 19.8554C78.954 20.011 79.1485 20.1659 79.3034 20.3612C79.4201 20.5947 79.5376 20.8289 79.6146 21.0624C79.6925 21.2958 79.7314 21.5293 79.7314 21.7627C79.7314 21.9962 79.6917 22.2297 79.6146 22.502C79.5368 22.7355 79.4201 22.9697 79.3034 23.1643C79.1485 23.3977 78.9143 23.5534 78.6816 23.6701C78.4474 23.8257 78.1361 23.8646 77.7851 23.8646V23.3977C78.0591 23.3977 78.291 23.3199 78.5252 23.2032C78.7197 23.0475 78.8762 22.853 78.9921 22.6195C79.1088 22.3853 79.1485 22.074 79.1485 21.7627ZM77.7851 20.1667C77.4754 20.1667 77.2412 20.2056 77.0466 20.3605C76.8124 20.4772 76.656 20.6717 76.5408 20.9441C76.4241 21.1776 76.3844 21.4499 76.3844 21.762C76.3844 22.074 76.4241 22.3456 76.5408 22.6188C76.656 22.8522 76.8132 23.0468 77.0466 23.2024C77.2412 23.3191 77.4754 23.3977 77.7851 23.3977V23.8646C77.4357 23.8646 77.1237 23.8249 76.8521 23.6693C76.6151 23.5564 76.4129 23.3817 76.2669 23.1635C76.1127 22.9648 75.9944 22.7407 75.9175 22.5012C75.8778 22.2289 75.8397 21.9954 75.8397 21.762C75.8397 21.5285 75.8778 21.2943 75.9175 21.0616C75.9953 20.8281 76.112 20.5939 76.2669 20.3605C76.4233 20.1659 76.6179 20.0103 76.8521 19.8546C77.1245 19.7379 77.4357 19.6609 77.7851 19.6609V20.1667ZM83.4301 21.6071H83.5468C84.0923 21.6071 84.3647 21.3737 84.3647 20.9067C84.3647 20.4391 84.0923 20.2445 83.5865 20.2445H83.4301V19.7768H83.7414C83.9756 19.7768 84.2098 19.8157 84.3647 19.8935C84.5592 20.0103 84.676 20.127 84.7935 20.3215C84.8713 20.4772 84.9483 20.6725 84.9483 20.906C84.9483 21.1005 84.8705 21.2951 84.7935 21.4507C84.7157 21.6452 84.5989 21.8009 84.4044 21.9176C84.248 22.0343 84.0153 22.074 83.7414 22.074H83.4301V21.6071ZM82.497 20.2445V21.6071H83.4301V22.074H82.497V23.7479H81.9515V19.7768H83.4301V20.2445H82.497ZM88.6081 23.281V23.7479H85.6884V19.7768H88.5685V20.2445H86.195V21.4896H88.4136V21.9573H86.195V23.281H88.6081ZM89.8548 19.7768V23.281H91.8789V23.7479H89.3482V19.7768H89.8548ZM95.5768 21.7627C95.5768 21.4515 95.499 21.1791 95.3823 20.9449C95.2655 20.6725 95.1099 20.4772 94.9153 20.3612C94.6811 20.2056 94.4469 20.1667 94.1753 20.1667V19.6609C94.5247 19.6609 94.8368 19.7387 95.0702 19.8554C95.3441 20.011 95.5387 20.1659 95.6935 20.3612C95.8484 20.5947 95.9278 20.8289 96.0048 21.0624C96.0826 21.2958 96.1215 21.5293 96.1215 21.7627C96.1215 21.9962 96.0818 22.2297 96.0048 22.502C95.927 22.7355 95.8484 22.9697 95.6935 23.1643C95.5387 23.3977 95.3441 23.5534 95.0702 23.6701C94.836 23.8257 94.5247 23.8646 94.1753 23.8646V23.3977C94.4476 23.3977 94.6811 23.3199 94.9153 23.2032C95.1099 23.0475 95.2648 22.853 95.3823 22.6195C95.4998 22.3861 95.5768 22.074 95.5768 21.7627ZM94.1753 20.1667C93.9029 20.1667 93.6313 20.2056 93.4352 20.3605C93.2026 20.4772 93.0461 20.6717 92.9294 20.9441C92.8516 21.1776 92.7746 21.4499 92.7746 21.762C92.7746 22.074 92.8524 22.3456 92.9294 22.6188C93.0461 22.8522 93.2033 23.0468 93.4352 23.2024C93.6313 23.3191 93.9037 23.3977 94.1753 23.3977V23.8646C93.8243 23.8646 93.5123 23.8249 93.2407 23.6693C93.0041 23.5564 92.8025 23.3816 92.657 23.1635C92.503 22.9645 92.3842 22.7405 92.3061 22.5012C92.268 22.2289 92.2283 21.9954 92.2283 21.762C92.2283 21.5285 92.268 21.2943 92.3061 21.0616C92.3855 20.8281 92.5022 20.5939 92.657 20.3605C92.8135 20.1659 93.0065 20.0103 93.2407 19.8546C93.5131 19.7379 93.8243 19.6609 94.1753 19.6609V20.1667ZM59.8386 42.7847V39.5536H60.3444V43.5636H59.7608L57.697 40.3326V43.5636H57.1912V39.5536H57.8138L59.8386 42.7847ZM62.7195 41.4221H62.8751C63.4198 41.4221 63.693 41.1886 63.693 40.6828C63.693 40.2548 63.4198 40.0205 62.8751 40.0205H62.7195V39.5529H63.0696C63.3031 39.5529 63.4976 39.6315 63.6922 39.7085C63.8478 39.8252 64.0035 39.9427 64.0813 40.0984C64.1972 40.2921 64.2369 40.4875 64.2369 40.682C64.2369 40.8765 64.198 41.0711 64.1202 41.2656C64.0424 41.461 63.8867 41.5769 63.7311 41.6944C63.5366 41.8104 63.342 41.889 63.0689 41.889H62.7187L62.7195 41.4221ZM61.7849 40.0213V41.4228L62.7195 41.4221V41.8905H61.7849V43.5644H61.2393V39.5544H62.7187V40.0221L61.7849 40.0213ZM69.3768 43.0967V43.5636H66.4182V39.5536H69.3379V40.0595H66.9629V41.2664H69.1434V41.7341H66.9629V43.0967H69.3768ZM72.7238 42.7847V39.5536H73.2312V43.5636H72.646L70.5838 40.3326V43.5636H70.078V39.5536H70.7005L72.7238 42.7847ZM76.2669 39.5536V43.5636H75.7229V39.5536H76.2669ZM80.0831 40.7217H79.6146C79.5765 40.5271 79.5368 40.3715 79.4201 40.2548C79.3379 40.1349 79.2129 40.051 79.0707 40.0205C78.9143 39.9427 78.7594 39.9427 78.6022 39.9427C78.3696 39.9427 78.1353 39.9816 77.9789 40.0587C77.7844 40.1754 77.6692 40.3699 77.6692 40.6431C77.6692 40.8765 77.8637 41.0711 78.175 41.11C78.6808 41.2656 79.0699 41.3442 79.3026 41.3831C79.8878 41.5388 80.1975 41.889 80.1975 42.4734C80.1975 42.7458 80.1197 42.9784 79.9648 43.173C79.8084 43.3683 79.6139 43.4843 79.3796 43.5629C79.147 43.6407 78.9127 43.6796 78.6411 43.6796C78.1353 43.6796 77.7462 43.5628 77.4739 43.3294C77.1626 43.0952 77.0451 42.745 77.0451 42.2773H77.5509C77.5509 42.5115 77.589 42.6672 77.7058 42.8228C77.7836 42.9776 77.94 43.0562 78.0949 43.1333C78.2894 43.1722 78.4458 43.2119 78.6404 43.2119C78.7952 43.2119 78.9516 43.2119 79.1073 43.1722C79.2637 43.1333 79.4185 43.0562 79.4964 42.9387C79.6131 42.8609 79.6909 42.7053 79.6909 42.5496C79.6909 42.394 79.6528 42.2765 79.6131 42.1995C79.5353 42.1209 79.4582 42.0438 79.3407 42.0049C79.224 41.9263 79.0684 41.8882 78.8349 41.8493C78.6404 41.7707 78.4061 41.7326 78.2513 41.6936C78.0567 41.6547 77.8622 41.6158 77.7058 41.538C77.5509 41.4602 77.4334 41.3435 77.3167 41.2267C77.1999 41.0711 77.1618 40.9155 77.1618 40.682C77.1618 40.4875 77.1999 40.2921 77.3167 40.0984C77.3945 39.903 77.5509 39.7482 77.7836 39.6307C77.9781 39.5139 78.2124 39.4743 78.5236 39.4743C78.9524 39.4743 79.3018 39.5529 79.4964 39.6696C79.7306 39.8252 79.887 39.9809 79.9648 40.1754C80.0434 40.3326 80.0831 40.5271 80.0831 40.7217ZM84.0153 41.5785C84.0153 41.2672 83.9756 40.9559 83.8589 40.7217C83.7421 40.4882 83.5865 40.2929 83.392 40.1381C83.1577 40.0213 82.9235 39.9435 82.6519 39.9435V39.475C83.0029 39.475 83.3149 39.5147 83.5468 39.6704C83.8207 39.7871 84.0153 39.9435 84.1702 40.1762C84.2869 40.3707 84.4044 40.605 84.4814 40.8384C84.5592 41.1108 84.5982 41.3442 84.5982 41.5777C84.5982 41.8111 84.5585 42.0454 84.4814 42.2781C84.4036 42.5123 84.2869 42.7458 84.1702 42.9784C84.0153 43.173 83.8207 43.3683 83.5468 43.4842C83.2674 43.6169 82.9612 43.6837 82.6519 43.6796V43.2119C82.9243 43.2119 83.1577 43.1333 83.392 42.9776C83.5865 42.8617 83.7414 42.6672 83.8589 42.394C83.9756 42.1629 84.0153 41.8897 84.0153 41.5785ZM82.6519 39.9435C82.3406 39.9435 82.108 40.0213 81.9134 40.1381C81.6945 40.283 81.5191 40.4847 81.406 40.7217C81.2909 40.9559 81.2512 41.2664 81.2512 41.5785C81.2512 41.8905 81.2909 42.1629 81.406 42.3963C81.5228 42.6695 81.68 42.864 81.9134 42.98C82.108 43.1356 82.3406 43.2142 82.6519 43.2142V43.6819C82.3025 43.6819 81.9905 43.6033 81.7173 43.4866C81.4846 43.3706 81.2901 43.1753 81.1337 42.9808C80.9788 42.7473 80.8613 42.5139 80.7843 42.2804C80.7446 42.0469 80.7049 41.8127 80.7049 41.58C80.7049 41.3474 80.7446 41.1123 80.7843 40.8408C80.8621 40.6073 80.9788 40.3731 81.1337 40.1785C81.2901 39.984 81.4846 39.7894 81.7173 39.6727C81.9912 39.5171 82.3025 39.4774 82.6519 39.4774V39.9435ZM87.8696 39.6704C88.1794 39.6704 88.4533 39.749 88.6478 39.9038C88.8424 40.0991 88.9972 40.2929 89.0766 40.5661C89.1544 40.8003 89.1918 41.0719 89.1918 41.345C89.1918 41.7341 89.1537 42.0843 89.114 42.3963C89.0361 42.6695 88.9194 42.9022 88.8027 43.0967C88.686 43.2913 88.5685 43.408 88.4136 43.5255C88.2587 43.6033 88.1023 43.6414 87.9078 43.6811H87.8696V43.2523C87.9848 43.2523 88.1023 43.2134 88.219 43.1356C88.3358 43.0197 88.4533 42.8633 88.5303 42.6298C88.6081 42.4353 88.6852 42.1629 88.7249 41.8119C88.6111 41.9606 88.4643 42.0808 88.2961 42.1629C88.1412 42.2018 87.9848 42.2407 87.8689 42.2788V41.8112C88.0237 41.8112 88.1412 41.7722 88.258 41.7333C88.3731 41.6555 88.4906 41.5388 88.5303 41.4221C88.6081 41.3053 88.6471 41.1497 88.6471 40.9551C88.6471 40.9551 88.6471 40.8765 88.6074 40.7995C88.6074 40.5653 88.4906 40.3707 88.3731 40.2548C88.2183 40.1381 88.0634 40.0991 87.8689 40.0991L87.8696 39.6704ZM86.5841 41.0719C86.5841 40.8773 86.5841 40.6828 86.6619 40.5271C86.7016 40.3715 86.7786 40.2159 86.8564 40.0595C86.9732 39.9435 87.0907 39.8649 87.2471 39.7871C87.402 39.7085 87.5965 39.6704 87.7911 39.6704H87.8696L87.8704 40.0991C87.6362 40.0991 87.4416 40.177 87.2852 40.3326C87.1685 40.4882 87.0907 40.6828 87.0907 40.9162C87.0907 41.5007 87.3249 41.8111 87.8307 41.8508V41.8112H87.8704V42.2788H87.7537C87.5576 42.2788 87.363 42.201 87.1685 42.1232C87.0136 42.0073 86.8572 41.8897 86.7413 41.6952C86.623 41.5396 86.5841 41.3053 86.5841 41.0719ZM87.8696 43.6811H87.7903C87.556 43.6811 87.4012 43.6414 87.2066 43.5644C87.0518 43.4858 86.8954 43.3699 86.7779 43.2142C86.6603 43.0586 86.623 42.864 86.623 42.6298H87.0899C87.1677 43.0586 87.3623 43.2531 87.7903 43.2531L87.8696 43.2523V43.6811ZM90.9839 39.6704C91.2563 39.6704 91.4898 39.7093 91.6843 39.8649C91.8789 39.9816 92.0337 40.2151 92.1115 40.4882C92.2283 40.7995 92.3061 41.1505 92.3061 41.5777V41.7333C92.3061 42.0446 92.3061 42.2781 92.2283 42.5123C92.1901 42.7458 92.1115 42.9403 91.9956 43.1348C91.8789 43.2905 91.7614 43.4461 91.5668 43.5247C91.4104 43.6407 91.2158 43.6804 90.9832 43.6804V43.2516C91.2158 43.2127 91.3723 43.1348 91.489 42.9784C91.6439 42.7839 91.7217 42.5893 91.7614 42.3948C91.7614 42.1613 91.801 41.9271 91.801 41.6944C91.801 41.3046 91.7614 41.0322 91.6843 40.7995C91.6595 40.5915 91.5625 40.3988 91.4104 40.2548C91.2952 40.1762 91.138 40.0991 90.9832 40.0991L90.9839 39.6704ZM89.6603 41.345C89.6984 40.9948 89.777 40.6828 89.8548 40.4501C89.9326 40.2159 90.0875 40.0213 90.282 39.8657C90.4384 39.7497 90.6727 39.6711 90.9839 39.6711V40.0999C90.7878 40.0999 90.633 40.1777 90.5155 40.2937C90.3988 40.4501 90.2812 40.6057 90.2431 40.8392C90.2034 41.0727 90.1653 41.3061 90.1653 41.5396C90.1653 42.0454 90.2431 42.4742 90.3598 42.7854C90.4766 43.0967 90.6711 43.2531 90.9832 43.2531V43.6819C90.6719 43.6819 90.398 43.5652 90.2034 43.4088C89.9949 43.207 89.8469 42.9509 89.7762 42.6695C89.6968 42.3963 89.6595 42.0851 89.6198 41.7349C89.6595 41.696 89.6595 41.6189 89.6595 41.5403L89.6603 41.345ZM94.0982 39.6704C94.3309 39.6704 94.5652 39.7093 94.7597 39.8649C94.9543 39.9816 95.1107 40.2151 95.2266 40.4882C95.3449 40.7995 95.4227 41.1505 95.4227 41.5777V41.7333C95.4227 42.0446 95.383 42.2781 95.3449 42.5123C95.2655 42.7458 95.1885 42.9403 95.1107 43.1348C94.9939 43.2905 94.8367 43.4461 94.6819 43.5247C94.4873 43.6407 94.2928 43.6804 94.0982 43.6804V43.2516C94.2928 43.2127 94.4873 43.1348 94.6041 42.9784C94.7208 42.7839 94.7986 42.5893 94.8367 42.3948C94.8764 42.1613 94.9161 41.9271 94.9161 41.6944C94.9161 41.3046 94.8764 41.0322 94.7994 40.7995C94.7216 40.5264 94.643 40.3707 94.4881 40.2548C94.3714 40.1762 94.2539 40.0991 94.099 40.0991V39.6704H94.0982ZM92.7746 41.345C92.7746 40.9948 92.8524 40.6828 92.9294 40.4501C93.0461 40.2159 93.1636 40.0213 93.3582 39.8657C93.5527 39.7497 93.787 39.6711 94.0982 39.6711V40.0999H94.0586C93.864 40.0999 93.7092 40.1777 93.5916 40.2937C93.4749 40.4501 93.3971 40.6057 93.3574 40.8392C93.2796 41.0727 93.2796 41.3061 93.2796 41.5396C93.2796 42.0454 93.3177 42.4742 93.4345 42.7854C93.5512 43.0967 93.7854 43.2531 94.0578 43.2531H94.0975V43.6819C93.7862 43.6819 93.5123 43.5652 93.3177 43.4088C93.1092 43.207 92.9612 42.9509 92.8905 42.6695C92.7738 42.3963 92.7341 42.0851 92.7341 41.7349V41.5403C92.7349 41.4617 92.7349 41.3839 92.7746 41.345ZM95.7714 43.5636C95.811 43.1348 95.8881 42.7847 96.0826 42.5512C96.2772 42.2781 96.5495 42.0835 96.9402 41.8508C97.3293 41.6563 97.6016 41.5007 97.7184 41.3831C97.8732 41.2664 97.9129 41.0719 97.9129 40.8384C97.9129 40.605 97.8732 40.4493 97.7184 40.2929C97.6016 40.177 97.4071 40.0991 97.1729 40.0991C96.6289 40.0991 96.3947 40.4096 96.3565 41.0719H95.8881C95.8881 40.7995 95.9278 40.5661 96.0048 40.3715C96.1215 40.1381 96.2375 39.9824 96.432 39.8657C96.6663 39.7101 96.9005 39.6711 97.2118 39.6711C97.446 39.6711 97.6405 39.71 97.8351 39.7879C97.99 39.8657 98.1464 39.9824 98.2623 40.177C98.379 40.3715 98.4584 40.6057 98.4584 40.8773C98.4187 41.1886 98.3417 41.4221 98.1845 41.6174C97.99 41.7722 97.7557 41.9676 97.4063 42.1621C97.0554 42.3177 96.8227 42.4734 96.6663 42.5901C96.5114 42.7068 96.3939 42.8633 96.3168 43.0959H98.4584V43.5636H95.7714ZM56.9967 29.1602H57.7749C57.7749 29.315 57.8138 29.4325 57.8916 29.5096C57.9702 29.6263 58.0472 29.7041 58.2036 29.7438C58.3204 29.7827 58.4371 29.8216 58.5927 29.8216C59.1382 29.8216 59.4495 29.6271 59.4495 29.3158C59.4495 29.1999 59.4106 29.1213 59.3717 29.0435C59.2939 28.9649 59.2161 28.9267 59.1382 28.9267C59.0604 28.887 58.9437 28.8481 58.7492 28.81C58.5546 28.7322 58.4379 28.7322 58.3601 28.6933C58.1195 28.6572 57.8843 28.5919 57.6597 28.4987C57.4651 28.4209 57.3484 28.3042 57.2317 28.1493C57.115 27.9929 57.0371 27.7594 57.0371 27.4863C57.0371 27.2528 57.115 27.0194 57.2317 26.8638C57.3484 26.6684 57.5041 26.5136 57.7375 26.435C57.9717 26.3182 58.2441 26.2801 58.5554 26.2801C58.8285 26.2801 59.1001 26.3182 59.2954 26.3961C59.49 26.4747 59.6456 26.5914 59.8005 26.7073C59.9172 26.8241 59.9958 26.9797 60.0347 27.1361C60.1125 27.291 60.1125 27.4085 60.1514 27.5641H59.3336C59.2954 27.1742 59.0223 26.9797 58.5165 26.9797C58.3219 26.9797 58.1663 27.0194 58.0107 27.0964C57.8939 27.1743 57.8161 27.291 57.8161 27.4466C57.8161 27.6412 57.9321 27.7968 58.1274 27.8357C58.3219 27.9143 58.5165 27.9524 58.711 27.9913C58.8667 28.0303 59.0223 28.0699 59.1001 28.0699C59.3733 28.1485 59.6067 28.2256 59.7624 28.3034C59.918 28.382 60.0736 28.4979 60.1514 28.6536C60.2293 28.7703 60.2674 28.9649 60.2674 29.1991C60.2674 29.4715 60.1896 29.7041 60.0728 29.8613C59.9561 30.0559 59.7997 30.1718 59.6448 30.2893C59.4503 30.3679 59.2947 30.445 59.139 30.445C58.9834 30.4839 58.8277 30.4839 58.7499 30.4839C57.5803 30.4831 56.9967 30.0551 56.9967 29.1602ZM60.851 30.4053V26.3953H61.6681V30.4053H60.851ZM62.2525 29.1602H63.0307C63.0307 29.315 63.0696 29.4325 63.1475 29.5096C63.2245 29.6263 63.342 29.7041 63.4587 29.7438C63.5755 29.7827 63.6922 29.8216 63.8478 29.8216C64.3926 29.8216 64.7046 29.6271 64.7046 29.3158C64.7046 29.1999 64.6657 29.1213 64.6268 29.0435C64.549 28.9649 64.4712 28.9267 64.3933 28.9267C64.3155 28.887 64.1988 28.8481 64.0042 28.81C63.8097 28.7322 63.693 28.7322 63.6151 28.6933C63.3746 28.6572 63.1394 28.5919 62.9148 28.4987C62.7202 28.4209 62.6035 28.3042 62.4868 28.1493C62.3701 27.9929 62.2922 27.7594 62.2922 27.4863C62.2922 27.2528 62.3701 27.0194 62.4868 26.8638C62.6035 26.6684 62.7591 26.5136 62.9926 26.435C63.2261 26.3182 63.4992 26.2801 63.8105 26.2801C64.1217 26.2801 64.3552 26.3182 64.5505 26.3961C64.7451 26.4747 64.9396 26.5914 65.0563 26.7073C65.1731 26.8241 65.2509 26.9797 65.2898 27.1361C65.3676 27.291 65.4065 27.4085 65.4065 27.5641H64.5879C64.549 27.1742 64.2766 26.9797 63.77 26.9797C63.5755 26.9797 63.419 27.0194 63.2642 27.0964C63.1475 27.1743 63.0696 27.291 63.0696 27.4466C63.0696 27.6412 63.1864 27.7968 63.3809 27.8357C63.5755 27.9143 63.77 27.9524 63.9646 27.9913C64.1202 28.0303 64.2758 28.0699 64.3536 28.0699C64.6268 28.1485 64.8602 28.2256 65.0159 28.3034C65.2104 28.382 65.3272 28.4979 65.405 28.6536C65.4828 28.7703 65.5217 28.9649 65.5217 29.1991C65.5217 29.4715 65.4439 29.7041 65.3272 29.8613C65.2104 30.0559 65.0548 30.1718 64.8992 30.2893C64.7046 30.3679 64.549 30.445 64.3933 30.445C64.2377 30.4839 64.0821 30.4839 64.0042 30.4839C62.8362 30.4831 62.2525 30.0551 62.2525 29.1602ZM67.0018 30.4053V27.0957H65.7948V26.3953H69.0656V27.0957H67.8586V30.4053H67.0018ZM69.5714 30.4053V26.3953H72.4911V27.0957H70.3893V27.9524H72.3347V28.6528H70.3893V29.6652H72.6086V30.4053H69.5714ZM73.2312 30.4053V26.3953H74.4763L75.1767 29.5493L75.9175 26.3953H77.1237V30.4053H76.3455V27.0575H76.3066L75.5658 30.4053H74.7502L74.0094 27.0575V30.4053H73.2312ZM79.4979 26.3953H79.9664L81.406 30.4053H80.473L80.2388 29.5485H79.4987V28.8855H80.0045L79.4987 27.2894L79.4979 26.3953ZM77.5906 30.4053L78.9921 26.3953H79.4979V27.2902H79.4598L78.954 28.8863H79.4979V29.5493H78.7594L78.4855 30.4061L77.5906 30.4053ZM84.7935 26.3953H85.1048C85.2993 26.3953 85.4939 26.4342 85.6487 26.4739C85.7654 26.5517 85.9226 26.6287 85.9997 26.7463C86.1164 26.863 86.1942 27.0194 86.2339 27.1361C86.3117 27.291 86.3117 27.4855 86.3117 27.6412C86.3117 28.0303 86.2339 28.3423 86.0394 28.5758C85.8433 28.8092 85.5335 28.9259 85.0651 28.9259H84.7927V28.2637H84.8705C85.0651 28.2637 85.1818 28.2248 85.2993 28.1859C85.3771 28.1073 85.416 28.0295 85.4542 27.9517C85.4939 27.8738 85.4938 27.796 85.4938 27.6793C85.4938 27.484 85.4542 27.3291 85.3771 27.2505C85.2604 27.1346 85.0658 27.0949 84.7935 27.0949V26.3953ZM83.2752 30.4053V26.3953H84.7935V27.0949L84.0931 27.0957V28.2637H84.7927V28.9259H84.0931V30.4053H83.2752ZM88.7256 26.2793C88.998 26.2793 89.2315 26.3175 89.4657 26.3953C89.6603 26.4739 89.8929 26.5906 90.0493 26.7844C90.2439 26.9408 90.3606 27.1735 90.4781 27.4466C90.5933 27.7198 90.633 28.0303 90.633 28.4201C90.633 28.7314 90.5933 29.0435 90.5163 29.2769C90.3995 29.5501 90.282 29.7827 90.1272 29.9391C89.9326 30.1337 89.7381 30.2504 89.5038 30.3679C89.2712 30.4457 88.998 30.4839 88.7256 30.4839V29.7835C88.9599 29.7835 89.1926 29.7446 89.349 29.589C89.5038 29.4333 89.6213 29.2777 89.6984 29.0831C89.7752 28.8843 89.8148 28.673 89.8151 28.4598C89.8151 28.1096 89.7373 27.7595 89.5809 27.4474C89.4657 27.1743 89.1537 27.0194 88.7249 27.0194L88.7256 26.2793ZM86.8175 28.6139V28.4583C86.8175 28.0295 86.8557 27.6404 87.0121 27.3299C87.1288 27.0186 87.3615 26.7455 87.6354 26.5509C87.9078 26.3953 88.2969 26.2786 88.7249 26.2786V27.0178H88.6852C88.5303 27.0178 88.3739 27.0567 88.2183 27.1346C88.0634 27.2124 87.907 27.3291 87.8292 27.5237C87.7124 27.7182 87.6346 27.9906 87.6346 28.3018C87.6346 28.7306 87.7125 29.0808 87.8689 29.3532C88.0634 29.6263 88.3358 29.782 88.7249 29.782V30.4823C88.3358 30.4823 87.9848 30.4045 87.7125 30.2489C87.4401 30.0925 87.2066 29.8598 87.051 29.5485C86.8954 29.2761 86.8175 28.9649 86.8175 28.6139ZM92.9294 26.3953H93.3185C93.5924 26.3953 93.8243 26.4342 94.0204 26.5509C94.215 26.6669 94.3301 26.7844 94.4477 26.9789C94.5255 27.1353 94.5644 27.3299 94.5644 27.5244C94.5644 27.6404 94.5644 27.7968 94.5247 27.9135C94.4469 28.0692 94.4095 28.1478 94.292 28.2637C94.2142 28.3423 94.0975 28.4193 93.9807 28.4583C94.1753 28.5369 94.292 28.6528 94.3698 28.8084C94.4476 28.9252 94.4477 29.1197 94.4477 29.3532V29.7034C94.4477 29.8979 94.4873 30.0146 94.4873 30.1321C94.5255 30.21 94.5652 30.2489 94.6422 30.2878V30.4045H93.7092C93.7092 30.2878 93.6695 30.2092 93.6695 30.0924C93.6313 29.9765 93.6313 29.8598 93.6313 29.743V29.3929C93.6313 29.2364 93.5916 29.1594 93.5916 29.0816C93.552 29.003 93.5123 28.926 93.3971 28.8863C93.3177 28.8474 93.2026 28.8084 93.0064 28.8084H92.9286V28.147H93.1629C93.3574 28.147 93.5123 28.1073 93.6313 27.9906C93.7092 27.9128 93.7465 27.7571 93.7465 27.6015C93.7465 27.4458 93.7084 27.3291 93.6313 27.2513C93.5131 27.1353 93.3971 27.0957 93.1629 27.0957H92.9286L92.9294 26.3953ZM91.2952 30.4053V26.3953H92.9294L92.9286 27.0957H92.1115V28.1478H92.9294V28.8092H92.1115V30.4061L91.2952 30.4053ZM96.1604 30.4053V27.0957H94.9932V26.3953H98.225V27.0957H97.018V30.4053H96.1604ZM98.6911 29.0816V26.3953H99.5487V29.0038C99.5487 29.1991 99.5868 29.354 99.6654 29.4715C99.7432 29.5882 99.8202 29.666 99.9378 29.7049C100.016 29.7835 100.132 29.7835 100.249 29.7835C100.793 29.7835 101.067 29.5501 101.067 29.0045V26.3961H101.923V29.0045C101.923 29.3158 101.885 29.5501 101.806 29.7446C101.691 29.9391 101.574 30.094 101.457 30.1726C101.3 30.2893 101.106 30.3679 100.911 30.4457C100.717 30.4847 100.522 30.4847 100.289 30.4847C100.016 30.4847 99.744 30.4457 99.5098 30.3687C99.2771 30.252 99.0825 30.0948 98.9261 29.9002C98.7697 29.7057 98.6911 29.3929 98.6911 29.0816ZM102.545 28.3812C102.585 28.0699 102.623 27.7968 102.7 27.5633C102.78 27.3299 102.896 27.0957 103.051 26.9011C103.208 26.7066 103.402 26.5509 103.675 26.4334C103.909 26.3556 104.18 26.2786 104.531 26.2786H104.688C104.999 26.3167 105.233 26.3564 105.506 26.512C105.738 26.628 105.934 26.7844 106.05 27.0178C106.166 27.2124 106.244 27.4069 106.284 27.6404H105.428C105.428 27.5626 105.388 27.4458 105.311 27.368C105.236 27.2487 105.128 27.1538 105 27.0949C104.883 27.0171 104.726 26.9781 104.571 26.9781C104.416 26.9781 104.299 27.0178 104.182 27.0567C104.026 27.0957 103.91 27.1727 103.793 27.2513C103.676 27.368 103.598 27.5244 103.519 27.719C103.441 27.9135 103.404 28.1478 103.404 28.4193C103.404 28.7306 103.442 28.9641 103.559 29.1594C103.636 29.3532 103.753 29.5088 103.91 29.5874C104.025 29.7034 104.221 29.743 104.377 29.782H104.531C104.688 29.782 104.843 29.743 105 29.7034C105.117 29.6255 105.234 29.5485 105.349 29.3929C105.429 29.2761 105.506 29.1197 105.544 28.9252H104.611V28.2248H106.284V30.4053H105.738L105.661 29.8987C105.528 30.0393 105.385 30.1696 105.233 30.2885C105.077 30.3671 104.959 30.4053 104.805 30.4442C104.648 30.4831 104.493 30.4831 104.299 30.4831C104.064 30.4831 103.87 30.4442 103.636 30.3275C103.441 30.2496 103.247 30.0932 103.092 29.9384C102.935 29.7438 102.78 29.5096 102.701 29.2372C102.623 29.003 102.545 28.6917 102.545 28.3812ZM107.061 29.0816V26.3953H107.879V29.0038C107.879 29.1991 107.919 29.354 107.996 29.4715C108.073 29.589 108.152 29.666 108.268 29.7049C108.385 29.7835 108.502 29.7835 108.619 29.7835C109.165 29.7835 109.397 29.5501 109.397 29.0045V26.3961H110.255V29.0045C110.255 29.3158 110.215 29.5501 110.138 29.7446C110.061 29.9391 109.944 30.094 109.787 30.1726C109.632 30.2893 109.476 30.3679 109.281 30.4457C109.087 30.4847 108.854 30.4847 108.66 30.4847C108.348 30.4847 108.114 30.4457 107.88 30.3687C107.608 30.252 107.413 30.0948 107.257 29.9002C107.101 29.7041 107.061 29.3929 107.061 29.0816ZM111.072 30.4053V26.3953H114.03V27.0957H111.888V27.9524H113.875V28.6528H111.888V29.6652H114.109V30.4053H111.072ZM112.98 25.1883L113.603 26.0062H112.98L112.629 25.5385L112.28 26.0062H111.617L112.28 25.1883H112.98ZM114.614 29.1602H115.393C115.393 29.315 115.431 29.4325 115.51 29.5096C115.588 29.6263 115.705 29.7041 115.821 29.7438C115.936 29.7827 116.054 29.8216 116.21 29.8216C116.754 29.8216 117.066 29.6271 117.066 29.3158C117.064 29.2198 117.038 29.126 116.989 29.0435C116.911 28.9649 116.834 28.9267 116.754 28.9267C116.677 28.887 116.56 28.8481 116.365 28.81C116.171 28.7322 116.054 28.7322 115.976 28.6933C115.736 28.6572 115.5 28.5919 115.276 28.4987C115.081 28.4209 114.965 28.3042 114.847 28.1493C114.73 27.9929 114.652 27.7594 114.652 27.4863C114.652 27.2528 114.73 27.0194 114.847 26.8638C114.964 26.6684 115.119 26.5136 115.353 26.435C115.587 26.3182 115.859 26.2801 116.171 26.2801C116.443 26.2801 116.716 26.3182 116.911 26.3961C117.105 26.4739 117.26 26.5914 117.417 26.7073C117.533 26.8241 117.611 26.9797 117.649 27.1361C117.729 27.291 117.766 27.4085 117.766 27.5641H116.948C116.91 27.1742 116.637 26.9797 116.132 26.9797C115.936 26.9797 115.781 27.0194 115.624 27.0964C115.565 27.1335 115.516 27.185 115.482 27.2463C115.448 27.3076 115.43 27.3765 115.43 27.4466C115.43 27.6412 115.547 27.7968 115.741 27.8357C115.936 27.9143 116.132 27.9524 116.325 27.9913C116.481 28.0303 116.636 28.0699 116.715 28.0699C116.988 28.1485 117.221 28.2256 117.377 28.3034C117.533 28.382 117.688 28.4979 117.766 28.6536C117.844 28.7703 117.883 28.9649 117.883 29.1991C117.883 29.4715 117.805 29.7041 117.688 29.8613C117.571 30.0559 117.416 30.1718 117.259 30.2893C117.065 30.3679 116.91 30.445 116.754 30.445C116.599 30.4839 116.442 30.4839 116.364 30.4839C115.199 30.4831 114.614 30.0551 114.614 29.1602ZM58.9429 37.0238H58.8651V36.3226C59.1382 36.3226 59.3709 36.167 59.5273 35.9335C59.6441 35.6604 59.7219 35.311 59.7219 34.9211C59.7219 34.6876 59.683 34.4931 59.6441 34.2978C59.6052 34.1421 59.4876 33.9873 59.3709 33.8698C59.2542 33.753 59.0978 33.7141 58.8651 33.7141V33.0138H58.9818C59.332 33.0138 59.6441 33.0924 59.8767 33.2869C60.1102 33.4418 60.3047 33.676 60.4223 33.9491C60.5001 34.2215 60.5779 34.5328 60.5779 34.8433C60.5779 35.2331 60.539 35.5436 60.4223 35.8954C60.3055 36.2067 60.1499 36.479 59.8767 36.7133C59.6441 36.907 59.332 37.0238 58.9429 37.0238ZM58.8651 37.0238H57.1912V33.0138H58.8651V33.7141H58.0083V36.3226H58.8651V37.0238ZM62.7973 33.0138H63.265L64.7054 37.0238H63.7708L63.5373 36.2059H62.7973V35.5047H63.3039L62.7973 33.9087V33.0138ZM60.8899 37.0238L62.3304 33.0138H62.7973V33.9087L62.2915 35.5047H62.7973V36.2059H62.0572L61.7849 37.0238H60.8899ZM68.2858 32.8963H68.3247C68.7527 32.8963 69.1029 33.013 69.4142 33.2075C69.6881 33.4021 69.8827 33.6752 70.0375 33.9865C70.1542 34.297 70.2321 34.6487 70.2321 34.9989C70.1939 35.1935 70.1939 35.388 70.1939 35.5429C70.1588 35.7042 70.1063 35.8612 70.0375 36.0113C69.9994 36.1662 69.9208 36.2837 69.8033 36.4393L70.2321 36.8284L69.8033 37.2961L69.3364 36.8284C69.0157 37.0094 68.6533 37.1036 68.285 37.1016V36.4012C68.4796 36.4012 68.6352 36.3615 68.7527 36.2845L68.3636 35.9343L68.7916 35.4666L69.2196 35.8565C69.2593 35.7779 69.299 35.6222 69.3364 35.5055C69.3761 35.3896 69.3761 35.195 69.3761 34.9608C69.3761 34.7273 69.3364 34.5328 69.2593 34.2985C69.1815 34.104 69.0648 33.9491 68.9084 33.7935C68.7527 33.6768 68.5582 33.599 68.3247 33.599H68.2858V32.8963ZM66.3785 34.96C66.3785 34.7265 66.4174 34.4542 66.4952 34.2207C66.573 33.9873 66.6508 33.7927 66.8065 33.5585C66.9621 33.3639 67.1574 33.2083 67.4298 33.0916C67.6633 32.9748 67.9745 32.8963 68.2858 32.8963V33.5974C68.1302 33.5974 67.9745 33.6355 67.8189 33.7133C67.6625 33.7919 67.5076 33.9476 67.3901 34.1413C67.2734 34.3756 67.1956 34.6479 67.1956 34.9989C67.1956 35.0378 67.2345 35.1538 67.2345 35.2713C67.2345 35.6215 67.3512 35.8946 67.5458 36.0891C67.7403 36.2837 67.9738 36.4012 68.285 36.4012V37.1016C67.9349 37.1016 67.6625 37.023 67.3901 36.9062C67.1567 36.7895 66.9621 36.6331 66.8065 36.4386C66.6508 36.244 66.573 36.0106 66.4952 35.7763C66.4187 35.5109 66.3794 35.2362 66.3785 34.96ZM70.8562 35.7001V33.0138H71.7122V35.6222C71.7122 35.8176 71.7519 35.9724 71.8289 36.0899C71.9083 36.2067 71.9853 36.2845 72.1028 36.3234C72.1806 36.402 72.2974 36.402 72.4141 36.402C72.958 36.402 73.232 36.1677 73.232 35.623V33.0145H74.088V35.623C74.088 35.9343 74.0483 36.1677 73.9712 36.3623C73.8545 36.5576 73.7386 36.7133 73.6218 36.7911C73.4654 36.9078 73.2709 36.9856 73.0763 37.0642C72.8818 37.1031 72.6872 37.1031 72.453 37.1031C72.1806 37.1031 71.9091 37.0642 71.6748 36.9864C71.4406 36.8704 71.246 36.7529 71.0912 36.5187C70.9332 36.3226 70.8562 36.0113 70.8562 35.7001ZM76.5011 33.0138H76.968L78.4092 37.0238H77.4762L77.242 36.2059H76.5019V35.5047H77.0077L76.5019 33.9087L76.5011 33.0138ZM74.593 37.0238L75.9945 33.0138H76.5011L76.5004 33.9087H76.4622L75.9564 35.5047H76.5004V36.2059H75.7603L75.4879 37.0238H74.593ZM78.9143 37.0238V33.0138H79.7718V36.2837H81.7562V37.0238H78.9143ZM82.2628 37.0238V33.0138H83.1196V37.0238H82.2628ZM85.6487 37.0238H85.5335V36.3226C85.8433 36.3226 86.0394 36.167 86.195 35.9335C86.3498 35.6604 86.4292 35.311 86.4292 34.9211C86.3895 34.6876 86.3895 34.4931 86.3125 34.2978C86.2745 34.1277 86.1781 33.9762 86.0401 33.8698C85.9234 33.753 85.7662 33.7141 85.5343 33.7141V33.0138H85.6495C86.0401 33.0138 86.3498 33.0924 86.5841 33.2869C86.8183 33.4418 86.9732 33.676 87.0899 33.9491C87.2066 34.2215 87.2463 34.5328 87.2463 34.8433C87.2463 35.2331 87.2066 35.5436 87.0899 35.8954C87.0121 36.2067 86.8175 36.479 86.5841 36.7133C86.3498 36.907 86.0394 37.0238 85.6487 37.0238ZM85.5335 37.0238H83.8589V33.0138H85.5343V33.7141H84.676V36.3226H85.5335V37.0238ZM89.4657 33.0138H89.9715L91.373 37.0238H90.4781L90.2042 36.2059H89.4657V35.5047H89.9715L89.4657 33.9087V33.0138ZM87.5957 37.0238L88.9972 33.0138H89.4657V33.9087L88.9599 35.5047H89.4657V36.2059H88.7256L88.4533 37.0238H87.5957ZM93.6695 37.0238H93.5916V36.3226C93.864 36.3226 94.0975 36.167 94.2531 35.9335C94.3698 35.6604 94.4477 35.311 94.4477 34.9211C94.4477 34.6876 94.4095 34.4931 94.3698 34.2978C94.3301 34.1421 94.215 33.9873 94.0975 33.8698C93.98 33.7523 93.8235 33.7141 93.5916 33.7141V33.0138H93.7084C94.0578 33.0138 94.3698 33.0924 94.6033 33.2869C94.836 33.4418 95.0305 33.676 95.1472 33.9491C95.2251 34.2215 95.3036 34.5328 95.3036 34.8433C95.3036 35.2331 95.264 35.5436 95.1472 35.8954C95.0305 36.2067 94.8749 36.479 94.6033 36.7133C94.3698 36.907 94.0586 37.0238 93.6695 37.0238ZM93.5916 37.0238H91.917V33.0138H93.5916V33.7141H92.7341V36.3226H93.5916V37.0238ZM95.9278 37.0238V33.0138H98.8857V33.7141H96.7456V34.5709H98.6911V35.2713H96.7456V36.2837H98.965V37.0238H95.9278ZM25.5798 47.9238L24.8786 52.9851L21.1799 52.4404L21.2966 51.5447L23.9829 51.9338L24.1386 50.8443L21.6476 50.4941L21.7643 49.6366L24.2553 49.9875L24.4498 48.6639L21.6476 48.274L21.7643 47.3791L25.5798 47.9238ZM19.7784 46.8725L17.5987 51.5058L16.1972 50.8443L17.0539 46.7954L14.5233 50.0654L13.1218 49.4031L15.2626 44.7706L16.1972 45.1986L14.3669 49.0919H14.4058L17.0539 45.6274L17.9878 46.0562L17.0539 50.3385V50.2988L18.8446 46.4452L19.7784 46.8725ZM13.5109 43.4858L10.1234 47.3013L9.88997 47.067V45.8997H9.92887L10.9016 44.8095L10.1616 44.1473C10.0837 44.0305 9.967 43.9924 9.88919 43.9138V42.9014C10.1226 42.9792 10.3172 43.0959 10.5903 43.3302L11.4852 44.1473L12.7311 42.7847L13.5109 43.4858ZM9.88997 47.067L8.37173 45.7044C8.19589 45.5667 8.04998 45.3946 7.94294 45.1986C7.86513 45.004 7.82699 44.8095 7.82699 44.615C7.82699 44.3815 7.86513 44.2259 7.94294 44.0305C8.02076 43.836 8.13749 43.6414 8.29313 43.4858C8.6044 43.1356 8.95536 42.9022 9.34446 42.8633C9.50087 42.8243 9.69542 42.8243 9.88997 42.9022V43.9146C9.81215 43.9146 9.77324 43.8757 9.73433 43.8757C9.6166 43.8442 9.49135 43.8581 9.38337 43.9146C9.30555 43.9932 9.18882 44.0702 9.111 44.1877C8.91645 44.3426 8.83786 44.5379 8.83786 44.6928C8.83786 44.8881 8.99427 45.0826 9.26664 45.3161L9.88919 45.9005V47.067H9.88997ZM9.30555 39.2813L5.33447 41.6563V40.4493L6.34611 39.8649L5.64574 38.6968C5.56714 38.5412 5.45119 38.4245 5.33447 38.3467V37.5296C5.37337 37.5296 5.41228 37.5677 5.4901 37.6074C5.41151 37.3343 5.45119 37.1397 5.56792 36.9452C5.68465 36.7895 5.87919 36.6339 6.11343 36.4775L6.30798 36.3607C6.38579 36.3218 6.46439 36.2829 6.50252 36.2448C6.69707 36.1281 6.8138 36.0502 6.93052 35.9335C7.00912 35.8557 7.00912 35.7779 7.00912 35.6604L7.12507 35.6215L7.70949 36.595C7.63089 36.7117 7.55385 36.7895 7.43635 36.8681C7.31962 36.9459 7.20289 37.0627 7.08616 37.1405C6.93052 37.2191 6.8138 37.2961 6.69707 37.3739C6.54143 37.4907 6.46439 37.5685 6.38579 37.6471C6.30798 37.7257 6.26907 37.8027 6.30798 37.9202C6.30798 38.0759 6.38579 38.2315 6.50252 38.426L7.08616 39.3988L8.79895 38.3864L9.30555 39.2813ZM5.33447 41.6563L4.94615 41.8897L3.62246 39.6704C3.44517 39.4198 3.34976 39.1205 3.34931 38.8136C3.34931 38.5404 3.38822 38.3078 3.50495 38.0743C3.62168 37.8798 3.81622 37.7241 4.01077 37.5677C4.16641 37.4899 4.32204 37.4128 4.51659 37.3732C4.67223 37.3342 4.86678 37.3342 5.02241 37.3732C5.13914 37.4128 5.21696 37.4518 5.33369 37.5296V38.3467C5.29478 38.3467 5.25587 38.3078 5.17805 38.3078C5.02241 38.2688 4.86677 38.3078 4.67223 38.4245C4.51659 38.5404 4.39986 38.6579 4.36095 38.8136C4.28314 38.9692 4.32204 39.1638 4.47768 39.3972L5.17883 40.5653L5.33447 40.4493V41.6563ZM6.34689 33.6752L1.44198 34.9997L0.468468 31.3788L1.32525 31.1064L2.02562 33.753L3.07773 33.4807L2.4544 31.0675L3.3104 30.8333L3.89482 33.2472L5.17961 32.8963L4.44033 30.171L5.33524 29.9384L6.34689 33.6752ZM3.58277 28.0303L3.62168 27.0186C3.81622 27.0186 3.97186 26.9789 4.08859 26.863C4.20532 26.7844 4.32204 26.6677 4.36095 26.5128C4.43955 26.3572 4.47768 26.2015 4.47768 26.007C4.47768 25.3058 4.28314 24.9167 3.89404 24.8778C3.73841 24.8778 3.62168 24.9167 3.54308 24.9946C3.46526 25.0724 3.38744 25.1502 3.34853 25.228C3.34853 25.3447 3.30962 25.5393 3.23181 25.7735C3.15399 26.0078 3.11508 26.1626 3.07617 26.2801C2.99757 26.6295 2.92053 26.9027 2.80303 27.1369C2.6863 27.3704 2.53066 27.5649 2.33534 27.6816C2.10188 27.8365 1.82952 27.8762 1.47933 27.8762C1.16806 27.8762 0.895692 27.7594 0.701146 27.603C0.46769 27.4474 0.272365 27.2139 0.155637 26.9416C0.0389091 26.6677 0 26.3175 0 25.8895C0.0389093 25.5393 0.0778186 25.2272 0.194546 24.9549C0.311274 24.6825 0.428002 24.488 0.622549 24.3323C0.778186 24.2156 0.933823 24.0989 1.12837 24.021C1.32292 23.9821 1.51746 23.9432 1.71201 23.9432L1.6731 24.9556C1.16728 24.9946 0.933045 25.3447 0.894914 26.007C0.894914 26.2404 0.933823 26.435 1.01164 26.6295C1.08946 26.7852 1.2451 26.8638 1.43964 26.9027C1.71201 26.9027 1.90733 26.7859 1.98437 26.5136C2.06297 26.2404 2.14001 26.0078 2.17892 25.7735C2.25674 25.579 2.29565 25.3844 2.33456 25.3058C2.45129 24.9167 2.5291 24.6444 2.64583 24.449C2.76256 24.2164 2.91898 24.06 3.07461 23.9821C3.26916 23.8654 3.46371 23.8265 3.73607 23.8654C4.12516 23.8654 4.39831 23.9432 4.63176 24.0989C4.82631 24.2545 5.02086 24.449 5.09945 24.6825C5.2154 24.916 5.294 25.1502 5.33291 25.3447C5.33291 25.5393 5.37182 25.7338 5.37182 25.8506C5.29633 27.2902 4.71192 28.0303 3.58277 28.0303ZM5.41306 22.2297L3.54464 20.7114V19.4266L4.16796 19.9325L4.63565 18.6866L3.54542 18.6477V17.636L7.04959 17.6749L6.66049 18.7644L5.57026 18.7255L4.9088 20.4772L5.76558 21.1783L5.41306 22.2297ZM3.54386 20.7114L1.24743 18.8033L1.67543 17.636H3.54386V18.6477L2.53222 18.6088L3.54386 19.4266V20.7114ZM7.04803 12.3023C6.77567 12.03 6.54221 11.7187 6.38579 11.4074C6.23016 11.1343 6.11343 10.8238 6.11343 10.5125C6.07452 10.2394 6.11343 9.92809 6.19125 9.65573C6.30798 9.34368 6.46439 9.07209 6.69707 8.79895C6.97021 8.48767 7.28071 8.29313 7.63167 8.13671C7.94294 8.01999 8.29391 7.98107 8.60518 8.01998C8.95536 8.05889 9.26742 8.17562 9.53978 8.37016L8.79973 9.18804C8.29391 8.9149 7.82699 8.95458 7.43712 9.38259C7.16476 9.73277 7.04803 10.083 7.12585 10.4339C7.24258 10.823 7.47681 11.2121 7.90481 11.6012C7.90481 11.6012 7.94372 11.6012 7.94372 11.6401C8.17718 11.8354 8.41141 11.9522 8.64409 12.0681C8.87755 12.1467 9.15069 12.1856 9.38415 12.1467C9.6176 12.1078 9.81215 12.03 10.0067 11.7965C10.4355 11.3288 10.4355 10.823 10.0456 10.3172L10.7857 9.50009C11.0191 9.81137 11.1748 10.1226 11.2526 10.4347C11.3312 10.746 11.3312 11.0962 11.2526 11.4463C11.1748 11.7576 10.9802 12.1086 10.7071 12.4198C10.4347 12.7311 10.0845 12.9646 9.69542 13.1202C9.30633 13.2369 8.91723 13.2759 8.48845 13.1591C8.02154 13.0424 7.59354 12.8082 7.16554 12.4191C7.12585 12.3802 7.12585 12.3412 7.04803 12.3023ZM13.6276 9.38259L10.9024 5.06054L14.0945 3.03648L14.6003 3.81545L12.265 5.25587L12.8486 6.19047L14.9902 4.866L15.4571 5.60605L13.3552 6.92974L14.0556 8.05812L16.4306 6.54065L16.8975 7.31884L13.6276 9.38259ZM19.7395 0.934601L19.8562 0.895693C20.2072 0.779743 20.5184 0.779744 20.7908 0.856784C21.0632 0.895693 21.2577 1.01242 21.4523 1.20697C21.6079 1.3626 21.7246 1.59606 21.8024 1.83029C21.8413 1.98593 21.8803 2.18048 21.8413 2.37502C21.8413 2.53066 21.8024 2.6863 21.7246 2.84271C21.6468 2.99835 21.5301 3.11508 21.3744 3.23181C21.6476 3.23181 21.8421 3.30963 21.9978 3.46526C22.1145 3.6209 22.2312 3.85436 22.309 4.12672L22.3869 4.36096C22.3869 4.43878 22.4258 4.51659 22.4258 4.59441C22.5036 4.78896 22.5425 4.94459 22.6203 5.06132C22.6989 5.13914 22.7759 5.21696 22.8545 5.17883L22.8935 5.33369L21.7643 5.64496C21.6865 5.56714 21.6476 5.45042 21.5698 5.33369C21.5309 5.17883 21.4919 5.06132 21.4133 4.90568C21.3744 4.75005 21.3355 4.59441 21.2966 4.4769C21.2188 4.32204 21.1799 4.16563 21.141 4.08781C21.0645 4.01369 20.9706 3.96015 20.8678 3.93217C20.7511 3.89327 20.5566 3.93217 20.3231 4.00999L19.7395 4.16563V3.26994L20.285 3.1143C20.5573 3.03648 20.713 2.91976 20.7908 2.76334C20.8686 2.6077 20.8686 2.45206 20.7908 2.21861C20.7519 2.06297 20.6741 1.90733 20.5177 1.82951C20.362 1.75169 20.1675 1.71279 19.934 1.79061L19.7395 1.86843V0.934601ZM19.7395 6.03405L19.7784 6.2286H19.7395V6.03405ZM18.8049 6.50097L17.3644 1.59606L19.7395 0.934601V1.86843L18.6103 2.1797L18.9994 3.50339L19.7395 3.26994V4.16563L19.2329 4.32205L19.7387 6.03483V6.22938L18.8049 6.50097ZM26.0856 5.10023L26.1634 0.894915H24.6062L24.6452 0L28.7719 0.0389087V0.934601H27.2147L27.175 5.13914L26.0856 5.10023ZM30.4068 5.45041L31.536 0.46691L32.5865 0.700369L31.4574 5.68465L30.4068 5.45041ZM33.56 6.2286L35.623 1.55715L38.9716 3.03648L38.5825 3.85436L36.2463 2.84194L35.7787 3.89326L37.8424 4.78818L37.4922 5.60605L35.4285 4.71114L34.5717 6.65738L33.56 6.2286ZM38.426 8.72035L41.4236 4.55472L42.2804 5.17805L39.2828 9.3429L38.426 8.72035ZM42.7862 8.72035C43.0975 8.44799 43.4088 8.25344 43.7208 8.13671C44.0321 7.98108 44.3434 7.90325 44.6554 7.90325C44.9667 7.90325 45.2391 7.98107 45.5114 8.0978C45.8227 8.21453 46.0562 8.40908 46.2896 8.68144C46.6009 8.99271 46.7954 9.30399 46.8733 9.65495C46.99 9.96622 46.99 10.3164 46.9122 10.6277C46.8733 10.9786 46.7176 11.251 46.4842 11.5234L45.7449 10.7452C46.0562 10.2394 46.0562 9.77246 45.6671 9.34368C45.3558 9.03241 45.0048 8.91568 44.6157 8.95459C44.2266 9.03241 43.8375 9.22773 43.4088 9.61682V9.65573C43.1753 9.85028 43.0197 10.0837 42.903 10.3172C42.7862 10.5506 42.7084 10.7841 42.7473 11.0572C42.7473 11.2907 42.864 11.4852 43.0197 11.6798C43.4874 12.1475 43.9543 12.2253 44.5379 11.8743L45.2772 12.6525C44.9659 12.8479 44.6157 13.0035 44.3045 13.0416C43.9543 13.1194 43.6422 13.0805 43.292 12.9638C42.9808 12.8478 42.6695 12.6525 42.3971 12.3802C42.0859 12.03 41.8516 11.679 41.7738 11.2899C41.6571 10.9008 41.696 10.4728 41.8127 10.044C41.9683 9.65495 42.2804 9.22695 42.6695 8.83708L42.7862 8.72035ZM48.432 14.9108L50.3004 14.7552L50.807 15.8843L48.432 18.1426V16.7411L49.4833 15.8065L48.432 15.9232V14.9108ZM44.8889 15.2221L48.432 14.9108V15.9232L47.3806 16.0392L47.8865 17.2072L48.432 16.7411V18.1426L46.8748 19.6212L46.4079 18.5698L47.2258 17.8695L46.4468 16.1567L45.3566 16.2345L44.8889 15.2221ZM50.1058 21.1005L52.4412 20.8281L52.7524 23.0857C52.7914 23.5534 52.7524 23.9424 52.5579 24.2926C52.4023 24.6039 52.1299 24.8763 51.7789 25.0708C51.4677 25.2265 51.0786 25.3432 50.6895 25.421C50.4949 25.421 50.3004 25.4599 50.1058 25.4599V24.3697C50.2226 24.3697 50.3393 24.3697 50.4171 24.3308C50.7284 24.2919 51.0008 24.214 51.1953 24.1362C51.4288 24.0576 51.5844 23.9028 51.7011 23.7471C51.8568 23.5526 51.8957 23.3191 51.8568 23.0078L51.7011 21.9565L50.1058 22.1518V21.1005ZM47.6919 23.709L47.3806 21.4515L50.1058 21.1005V22.1518L48.3931 22.3853L48.5098 23.4366C48.5884 23.8257 48.7829 24.0981 49.1331 24.2148C49.4444 24.3315 49.7557 24.4086 50.1058 24.3697V25.4599C49.8335 25.4599 49.6 25.4218 49.3277 25.3829C48.8997 25.3051 48.5495 25.1105 48.2374 24.8381C47.9254 24.5658 47.7308 24.1759 47.6919 23.709ZM50.4949 28.7703L52.7532 30.0551L52.5587 31.301L50.4949 31.6512V30.599L51.5463 30.4831V30.4442L50.4949 29.8987V28.7703ZM48.0429 27.4077L50.4949 28.7703V29.8987L49.6381 29.4707L49.4055 30.7555L50.4949 30.599V31.6512L47.225 32.1959L47.4195 31.0278L48.5098 30.9111L48.8211 29.0435L47.8475 28.4979L48.0429 27.4077Z" fill="black"/>
</svg>
