<svg width="69" height="27" viewBox="0 0 69 27" fill="none" xmlns="http://www.w3.org/2000/svg">
<path d="M9.93531 26.2928C4.1041 25.5825 0.668143 21.5353 0.073458 14.6634C-0.570783 7.14723 3.04688 1.9933 9.96835 0.589182C12.5949 0.0605737 16.0969 0.539625 18.7234 1.79507C20.4414 2.62102 22.0933 4.27292 22.8862 5.97438C23.5139 7.31242 23.7763 9.08888 23.7763 9.08888L16.7411 9.09647L16.2125 8.08881C14.8745 5.57792 11.4551 5.0328 9.24151 6.98204C7.50701 8.50179 6.76366 11.9047 7.39138 15.4233C7.98607 18.6775 9.60493 20.3459 12.1984 20.3459C14.5772 20.3459 17.1026 18.582 17.1026 17.2275L13.5873 17.2362L13.5915 12.0864H24.5051L24.5077 24.3944L32.2195 2.09241H40.3964L48.8706 24.3957V1.43165H68.0327V6.88293L56.5812 6.88127L56.5804 11.9199L65.6374 11.9212V17.3725H56.552V26.1276L41.5382 26.1203L40.6442 22.989L31.8835 22.9766L30.8814 26.1276H19.219L19.2162 22.9579C19.2162 22.9579 18.7069 23.3854 18.2113 23.8645C16.2125 25.7476 13.0739 26.6727 9.93531 26.2928ZM38.8766 17.9176C38.8931 17.6864 36.3492 9.0304 36.2336 8.89825C36.1345 8.79913 33.4253 17.9176 33.4253 17.9176H38.8766Z" fill="white"/>
</svg>
