<svg width="150" height="63" viewBox="0 0 150 63" fill="none" xmlns="http://www.w3.org/2000/svg">
<path d="M75.2347 20.7844C75.8516 20.7757 76.3761 20.6609 76.3675 20.0295V19.9348C76.3761 19.3062 75.8516 19.1914 75.2347 19.1829C74.6151 19.1914 74.0906 19.3062 74.0992 19.9348V20.0295C74.0906 20.6609 74.6151 20.7757 75.2347 20.7844Z" fill="#394149"/>
<path d="M52.6844 19.5156C52.6844 19.3319 52.5375 19.1855 52.353 19.1855H50.5112V19.8428H52.353C52.4452 19.8428 52.523 19.8112 52.5864 19.7481C52.6527 19.682 52.6844 19.6046 52.6844 19.5156Z" fill="#394149"/>
<path d="M63.0517 19.177L63.5821 20.3165H62.5186L63.0517 19.177Z" fill="#394149"/>
<path d="M86.7143 19.177L87.2448 20.3165H86.1812L86.7143 19.177Z" fill="#394149"/>
<path d="M49.0375 43.1707L48.2536 41.4863L47.4653 43.1707H49.0375Z" fill="#394149"/>
<path d="M67.5371 42.687C67.5371 43.2598 67.2091 43.7307 66.6297 43.7307H64.1841V41.6433H66.6297C67.2091 41.6433 67.5371 42.11 67.5371 42.687Z" fill="#394149"/>
<path d="M73.7321 41.4863L74.5161 43.1707H72.9438L73.7321 41.4863Z" fill="#394149"/>
<path d="M83.2592 41.4993C83.5318 41.4993 83.7491 41.7157 83.7491 41.9872C83.7491 42.1187 83.7022 42.2333 83.6043 42.3309C83.5105 42.4243 83.3955 42.4709 83.2592 42.4709H80.5366V41.4993H83.2592Z" fill="#394149"/>
<path d="M92.2662 42.687C92.2662 43.2598 91.9376 43.7307 91.358 43.7307H88.9121V41.6433H91.358C91.9376 41.6433 92.2662 42.11 92.2662 42.687Z" fill="#394149"/>
<path d="M38.6859 32.0561L35.8445 25.5232H30.9695V36.4113H34.5212V30.5304L37.0841 36.4113H40.2599L42.8506 30.5304V36.4113H46.3885V25.5232H41.6666L38.6859 32.0561Z" fill="#394149"/>
<path d="M60.8842 36.4113V33.7066H53.0424V32.2918H60.5639V29.6427H53.0424V28.2417H60.7868V25.5232H49.3652V36.4113H60.8842Z" fill="#394149"/>
<path d="M63.8806 34.4832C64.967 35.8841 66.903 36.5776 69.2291 36.5776C70.976 36.5776 72.2564 36.2243 73.1484 35.664C73.3019 35.5676 73.4439 35.4649 73.5749 35.357L73.6724 36.4112H76.667V29.9615H69.3963V32.3056H73.2824C73.2653 32.4166 73.2059 32.5907 73.1205 32.7567C73.0672 32.8603 73.0037 32.9607 72.9341 33.0407C72.5303 33.5123 71.4577 33.9284 70.0649 33.9284C68.6163 33.9284 67.683 33.5539 67.1816 32.9714C66.8473 32.5413 66.6523 31.9311 66.6523 31.0156C66.6523 30.0586 66.8473 29.4067 67.2234 28.9768C67.7666 28.3665 68.6859 28.1029 70.037 28.1029C71.2488 28.1029 72.0845 28.3803 72.4745 28.7271C72.7253 28.9351 72.9203 29.2264 72.962 29.4206H76.5695C76.5644 29.2926 76.546 29.1361 76.515 28.9695C76.4619 28.6849 76.3722 28.3704 76.2491 28.1168C75.3856 26.3691 73.3799 25.3289 69.9674 25.3289C67.0006 25.3289 65.0087 26.2304 63.9084 27.5897C63.1841 28.519 62.8499 29.6841 62.8499 30.9879C62.8499 32.4304 63.2399 33.6649 63.8806 34.4832Z" fill="#394149"/>
<path d="M67.1052 31.0156C67.1052 30.1106 67.291 29.5872 67.5637 29.2745C67.9738 28.8149 68.7221 28.554 70.037 28.554C71.2061 28.554 71.9057 28.8261 72.1728 29.0635L72.1786 29.0686L72.1845 29.0736C72.2763 29.1498 72.3603 29.2437 72.4238 29.3353C72.4866 29.4257 72.5117 29.4885 72.5179 29.5104H68.9433V32.7567H72.582C72.4517 32.9033 72.172 33.0863 71.7276 33.2333C71.2852 33.3797 70.7176 33.4773 70.0648 33.4773C68.6885 33.4773 67.9144 33.1226 67.5329 32.6862C67.2835 32.3607 67.1052 31.8614 67.1052 31.0156Z" fill="#394149"/>
<path d="M86.1298 29.5349L85.092 31.5078H87.1102L86.1298 29.5349Z" fill="#394149"/>
<path fill-rule="evenodd" clip-rule="evenodd" d="M89.0233 34.4001L89.9845 36.4113H94.0101L88.4937 25.5232H83.9951L78.1589 36.4113H82.1008L83.1175 34.4001H89.0233ZM84.3432 31.9589L85.7222 29.3375L86.1401 28.3389L86.5301 29.3236L87.8396 31.9589H84.3432Z" fill="#394149"/>
<path fill-rule="evenodd" clip-rule="evenodd" d="M118.088 55.2642H118.082C118.004 55.2642 117.927 55.2638 117.849 55.263V55.2642H32.653C25.135 55.2642 18.429 51.8023 14.0548 46.3923H26.6073V44.8079H12.8787C10.8306 41.7961 9.45827 38.2916 8.97827 34.5101H26.6073V32.9258H8.83082C8.80276 32.454 8.78857 31.9786 8.78857 31.4999C8.78857 28.3635 9.39868 25.3692 10.5073 22.6279H26.6073V21.0436H11.2168C12.9034 17.6215 15.3918 14.6623 18.4385 12.4093H103.872C104.938 11.6216 106.071 10.9201 107.262 10.3153C106.941 10.4783 106.624 10.6482 106.312 10.8249H20.878C24.3524 8.85852 28.3709 7.7356 32.6529 7.7356H117.849V7.73671C117.929 7.73593 118.008 7.7356 118.088 7.7356C131.267 7.7356 141.952 18.3752 141.952 31.4999C141.952 44.6245 131.267 55.2642 118.088 55.2642ZM126.961 42.6456C128.03 39.4401 128.667 35.6328 128.667 31.4999C128.667 27.647 128.112 24.0771 127.172 21.0138C127.057 20.6398 126.937 20.2734 126.811 19.9149C126.601 19.3178 126.376 18.7429 126.137 18.1919C125.814 17.4479 125.467 16.7476 125.099 16.0957C123.358 13.0195 121.372 11.3629 119.519 10.8051V18.1919H124.393C124.805 19.068 125.182 20.0218 125.514 21.0436H119.519V30.074H127.05C127.067 30.5439 127.077 31.0194 127.077 31.4999C127.077 31.9804 127.067 32.4559 127.05 32.9257H119.519V41.9562H125.513C125.182 42.978 124.805 43.9318 124.393 44.8078H119.519V52.1948C121.372 51.6371 123.358 49.9803 125.099 46.9041C125.467 46.2521 125.815 45.5518 126.137 44.8078C126.434 44.123 126.709 43.401 126.961 42.6456ZM130.163 21.0436C130.928 23.7963 131.4 26.8486 131.507 30.074H139.04C138.818 26.8 137.84 23.7326 136.279 21.0436H130.163ZM134.288 18.1919H129.228C128.309 15.7955 127.15 13.711 125.811 12.0472C129.138 13.3579 132.047 15.4899 134.288 18.1919ZM116.656 10.8048V18.1919H110.038C110.36 17.4479 110.707 16.7476 111.077 16.0957C112.816 13.019 114.803 11.3621 116.656 10.8048ZM110.363 12.0471C109.024 13.7109 107.866 15.7954 106.948 18.1919H101.887C104.128 15.4898 107.038 13.3577 110.363 12.0471ZM106.011 21.0436H96.8479V22.6279H99.0652C97.9876 24.9143 97.3137 27.4265 97.1347 30.074H104.667C104.776 26.8486 105.247 23.7963 106.011 21.0436ZM116.656 21.0436H108.994C108.176 23.7183 107.652 26.7778 107.534 30.074H116.656V21.0436ZM131.507 32.9257C131.4 36.1511 130.928 39.2034 130.163 41.9562H136.279C137.84 39.2672 138.818 36.1997 139.04 32.9257H131.507ZM108.994 41.9562C108.176 39.2815 107.652 36.2218 107.534 32.9257H116.656V41.9562H108.994ZM106.011 41.9562C105.247 39.2034 104.776 36.1511 104.667 32.9257H97.1347C97.3561 36.1997 98.3343 39.2672 99.8962 41.9562H106.011ZM129.228 44.8078C128.309 47.2043 127.15 49.2886 125.812 50.9525C129.138 49.6418 132.047 47.5098 134.288 44.8078H129.228ZM110.038 44.8078H116.656V52.1951C114.803 51.6377 112.816 49.9808 111.077 46.9041C110.707 46.2521 110.36 45.5518 110.038 44.8078ZM106.948 44.8078L96.8479 44.8079V46.3922H103.344C105.336 48.3478 107.717 49.9101 110.363 50.9527C109.024 49.2889 107.866 47.2044 106.948 44.8078ZM75.2345 17.96C73.7761 17.9628 72.5829 18.3819 72.5887 19.8428V20.124C72.5829 21.5821 73.7761 22.004 75.2345 22.0068C76.69 22.004 77.8833 21.5821 77.8775 20.124V19.8428C77.8775 18.3847 76.6929 17.96 75.2345 17.96ZM29.9263 18.0547V21.9121H31.4366V18.0547H29.9263ZM36.0164 20.0982L34.3159 18.0547H32.2379V21.9121H33.7482V19.5558L35.8291 21.9121H37.5296V18.0547H36.0164V20.0982ZM41.36 19.2831V21.9179H39.8498V19.2831H38.0542V18.0605H43.1556V19.2831H41.36ZM43.663 21.9179H48.1966V20.9277H45.1732V20.434H48.1966V19.5414H45.1732V19.0477H48.1966V18.0605H43.663V21.9179ZM49.0007 21.9149V18.0575H52.7332C53.5315 18.049 54.2089 18.7177 54.1974 19.5156C54.1974 19.8055 54.1195 20.0695 53.9639 20.3049C53.8111 20.5373 53.6065 20.7153 53.3529 20.833L54.1974 21.9149H52.5891L51.8599 20.9736H50.511V21.9149H49.0007ZM58.4457 20.0982L56.7452 18.0547H54.6672V21.9121H56.1775V19.5558L58.2584 21.9121H59.9589V18.0547H58.4457V20.0982ZM61.7747 21.9179H60.0742L62.1523 18.0605H63.9479L66.0259 21.9179H64.3254L64.0199 21.2577H62.0802L61.7747 21.9179ZM68.3316 21.9179V19.2831H70.1273V18.0605H65.0258V19.2831H66.8214V21.9179H68.3316ZM70.6345 21.9121V18.0547H72.1448V21.9121H70.6345ZM80.4081 18.0547L82.1086 20.0982V18.0547H83.6217V21.9121H81.9212L79.8403 19.5558V21.9121H78.33V18.0547H80.4081ZM83.7371 21.9179H85.4375L85.7431 21.2577H87.6826L87.9887 21.9179H89.6887L87.6111 18.0605H85.8151L83.7371 21.9179ZM89.807 21.9121V18.0547H91.3173V20.6894H94.3407V21.9121H89.807ZM33.8396 41.1511C33.1451 41.1511 32.293 41.253 32.293 41.7069C32.293 41.9573 32.9875 41.9912 33.8864 42.0336L33.8963 42.0341C35.4935 42.1147 37.7295 42.2275 37.7253 43.6543C37.7253 45.2836 35.8506 45.6697 33.8396 45.6697C31.8329 45.6654 30.167 45.4236 29.9539 43.6543H32.293C32.5486 44.0956 33.1408 44.2101 33.8396 44.2101C34.5341 44.2101 35.3862 44.0956 35.3862 43.6543C35.3862 43.404 34.6917 43.3658 33.7928 43.3235L33.7828 43.323C32.1856 43.2424 29.9496 43.1296 29.9539 41.7069C29.9539 40.0777 31.8286 39.6873 33.8396 39.6873C35.8463 39.7 37.5123 39.9249 37.7253 41.7069H35.3862C35.1305 41.2572 34.5384 41.1511 33.8396 41.1511ZM42.6804 41.6433V45.5381H40.4479V41.6433H37.7935V39.8359H45.3348V41.6433H42.6804ZM43.8521 45.5381H46.3658L46.8175 44.5623H49.6849L50.1365 45.5381H52.6503L49.5784 39.8359H46.924L43.8521 45.5381ZM55.8969 39.8274L58.4107 42.8482V39.8274H60.6476V45.5297H58.1338L55.0576 42.0464V45.5297H52.825V39.8274H55.8969ZM61.9512 39.8359V45.5381H67.0471C68.6192 45.5594 69.7866 44.2356 69.7738 42.687C69.7866 41.1299 68.6192 39.8147 67.0471 39.8359H61.9512ZM71.8445 45.5381H69.3307L72.4027 39.8359H75.0571L78.1289 45.5381H75.6151L75.1635 44.5623H72.2961L71.8445 45.5381ZM78.3036 39.8316V45.534H80.5362V44.1423H82.5302L83.6081 45.534H85.9855L84.7371 43.9344C85.1121 43.7604 85.4146 43.4974 85.6404 43.1537C85.8705 42.8058 85.9855 42.4155 85.9855 41.9869C86.0026 40.8074 85.0013 39.8189 83.8211 39.8316H78.3036ZM86.68 45.5381V39.8359H91.7754C93.3479 39.8147 94.5152 41.1299 94.503 42.687C94.5152 44.2356 93.3479 45.5594 91.7754 45.5381H86.68ZM46.8411 36.8622H42.3974V32.6812L40.5555 36.8622H36.7866L34.9739 32.7027V36.8622H30.5162V25.072H36.1416L38.6955 30.9438L41.3746 25.072H46.8411V36.8622ZM61.3373 36.8622H48.9124V25.072H61.2398V28.6926H53.4954V29.1914H61.017V32.7427H53.4954V33.2554H61.3373V36.8622ZM77.1199 36.8622H73.2591L73.1943 36.1622C72.2264 36.7096 70.9162 37.0286 69.229 37.0286C66.8288 37.0286 64.7284 36.3138 63.5226 34.7598C62.8052 33.8432 62.3967 32.5032 62.3967 30.9879C62.3967 29.6072 62.7514 28.3382 63.5504 27.3131L63.553 27.3098L63.5556 27.3066C64.7693 25.8072 66.914 24.8778 69.9673 24.8778C73.457 24.8778 75.6811 25.9457 76.6554 27.9176L76.6562 27.9192L76.657 27.9207C76.8835 28.3879 77.006 29.0052 77.0219 29.4025L77.0263 29.5104H77.1199V36.8622ZM83.3966 34.851L82.3799 36.8622H77.4038L83.7234 25.072H88.7734L94.7458 36.8622H89.6979L88.7377 34.851H83.3966ZM29.8688 51.3827H94.6999V49.7983H29.8688V51.3827Z" fill="#394149"/>
<path fill-rule="evenodd" clip-rule="evenodd" d="M32.6531 2.03223H118.088C134.431 2.03223 147.68 15.2253 147.68 31.5C147.68 47.7746 134.431 60.9677 118.088 60.9677H32.6531C16.31 60.9677 3.06128 47.7746 3.06128 31.5C3.06128 15.2253 16.31 2.03223 32.6531 2.03223ZM32.6531 4.88399C17.8916 4.88399 5.92505 16.8003 5.92505 31.5C5.92505 46.1996 17.8916 58.116 32.6531 58.116H118.088C132.849 58.116 144.815 46.1996 144.815 31.5C144.815 16.8003 132.849 4.88399 118.088 4.88399H32.6531Z" fill="#394149"/>
</svg>
