<svg width="80" height="80" viewBox="0 0 80 80" fill="none" xmlns="http://www.w3.org/2000/svg">
<path d="M66.6666 73.3333V63.3333C66.6666 57.048 66.6666 53.9053 64.7139 51.9527C62.7613 50 59.6186 50 53.3333 50H46.6666L39.9999 56.6667L33.3333 50H26.6666C20.3812 50 17.2385 50 15.2859 51.9527C13.3333 53.9053 13.3333 57.048 13.3333 63.3333V73.3333" stroke="#0B5D1E" stroke-width="5" stroke-linecap="round" stroke-linejoin="round"/>
<path d="M53.3333 50V73.3333" stroke="#0B5D1E" stroke-width="5" stroke-linecap="round" stroke-linejoin="round"/>
<path d="M26.6667 50V73.3333" stroke="#0B5D1E" stroke-width="5" stroke-linecap="round" stroke-linejoin="round"/>
<path d="M51.6666 30.0001V23.3334C51.6666 16.8901 46.4433 11.6667 39.9999 11.6667C33.5566 11.6667 28.3333 16.8901 28.3333 23.3334V30.0001C28.3333 36.4434 33.5566 41.6667 39.9999 41.6667C46.4433 41.6667 51.6666 36.4434 51.6666 30.0001Z" stroke="#0B5D1E" stroke-width="5" stroke-linecap="round" stroke-linejoin="round"/>
<path d="M25 25H55" stroke="#0B5D1E" stroke-width="5" stroke-linecap="round" stroke-linejoin="round"/>
<path d="M40 6.66675V11.6667" stroke="#0B5D1E" stroke-width="5" stroke-linecap="round" stroke-linejoin="round"/>
</svg>
