<svg width="114" height="33" viewBox="0 0 114 33" fill="none" xmlns="http://www.w3.org/2000/svg">
<path d="M93.8067 31.0141C75.7592 34.9726 51.9685 30.9369 51.9685 30.9369C51.9685 30.9369 107.441 33.9491 106.053 15.6042C104.602 -3.57412 26.2356 3.64101 26.2356 3.64101C71.8657 -4.32358 95.7102 3.21407 97.4485 3.532C106.501 5.93934 112.378 10.3725 112.916 15.2348C114.363 24.1623 102.011 29.2132 93.8067 31.0141Z" fill="white"/>
<path d="M62.5823 27.0218C60.7076 27.0218 59.4335 26.5889 58.7592 25.7254C58.0849 24.8619 57.9662 23.5546 58.5258 21.7901L61.7599 11.8263C62.428 9.72518 63.2885 8.32078 64.3391 7.61308C65.389 6.90541 67.0309 6.55078 69.2663 6.55078H71.56C73.7924 6.55078 74.7763 6.78631 75.6189 7.75245C76.3437 8.58225 76.3732 9.72595 75.7028 11.8271L72.4834 21.7831C71.9224 23.5476 71.3141 25.006 70.0896 25.8718C68.8652 26.7376 67.0301 27.0218 65.1562 27.0218H62.5823ZM73.0039 11.521C73.2382 10.7154 73.4369 9.97178 73.0916 9.44102C72.8379 9.04804 72.4677 8.92433 71.7639 8.86874C71.1207 8.77702 69.9902 8.82021 69.9902 8.82021C69.014 8.84979 68.422 9.02912 67.9339 9.42458C67.4459 9.8207 67.1929 10.2372 66.7863 11.514L63.3729 22.0783C63.0579 23.0646 63.0199 23.7558 63.2556 24.1527C63.49 24.5488 64.2209 24.7962 65.3871 24.7962C66.4874 24.7932 67.5225 24.75 68.4405 24.0486C68.9697 23.712 69.2311 23.0638 69.5726 22.0853L73.0039 11.521Z" fill="white"/>
<path d="M10.8015 26.1974C10.8015 26.1974 0.0304915 26.2086 0.0327152 26.1989L6.14701 7.36951H10.7074C10.7074 7.36951 5.18582 24.0899 5.22996 24.0899H11.4965L10.8015 26.1974Z" fill="white"/>
<path d="M29.6187 9.49519C29.613 9.49519 30.3298 7.36951 30.3298 7.36951H19.3907L13.1342 26.2028H24.0522L24.7679 24.0934C24.7679 24.0934 18.9393 24.0934 18.4577 24.0934C18.4378 24.0934 19.5986 20.621 20.8666 16.8408C23.3779 16.8408 26.3588 16.8408 26.3557 16.8408C26.3501 16.8408 27.0616 14.7158 27.0616 14.7158C27.0616 14.7158 24.1861 14.7158 21.5815 14.7151C22.2408 12.7529 22.876 10.865 23.3372 9.49519C26.3 9.49519 29.6224 9.49519 29.6187 9.49519Z" fill="white"/>
<path d="M58.0338 7.36951L53.9944 19.9703L52.2997 7.37178L47.846 7.374L41.7936 26.2017H46.248L50.3086 13.5942C50.3086 13.5942 51.9696 26.0131 51.999 26.1957L51.9975 26.2013L54.5826 26.2028L60.6269 7.36994L58.0338 7.36951Z" fill="white"/>
<path d="M91.7429 7.36951H88.3514L84.3112 12.3088L83.3084 7.36951L78.3319 7.37516L80.1651 15.9291L72.0907 26.2028H75.4285L80.8768 19.2557L82.363 26.1999L87.1326 26.2013L85.0052 15.7242L91.7429 7.36951Z" fill="white"/>
<path d="M42.3644 7.36951L38.147 19.9697L36.3808 7.37396L31.7318 7.37619L25.4167 26.2026H30.065L34.3008 13.595C34.3008 13.595 36.0364 26.0229 36.0647 26.1944L36.0632 26.2028H38.7623L45.0689 7.37049L42.3644 7.36951Z" fill="white"/>
<path d="M104.844 31.1153C104.844 32.0155 103.922 32.7536 102.796 32.7536C101.671 32.7536 100.75 32.0155 100.75 31.1153C100.75 30.215 101.671 29.4783 102.796 29.4783C103.921 29.4783 104.844 30.2157 104.844 31.1153ZM101.089 31.1153C101.089 31.8575 101.867 32.4777 102.795 32.4825C103.722 32.4773 104.503 31.8575 104.503 31.1153C104.503 30.3744 103.722 29.7494 102.795 29.7494C101.867 29.7494 101.089 30.3744 101.089 31.1153ZM102.259 30.2247H103.14C103.622 30.2247 103.802 30.428 103.802 30.6179C103.802 30.9856 103.514 31.0973 103.271 31.1932L103.633 31.9383L103.046 32.0016L102.773 31.2835H102.524L102.342 31.9761H101.807L102.259 30.2247ZM102.61 31.0214H102.802C103.079 31.0214 103.254 30.8911 103.254 30.6903C103.254 30.5826 103.147 30.487 102.972 30.487H102.746L102.61 31.0214Z" fill="white"/>
</svg>
