<svg width="128" height="40" viewBox="0 0 128 40" fill="none" xmlns="http://www.w3.org/2000/svg">
<path d="M14.176 15.6C13.5147 15.6 13.0027 15.3973 12.64 14.992C12.2773 14.5867 12.096 14.064 12.096 13.424C12.096 12.7627 12.2347 12.2507 12.512 11.888C11.8293 11.248 10.8907 10.928 9.696 10.928C7.94667 10.928 6.624 11.664 5.728 13.136C4.832 14.5867 4.384 16.7307 4.384 19.568C4.384 25.264 6.15467 28.112 9.696 28.112C10.5493 28.112 11.4133 27.9093 12.288 27.504C13.184 27.0773 13.9413 26.5227 14.56 25.84C15.2213 26.3733 15.648 27.216 15.84 28.368C13.9413 29.776 11.8933 30.48 9.696 30.48C6.90133 30.48 4.87467 29.616 3.616 27.888C2.37867 26.16 1.76 23.472 1.76 19.824C1.76 12.6347 4.40533 9.04 9.696 9.04C11.296 9.04 12.7147 9.46667 13.952 10.32C15.2107 11.152 15.84 12.24 15.84 13.584C15.84 14.928 15.2853 15.6 14.176 15.6ZM18.5963 22.416C18.5963 17.2747 20.6016 14.704 24.6123 14.704C28.6229 14.704 30.6283 17.2747 30.6283 22.416C30.6283 24.784 30.2549 26.6613 29.5083 28.048C28.6549 29.6693 27.0229 30.48 24.6123 30.48C22.2016 30.48 20.5696 29.6693 19.7163 28.048C18.9696 26.6613 18.5963 24.784 18.5963 22.416ZM21.2203 22.352C21.2203 26.2347 22.3509 28.176 24.6123 28.176C26.8736 28.176 28.0043 26.2347 28.0043 22.352C28.0043 18.448 26.8736 16.496 24.6123 16.496C22.3509 16.496 21.2203 18.448 21.2203 22.352ZM33.5025 22.416C33.5025 17.2747 35.5078 14.704 39.5185 14.704C43.5292 14.704 45.5345 17.2747 45.5345 22.416C45.5345 24.784 45.1612 26.6613 44.4145 28.048C43.5612 29.6693 41.9292 30.48 39.5185 30.48C37.1078 30.48 35.4758 29.6693 34.6225 28.048C33.8758 26.6613 33.5025 24.784 33.5025 22.416ZM36.1265 22.352C36.1265 26.2347 37.2572 28.176 39.5185 28.176C41.7798 28.176 42.9105 26.2347 42.9105 22.352C42.9105 18.448 41.7798 16.496 39.5185 16.496C37.2572 16.496 36.1265 18.448 36.1265 22.352ZM49.9448 22.576V18.192C49.9448 14.352 49.8914 11.7387 49.7848 10.352L48.5048 10.256C48.4408 9.97867 48.4088 9.65867 48.4088 9.296C48.4088 8.912 48.4194 8.63467 48.4408 8.464C50.3821 8.35733 51.7688 8.26133 52.6008 8.176L52.7288 8.336C52.4301 10.8747 52.2808 13.6053 52.2808 16.528V21.808C52.2808 24.432 52.3768 26.544 52.5688 28.144L53.7528 28.24C53.7954 28.5813 53.8168 28.88 53.8168 29.136C53.8168 29.3707 53.7848 29.6693 53.7208 30.032C52.9741 30.0107 52.1101 30 51.1288 30C50.1474 30 49.2941 30.0107 48.5688 30.032C48.5048 29.712 48.4728 29.4347 48.4728 29.2C48.4728 28.944 48.4941 28.624 48.5368 28.24L49.6568 28.144C49.8488 26.1387 49.9448 24.2827 49.9448 22.576ZM70.0073 35.44C67.2126 35.44 65.1006 33.776 63.6713 30.448C60.4286 30.2133 58.3593 28.592 57.4633 25.584C57.0153 24.048 56.7913 22.032 56.7913 19.536C56.7913 12.5387 59.4046 9.04 64.6313 9.04C69.8793 9.04 72.5033 12.5387 72.5033 19.536C72.5033 21.008 72.4286 22.288 72.2793 23.376C72.1299 24.464 71.8419 25.5413 71.4153 26.608C70.5833 28.72 68.8659 29.968 66.2633 30.352C67.0739 32.2507 68.3646 33.2 70.1353 33.2C70.8819 33.2 71.6499 32.976 72.4393 32.528C73.2286 32.1013 73.9006 31.5147 74.4553 30.768C75.0313 31.344 75.4046 32.2507 75.5753 33.488C73.9753 34.7893 72.1193 35.44 70.0073 35.44ZM61.9433 27.408C62.6686 27.8773 63.5646 28.112 64.6313 28.112C65.7193 28.112 66.6259 27.8773 67.3513 27.408C68.0979 26.9387 68.6526 26.2667 69.0153 25.392C69.6553 23.8773 69.9753 21.936 69.9753 19.568C69.9753 13.808 68.1939 10.928 64.6313 10.928C61.0899 10.928 59.3193 13.808 59.3193 19.568C59.3193 23.6853 60.1939 26.2987 61.9433 27.408ZM76.874 25.872L76.906 22.448C76.906 20.5493 76.8207 18.7253 76.65 16.976L75.466 16.88C75.402 16.5387 75.37 16.1867 75.37 15.824C75.37 15.4613 75.3807 15.216 75.402 15.088C76.49 15.0667 77.8127 14.9707 79.37 14.8L79.53 14.96C79.338 16.2187 79.242 18.4693 79.242 21.712V23.216C79.242 25.008 79.402 26.288 79.722 27.056C80.0633 27.8027 80.6287 28.176 81.418 28.176C82.5273 28.176 83.7327 27.5253 85.034 26.224C85.0767 25.7333 85.098 24.784 85.098 23.376V22.448C85.098 20.5493 85.0127 18.7253 84.842 16.976L83.658 16.88C83.594 16.5173 83.562 16.1653 83.562 15.824C83.562 15.4613 83.5727 15.216 83.594 15.088C84.682 15.0667 86.0047 14.9707 87.562 14.8L87.722 14.96C87.53 16.2187 87.434 18.4693 87.434 21.712V22.736C87.434 24.4853 87.53 26.192 87.722 27.856L88.906 27.92C88.9487 28.3893 88.97 28.7413 88.97 28.976C88.97 29.1893 88.938 29.456 88.874 29.776C88.042 29.8187 86.8793 29.9253 85.386 30.096C85.2153 29.712 85.0873 29.1787 85.002 28.496C83.402 29.8187 81.93 30.48 80.586 30.48C79.242 30.48 78.282 30.1067 77.706 29.36C77.1513 28.6133 76.874 27.4507 76.874 25.872ZM97.2885 22.896C96.2432 22.896 95.2725 22.8427 94.3765 22.736C94.4192 26.3627 95.6245 28.176 97.9925 28.176C99.1872 28.176 100.51 27.5147 101.961 26.192C102.579 26.832 102.974 27.6747 103.145 28.72C101.395 29.8933 99.5392 30.48 97.5765 30.48C95.6138 30.48 94.1525 29.808 93.1925 28.464C92.2325 27.0987 91.7525 25.104 91.7525 22.48C91.7525 19.856 92.2858 17.904 93.3525 16.624C94.4405 15.344 95.9765 14.704 97.9605 14.704C99.4325 14.704 100.649 15.152 101.609 16.048C102.569 16.944 103.049 18.0427 103.049 19.344C103.07 20.6453 102.963 21.5733 102.729 22.128C101.129 22.64 99.3152 22.896 97.2885 22.896ZM97.7365 16.496C95.7525 16.496 94.6432 17.9573 94.4085 20.88C95.3685 20.9867 96.4245 21.04 97.5765 21.04C98.7285 21.04 99.6245 20.9333 100.265 20.72C100.35 20.1867 100.393 19.792 100.393 19.536C100.393 18.5973 100.147 17.8613 99.6565 17.328C99.1872 16.7733 98.5472 16.496 97.7365 16.496ZM111.182 14.704C112.675 14.704 113.859 15.056 114.734 15.76C115.63 16.464 116.078 17.3813 116.078 18.512C116.078 19.6213 115.577 20.176 114.574 20.176C113.977 20.176 113.507 19.9947 113.166 19.632C112.846 19.248 112.686 18.8 112.686 18.288C112.686 17.776 112.771 17.3493 112.942 17.008C112.43 16.6027 111.822 16.4 111.118 16.4C110.414 16.4 109.827 16.5707 109.358 16.912C108.91 17.2533 108.686 17.7547 108.686 18.416C108.686 19.0773 108.942 19.6533 109.454 20.144C109.987 20.6347 110.627 21.04 111.374 21.36C112.121 21.6587 112.867 21.9787 113.614 22.32C114.361 22.64 114.99 23.1093 115.502 23.728C116.035 24.3253 116.302 25.072 116.302 25.968C116.302 27.3547 115.833 28.4533 114.894 29.264C113.977 30.0747 112.718 30.48 111.118 30.48C109.518 30.48 108.206 30.1387 107.182 29.456C106.179 28.7733 105.678 27.8773 105.678 26.768V26.64C105.678 25.488 106.179 24.912 107.182 24.912C107.779 24.912 108.238 25.104 108.558 25.488C108.899 25.8507 109.07 26.2773 109.07 26.768C109.07 27.2587 109.017 27.6427 108.91 27.92C109.337 28.1973 110.009 28.336 110.926 28.336C111.865 28.336 112.569 28.176 113.038 27.856C113.529 27.536 113.774 27.0987 113.774 26.544C113.774 25.968 113.507 25.456 112.974 25.008C112.462 24.56 111.833 24.1867 111.086 23.888C110.339 23.568 109.593 23.2373 108.846 22.896C108.099 22.5333 107.459 22.0213 106.926 21.36C106.414 20.6987 106.158 19.9093 106.158 18.992C106.158 17.6693 106.617 16.624 107.534 15.856C108.473 15.088 109.689 14.704 111.182 14.704ZM120.056 24.816C120.056 24.816 120.078 22.4373 120.12 17.68C120.12 17.36 120.11 17.1147 120.088 16.944C119.192 16.944 118.552 16.9547 118.168 16.976C118.04 16.6347 117.976 16.304 117.976 15.984C117.976 15.6427 117.998 15.3867 118.04 15.216H119.992L119.832 12.848C120.366 12.6773 120.92 12.592 121.496 12.592C122.094 12.592 122.584 12.6347 122.968 12.72L122.68 15.184C123.854 15.1627 125.038 15.0987 126.232 14.992C126.36 15.2693 126.424 15.5787 126.424 15.92C126.424 16.24 126.382 16.6347 126.296 17.104C125.507 17.0613 124.259 17.0187 122.552 16.976C122.51 17.4027 122.488 18.032 122.488 18.864V25.36C122.488 25.9147 122.51 26.3733 122.552 26.736C122.616 27.0773 122.755 27.3973 122.968 27.696C123.203 27.9733 123.534 28.112 123.96 28.112C124.899 28.112 125.795 27.7813 126.648 27.12C127.096 27.76 127.32 28.624 127.32 29.712C126.147 30.224 125.123 30.48 124.248 30.48C123.395 30.48 122.712 30.3627 122.2 30.128C121.688 29.9147 121.294 29.6587 121.016 29.36C120.739 29.04 120.526 28.6027 120.376 28.048C120.163 27.2587 120.056 26.1813 120.056 24.816Z" fill="#0B5D1E"/>
</svg>
