<svg width="68" height="68" viewBox="0 0 68 68" fill="none" xmlns="http://www.w3.org/2000/svg">
<g clip-path="url(#clip0_34_572)">
<path fill-rule="evenodd" clip-rule="evenodd" d="M61.3582 14.239L61.7893 14.9055L60.0108 18.0085C59.8903 18.2158 59.7572 18.4103 59.6113 18.5921C59.4655 18.777 59.3007 18.9556 59.1168 19.1342L59.2055 19.2681C59.4655 19.0545 59.6969 18.8695 59.903 18.7132C60.1091 18.557 60.2771 18.4358 60.4071 18.3497L62.9433 16.6914L63.2635 17.1857L58.6729 20.1834L58.3654 19.7114L60.5403 15.9898C60.6258 15.8431 60.7336 15.6868 60.8636 15.5274C60.9936 15.3647 61.1489 15.1989 61.3265 15.0235L61.2504 14.9023C61.0475 15.0682 60.8509 15.218 60.6671 15.3616C60.48 15.5019 60.3088 15.6231 60.1503 15.7251L57.0846 17.7278L56.7676 17.2367L61.3582 14.239Z" fill="#524193"/>
<path fill-rule="evenodd" clip-rule="evenodd" d="M53.3881 11.6719L53.7083 11.9429L53.2011 12.552C52.8745 12.5202 52.5892 12.4596 52.3483 12.3671C52.1073 12.2746 51.8854 12.147 51.6857 11.9748C51.2133 11.5762 51.0104 11.0691 51.0706 10.46C51.134 9.84774 51.4574 9.1908 52.0439 8.48921C52.6146 7.80356 53.1979 7.3858 53.7939 7.23272C54.3899 7.07965 54.9321 7.20721 55.4171 7.6186C55.5883 7.7621 55.7373 7.94388 55.8641 8.16073C55.9878 8.37759 56.0987 8.64228 56.1939 8.958L55.7025 9.54478L55.3823 9.27371C55.4615 8.98032 55.4774 8.73157 55.4298 8.52747C55.3791 8.32338 55.2618 8.1416 55.0747 7.98215C54.7387 7.69832 54.3487 7.64092 53.9081 7.80994C53.4674 7.97896 52.9887 8.3744 52.4751 8.98989C52.0059 9.55435 51.7332 10.0614 51.6635 10.5142C51.5906 10.9671 51.7237 11.337 52.0566 11.6177C52.2532 11.7835 52.4592 11.8696 52.678 11.8792C52.8936 11.8855 53.1313 11.8186 53.3818 11.6687" fill="#524193"/>
<path fill-rule="evenodd" clip-rule="evenodd" d="M48.5374 9.28976L49.2634 9.74579L49.0447 10.0966L47.0664 8.85286L47.282 8.50206L48.008 8.9581L50.4745 4.98774L49.7485 4.5317L49.9672 4.18091L51.9455 5.42464L51.7268 5.77543L51.0039 5.3194L48.5374 9.28976Z" fill="#524193"/>
<path fill-rule="evenodd" clip-rule="evenodd" d="M41.4297 6.53747L38.6018 5.81356L39.9524 0.475098L42.6757 1.1735L42.5615 1.62953L40.4406 1.08421L39.9841 2.89558L41.9909 3.40902L41.8672 3.89056L39.8636 3.37713L39.3246 5.49146L41.5502 6.0623L41.4297 6.53747Z" fill="#524193"/>
<path fill-rule="evenodd" clip-rule="evenodd" d="M34.0047 0L34.7751 0.0574028L35.314 3.16034C35.3552 3.40271 35.3933 3.66102 35.4281 3.93209C35.463 4.20635 35.4979 4.49655 35.5264 4.8027L35.6406 4.81227C35.6976 4.48061 35.7547 4.17765 35.8086 3.90339C35.8657 3.62913 35.9195 3.38677 35.9734 3.1731L36.7058 0.197721L37.4571 0.251935L37.2764 5.74985L36.8358 5.71796L36.9436 2.42367C36.9436 2.35989 36.9562 2.21001 36.9753 1.97402C36.9943 1.73803 37.0323 1.29794 37.0894 0.653754L36.9879 0.647376L35.742 5.63823L35.3679 5.60953L34.4422 0.459222L34.3502 0.452844C34.3693 0.704779 34.3788 0.956713 34.3851 1.21184C34.3883 1.46696 34.3851 1.76035 34.3756 2.09201L34.3693 2.26103L34.2615 5.5298L33.8208 5.49791L34.0015 0L34.0047 0Z" fill="#524193"/>
<path fill-rule="evenodd" clip-rule="evenodd" d="M18.9268 3.89698L19.4816 3.61316L20.5278 5.68923L22.5377 4.66554L21.4947 2.58947L22.0463 2.30884L24.5192 7.22316L23.9676 7.50379L22.7723 5.13114L20.7624 6.15483L21.9544 8.52747L21.3964 8.80811L18.9268 3.89698Z" fill="#524193"/>
<path fill-rule="evenodd" clip-rule="evenodd" d="M19.0282 10.0423L18.4892 10.3548L15.991 6.00496L14.7292 6.74162L14.4883 6.31748L17.5223 4.55713L17.7664 4.97808L16.53 5.69243L19.0282 10.0423Z" fill="#524193"/>
<path fill-rule="evenodd" clip-rule="evenodd" d="M4.41943 17.8299L4.83474 17.1539L8.37915 17.4441C8.61692 17.4664 8.84835 17.5047 9.07662 17.5589C9.30488 17.6131 9.53631 17.6833 9.77726 17.7725L9.85968 17.6354C9.5585 17.4887 9.2922 17.358 9.06394 17.24C8.83567 17.122 8.65496 17.0199 8.52181 16.937L5.94752 15.3393L6.25504 14.8386L10.9122 17.7311L10.6174 18.2126L6.34064 17.8268C6.17261 17.814 5.98873 17.7789 5.78583 17.7311C5.58293 17.6801 5.36735 17.6131 5.13592 17.527L5.05983 17.6482C5.29444 17.7598 5.51636 17.8746 5.71926 17.983C5.92533 18.0946 6.10921 18.1967 6.26772 18.2987L9.3778 20.2313L9.07345 20.7288L4.41626 17.8363L4.41943 17.8299Z" fill="#524193"/>
<path fill-rule="evenodd" clip-rule="evenodd" d="M68 32.6079L67.9937 35.545L62.5186 35.5323L62.5249 32.7068L62.9909 32.71L62.9878 34.9072L64.8424 34.9136L64.8456 32.828L65.3401 32.8311L65.337 34.9136L67.5086 34.9168L67.5118 32.6079H68Z" fill="#524193"/>
<path fill-rule="evenodd" clip-rule="evenodd" d="M66.4909 37.9624L66.5543 37.5478L67.3342 37.669C67.4769 37.9688 67.572 38.243 67.6195 38.4982C67.6671 38.7533 67.6703 39.0116 67.629 39.2699C67.5339 39.8822 67.2074 40.3191 66.6558 40.5806C66.101 40.8421 65.375 40.9027 64.4746 40.7592C63.5964 40.6221 62.937 40.3351 62.4995 39.8982C62.062 39.4644 61.8908 38.9319 61.9891 38.3004C62.0239 38.0772 62.1 37.8572 62.2173 37.6339C62.3378 37.4139 62.5058 37.1811 62.7277 36.9387L63.4791 37.0599L63.4157 37.4745C63.124 37.5542 62.9021 37.6722 62.7531 37.8189C62.6041 37.9688 62.5122 38.1633 62.4741 38.4057C62.4075 38.8426 62.5597 39.2061 62.9306 39.4995C63.3016 39.7929 63.8849 40.0002 64.6743 40.1246C65.3971 40.2394 65.971 40.2107 66.3926 40.0385C66.8174 39.8663 67.0616 39.5633 67.1313 39.1296C67.1693 38.8745 67.1376 38.6512 67.033 38.4599C66.9284 38.2686 66.7477 38.1027 66.4877 37.9624" fill="#524193"/>
<path fill-rule="evenodd" clip-rule="evenodd" d="M60.4482 44.3978L60.7526 43.6643L64.3002 43.3933C64.5379 43.3773 64.7725 43.3773 65.0072 43.3933C65.2418 43.4092 65.4827 43.4443 65.73 43.4953L65.7934 43.3454C65.47 43.2498 65.1879 43.1605 64.9437 43.0808C64.6996 42.9978 64.5062 42.9277 64.3636 42.8671L61.5737 41.6935L61.7988 41.1482L66.8491 43.2721L66.6335 43.7919L62.3504 44.0853C62.1792 44.0981 61.9954 44.0949 61.7893 44.0757C61.5832 44.0566 61.3581 44.0247 61.114 43.9769L61.0569 44.1108C61.3074 44.1874 61.542 44.2607 61.7608 44.3372C61.9795 44.4138 62.1761 44.4871 62.3504 44.5605L65.7236 45.9796L65.4985 46.5185L60.4482 44.3978Z" fill="#524193"/>
<path fill-rule="evenodd" clip-rule="evenodd" d="M64.8298 48.2757L63.4983 50.8907L58.6287 48.3777L59.9095 45.8647L60.3216 46.0752L59.3261 48.0333L60.9779 48.8848L61.9226 47.0319L62.3633 47.2584L61.4185 49.1112L63.3493 50.1094L64.3955 48.0524L64.8298 48.2757Z" fill="#524193"/>
<path fill-rule="evenodd" clip-rule="evenodd" d="M62.0874 53.2379L60.5435 55.298L56.1716 51.9814L56.5489 51.4807L60.5276 54.5007L61.7007 52.9413L62.0874 53.2379Z" fill="#524193"/>
<path fill-rule="evenodd" clip-rule="evenodd" d="M58.9837 57.0584L57.1703 58.8857L53.2993 54.9919L53.74 54.5486L57.2654 58.0948L58.6413 56.7139L58.9837 57.0584Z" fill="#524193"/>
<path fill-rule="evenodd" clip-rule="evenodd" d="M54.913 60.8535L52.5511 62.5787L49.3333 58.1236L51.6064 56.4653L51.879 56.8448L50.11 58.1364L51.2006 59.6448L52.8777 58.4202L53.1693 58.8252L51.4922 60.0498L52.7699 61.8165L54.6245 60.4548L54.913 60.8535Z" fill="#524193"/>
<path fill-rule="evenodd" clip-rule="evenodd" d="M49.4791 62.9963L49.85 62.8081L50.2083 63.5161C50.0497 63.8031 49.8817 64.0423 49.7042 64.2305C49.5266 64.4186 49.3206 64.5717 49.086 64.6929C48.5375 64.9703 47.9922 64.9639 47.4596 64.6642C46.9238 64.3676 46.4514 63.8095 46.0393 62.9931C45.6367 62.1958 45.4813 61.4911 45.5764 60.8788C45.6684 60.2665 46.0012 59.8168 46.5687 59.5266C46.7685 59.4246 46.9904 59.3576 47.2377 59.3257C47.485 59.2938 47.7703 59.297 48.0968 59.3353L48.4424 60.0177L48.0715 60.2091C47.8337 60.0177 47.6118 59.9061 47.4089 59.871C47.2028 59.8359 46.9904 59.8742 46.7716 59.9858C46.3785 60.1867 46.1756 60.5216 46.1566 60.9999C46.1376 61.4751 46.3119 62.0715 46.6734 62.789C47.0062 63.4459 47.3645 63.8956 47.7513 64.1412C48.138 64.3867 48.5248 64.409 48.9148 64.2081C49.143 64.0933 49.3047 63.9339 49.3967 63.7361C49.4886 63.5384 49.5171 63.2929 49.4791 62.9995" fill="#524193"/>
<path fill-rule="evenodd" clip-rule="evenodd" d="M42.7548 64.0935L40.6973 61.8643L41.3884 61.6666L42.3744 62.7668C42.5075 62.9167 42.6312 63.073 42.7485 63.2356C42.8626 63.3983 42.9704 63.5673 43.0718 63.7427L43.2082 63.7044C43.2082 63.462 43.2113 63.2452 43.224 63.0506C43.2367 62.8561 43.2494 62.6903 43.2684 62.5436L43.4776 61.0639L44.1244 60.8789L43.5696 63.8607L45.6651 66.16L45.0121 66.3481L43.8771 65.0853C43.7091 64.9003 43.5791 64.7472 43.4871 64.6228C43.3984 64.4985 43.3191 64.3645 43.2462 64.2242L43.1099 64.2657C43.1226 64.4475 43.1226 64.6324 43.1194 64.8174C43.113 65.0055 43.0972 65.2001 43.0718 65.4074L42.8689 66.9668L42.1937 67.1613L42.758 64.0935H42.7548Z" fill="#524193"/>
<path fill-rule="evenodd" clip-rule="evenodd" d="M39.9619 67.6427L37.0642 67.9999L36.3984 62.5339L39.1851 62.1895L39.2422 62.6551L37.0737 62.9229L37.2988 64.7758L39.3532 64.5206L39.4134 65.0149L37.359 65.2701L37.6222 67.4354L39.9016 67.1548L39.9619 67.6427Z" fill="#524193"/>
<path fill-rule="evenodd" clip-rule="evenodd" d="M27.3026 61.8611L28.0857 61.9727L29.246 65.3563C29.3221 65.5827 29.3823 65.8123 29.4204 66.0451C29.4616 66.2747 29.4901 66.5203 29.506 66.7754L29.6645 66.7977C29.6772 66.4629 29.6899 66.1631 29.7057 65.908C29.7247 65.6497 29.7438 65.4424 29.7628 65.2861L30.1844 62.2725L30.7646 62.3554L30.0006 67.8087L29.4426 67.7289L28.0762 63.6342C28.0191 63.4716 27.9747 63.2898 27.943 63.0857C27.9081 62.8784 27.886 62.652 27.8701 62.4032L27.7274 62.3841C27.7179 62.6456 27.7052 62.8943 27.6894 63.1271C27.6704 63.3599 27.6482 63.5704 27.6228 63.7586L27.1156 67.4005L26.5386 67.3207L27.2994 61.8675L27.3026 61.8611Z" fill="#524193"/>
<path fill-rule="evenodd" clip-rule="evenodd" d="M18.5369 63.9786L19.3104 64.3422L19.1361 64.7153L17.0215 63.7235L17.1959 63.3472L17.9726 63.714L19.9382 59.4693L19.1614 59.1058L19.3358 58.7327L21.4504 59.7245L21.276 60.0976L20.5025 59.734L18.5369 63.9786Z" fill="#524193"/>
<path fill-rule="evenodd" clip-rule="evenodd" d="M15.2587 60.9937L15.6138 61.2169L15.1953 61.8898C14.8688 61.9058 14.5771 61.8835 14.3267 61.8261C14.0762 61.7686 13.8384 61.6698 13.6165 61.5327C13.0934 61.2042 12.8208 60.7322 12.7986 60.1167C12.7764 59.5012 13.0078 58.806 13.4897 58.0279C13.9589 57.2689 14.482 56.7714 15.0495 56.5386C15.617 56.3026 16.1718 56.3537 16.7107 56.6949C16.901 56.8161 17.0722 56.9723 17.2275 57.1669C17.3828 57.3646 17.5287 57.6101 17.665 57.9099L17.2624 58.5605L16.9073 58.3404C16.9485 58.0375 16.9295 57.7887 16.8534 57.5942C16.7773 57.3997 16.6347 57.237 16.4254 57.1063C16.0513 56.8703 15.6582 56.8703 15.2461 57.0999C14.8339 57.3295 14.4123 57.7855 13.9906 58.468C13.6038 59.093 13.4041 59.632 13.3978 60.0912C13.3883 60.5504 13.569 60.898 13.9399 61.1308C14.1555 61.268 14.3742 61.3254 14.5898 61.303C14.8054 61.2807 15.0305 61.1755 15.2587 60.9937Z" fill="#524193"/>
<path fill-rule="evenodd" clip-rule="evenodd" d="M9.74565 57.2975L10.31 57.9417L10.0024 58.216L8.46167 56.4524L8.76919 56.1814L9.33351 56.8255L12.8272 53.7322L12.2629 53.088L12.5704 52.8137L14.1112 54.5773L13.8036 54.8483L13.2393 54.2041L9.74565 57.2975Z" fill="#524193"/>
<path fill-rule="evenodd" clip-rule="evenodd" d="M9.52666 48.9199L10.0054 49.5514L8.46461 52.7787C8.35999 52.9923 8.23952 53.1964 8.10954 53.391C7.97638 53.5855 7.82738 53.7769 7.65935 53.9682L7.75763 54.0958C8.00175 53.863 8.21733 53.662 8.41072 53.4898C8.6041 53.3176 8.76262 53.1869 8.88626 53.0912L11.2925 51.2479L11.6476 51.7167L7.2916 55.0525L6.95237 54.6028L8.84505 50.7281C8.91797 50.5751 9.01307 50.4124 9.13355 50.2402C9.25402 50.0712 9.39351 49.8926 9.55837 49.7044L9.47277 49.5896C9.28255 49.7682 9.09867 49.9372 8.92431 50.0903C8.74994 50.2434 8.58508 50.3773 8.43608 50.4921L5.52573 52.7181L5.17383 52.2525L9.52666 48.9167V48.9199Z" fill="#524193"/>
<path fill-rule="evenodd" clip-rule="evenodd" d="M7.55489 44.6306L7.83705 45.1887L5.77635 46.2475L6.80036 48.2693L8.86106 47.2106L9.14322 47.7654L4.26728 50.2688L3.98512 49.714L6.33749 48.5053L5.31348 46.4866L2.96111 47.6921L2.67896 47.1372L7.55489 44.6306Z" fill="#524193"/>
<path fill-rule="evenodd" clip-rule="evenodd" d="M2.90715 44.4553L3.0086 44.8635L2.24139 45.058C1.99727 44.8412 1.80071 44.6243 1.65805 44.4074C1.51538 44.1906 1.41393 43.9578 1.34736 43.6995C1.19835 43.0968 1.32517 42.5674 1.73414 42.1081C2.13994 41.6489 2.78668 41.3077 3.6712 41.0845C4.53352 40.8644 5.25318 40.8708 5.82384 41.0972C6.39766 41.3236 6.75908 41.7478 6.91442 42.3665C6.96832 42.5865 6.98417 42.8193 6.96198 43.0681C6.93662 43.3168 6.87321 43.5974 6.76542 43.9068L6.02674 44.0949L5.92529 43.6899C6.16306 43.4986 6.32158 43.3072 6.40083 43.1127C6.48009 42.9182 6.4896 42.7013 6.42937 42.4621C6.32158 42.0348 6.03942 41.7605 5.58289 41.6362C5.12637 41.515 4.51133 41.5501 3.7346 41.7478C3.02445 41.9264 2.50769 42.1815 2.18749 42.5036C1.86412 42.8289 1.75633 43.2052 1.86412 43.6325C1.92752 43.8813 2.04483 44.0726 2.21602 44.2097C2.38722 44.3437 2.61865 44.4266 2.91032 44.4553" fill="#524193"/>
<path fill-rule="evenodd" clip-rule="evenodd" d="M0.399349 39.8153L0.120361 36.8909L5.57013 36.3647L5.83643 39.1775L5.37357 39.2221L5.16433 37.0344L3.31921 37.2098L3.51576 39.2827L3.0212 39.3337L2.82464 37.2577L0.665655 37.4682L0.884406 39.7675L0.399349 39.8153Z" fill="#524193"/>
<path fill-rule="evenodd" clip-rule="evenodd" d="M0 33.2969L0.0190219 32.6687L5.00592 32.809L5.04713 31.342L5.52902 31.3548L5.43391 34.8787L4.94885 34.8659L4.99007 33.4341L0 33.2969Z" fill="#524193"/>
<path fill-rule="evenodd" clip-rule="evenodd" d="M33.9858 7.5166C48.4773 7.5166 60.2296 19.3416 60.2296 33.9219C60.2296 48.5022 48.4773 60.324 33.9858 60.324C19.4943 60.324 7.74194 48.499 7.74194 33.9187C7.74194 19.3384 19.4911 7.5166 33.9858 7.5166Z" fill="#524193"/>
<path fill-rule="evenodd" clip-rule="evenodd" d="M29.8771 38.7852H32.0424L30.9803 32.4868H30.8979L29.8771 38.7852ZM25.3879 45.4758L29.1257 25.9557H32.613L36.3508 45.4758H32.9491L32.5782 42.1465H29.3508L28.7294 45.4758H25.3911H25.3879ZM36.3096 25.9557V29.7124H38.7761V45.4758H42.2539V29.7124H44.7141V25.9557H36.3064H36.3096ZM46.5022 25.9557V45.4758H53.2549V41.0686H50.1227V37.0886H52.9252V33.1055H50.1227V29.9356H53.2549V28.7716L55.4107 30.0376V27.2887L53.2549 26.0195V25.9557H53.144L33.4437 14.3699L14.0984 25.9557H14.0667V25.9748L11.261 27.6554V30.4044L14.0667 28.7238V45.4726H17.5065V36.3934L20.8448 45.4726H23.9295V25.9525H20.6673V36.1734L17.5731 26.6222L33.4405 17.1252L48.4614 25.9557H46.499H46.5022Z" fill="#FFD233"/>
<path fill-rule="evenodd" clip-rule="evenodd" d="M63.6187 23.9211C64.4556 23.9211 65.1373 24.6068 65.1373 25.4551C65.1373 26.3034 64.4556 26.989 63.6187 26.989C62.7817 26.989 62.1001 26.3034 62.1001 25.4551C62.1001 24.6068 62.7785 23.9211 63.6187 23.9211Z" fill="#524193"/>
<path fill-rule="evenodd" clip-rule="evenodd" d="M4.05154 23.9561C4.89167 23.9561 5.57012 24.6417 5.57012 25.49C5.57012 26.3383 4.8885 27.0239 4.05154 27.0239C3.21458 27.0239 2.53296 26.3351 2.53296 25.49C2.53296 24.6449 3.21458 23.9561 4.05154 23.9561Z" fill="#524193"/>
<path fill-rule="evenodd" clip-rule="evenodd" d="M23.2097 63.143L22.525 64.1029L23.904 64.6482L24.0372 63.4715C24.0784 63.1494 24.1323 62.8273 24.1957 62.5084C24.2623 62.1895 24.3384 61.8737 24.4303 61.5612L24.1862 61.4656C24.034 61.7845 23.8755 62.0842 23.7138 62.3617C23.5521 62.6391 23.3841 62.9006 23.2066 63.143M24.1386 60.8564L24.9312 61.169L24.2813 66.8263L23.6187 66.5648L23.7804 65.1234L22.3062 64.543L21.4344 65.7038L20.8162 65.4614L24.1418 60.8564H24.1386Z" fill="#524193"/>
<path fill-rule="evenodd" clip-rule="evenodd" d="M12.4117 15.1544C12.7066 14.826 12.789 14.4528 12.6622 14.0351C12.5322 13.6173 12.1961 13.1613 11.6508 12.667C11.0041 12.0802 10.4556 11.7294 10.015 11.6178C9.57429 11.5062 9.20019 11.6242 8.89267 11.9654C8.59467 12.3002 8.51541 12.6797 8.65807 13.1071C8.80391 13.5344 9.16849 14.0159 9.75817 14.5485C10.3542 15.0875 10.8709 15.4064 11.3085 15.5052C11.746 15.6041 12.1137 15.4861 12.4117 15.1512M8.5376 11.6305C8.97193 11.1458 9.47601 10.9385 10.053 11.0087C10.63 11.0788 11.2641 11.4296 11.9552 12.0547C12.6685 12.702 13.0933 13.3112 13.2328 13.882C13.3692 14.4528 13.217 14.9822 12.7795 15.4733C12.3451 15.9613 11.8316 16.1654 11.245 16.092C10.6617 16.0155 10.0181 15.6615 9.3175 15.0269C8.62003 14.3954 8.20472 13.7927 8.07473 13.2251C7.94158 12.6542 8.09693 12.1216 8.53443 11.6337L8.5376 11.6305Z" fill="#524193"/>
<path fill-rule="evenodd" clip-rule="evenodd" d="M13.3439 10.8779C13.3725 10.8556 13.4042 10.8332 13.439 10.8045C13.4739 10.7758 13.5246 10.7344 13.5912 10.6738C13.9907 10.3294 14.2158 10.0041 14.276 9.70114C14.3362 9.39499 14.2284 9.08565 13.959 8.76993C13.7085 8.47654 13.4359 8.33941 13.1474 8.35536C12.8557 8.3713 12.5228 8.54351 12.1455 8.87198C12.0916 8.91982 12.0029 9.00273 11.8761 9.12711L11.857 9.14305L13.3471 10.8811L13.3439 10.8779ZM11.0771 9.19408L12.0758 8.32666C12.5165 7.94397 12.9445 7.74944 13.3566 7.73987C13.7719 7.73031 14.1365 7.9057 14.4472 8.26925C14.6755 8.53395 14.7959 8.83053 14.8149 9.15262C14.8308 9.47471 14.7389 9.81275 14.5391 10.1635L17.3829 10.9895L16.8186 11.4806L14.3014 10.7025L13.6673 11.2542L15.1256 12.954L14.6533 13.3622L11.0771 9.19408Z" fill="#524193"/>
<path fill-rule="evenodd" clip-rule="evenodd" d="M30.3558 2.7044L30.1339 3.86522L31.6145 3.77592L31.2467 2.65019C31.1484 2.33766 31.0628 2.02514 30.9899 1.70942C30.917 1.39052 30.8567 1.07161 30.8092 0.749519L30.5461 0.765465C30.5397 1.11945 30.5207 1.45749 30.4922 1.77958C30.4605 2.10167 30.4161 2.40782 30.359 2.7044M30.2512 0.236083L31.1009 0.185059L32.8667 5.59687L32.1566 5.63832L31.7032 4.26385L30.1212 4.35952L29.8105 5.77864L29.1479 5.81691L30.2449 0.236083H30.2512Z" fill="#524193"/>
<path fill-rule="evenodd" clip-rule="evenodd" d="M44.1782 4.78684C44.21 4.80279 44.248 4.81873 44.2892 4.83468C44.3304 4.85062 44.3938 4.87614 44.4763 4.90484C44.9677 5.08342 45.3608 5.12488 45.6556 5.02921C45.9473 4.93035 46.166 4.68798 46.3087 4.29254C46.4419 3.92899 46.4292 3.62603 46.2707 3.37729C46.1153 3.13173 45.8014 2.92125 45.3322 2.74904C45.2657 2.72353 45.1484 2.68845 44.9803 2.63743L44.9581 2.62786L44.1814 4.78365L44.1782 4.78684ZM44.5302 1.97729L45.7697 2.43014C46.3182 2.63105 46.6955 2.9085 46.9079 3.26886C47.1203 3.62922 47.1425 4.03423 46.9808 4.48388C46.8603 4.81555 46.6669 5.06429 46.3943 5.2365C46.1216 5.40871 45.7856 5.49162 45.383 5.48843L46.0551 8.39046L45.3544 8.13534L44.7996 5.54584L44.0102 5.25882L43.2462 7.36678L42.6597 7.15311L44.5302 1.97729Z" fill="#524193"/>
<path fill-rule="evenodd" clip-rule="evenodd" d="M56.7264 12.6063L55.6771 13.1356L56.6503 14.2614L57.3098 13.2791C57.4936 13.0113 57.6902 12.753 57.8931 12.501C58.0992 12.2491 58.3148 12.0035 58.5367 11.7739L58.3655 11.573C58.0833 11.7867 57.8043 11.978 57.5349 12.147C57.2622 12.3192 56.9927 12.4723 56.7264 12.6031M58.6033 11.0085L59.1612 11.6559L55.9782 16.3661L55.509 15.824L56.3143 14.6249L55.2744 13.4227L53.9651 14.0413L53.5308 13.5375L58.6001 11.0085H58.6033Z" fill="#524193"/>
<path fill-rule="evenodd" clip-rule="evenodd" d="M59.8175 62.6903C60.9113 62.6903 61.8053 63.5864 61.8053 64.6866C61.8053 65.7869 60.9113 66.683 59.8175 66.683C58.7237 66.683 57.8329 65.7869 57.8329 64.6866C57.8329 63.5864 58.7269 62.6903 59.8175 62.6903ZM59.8175 62.3586C61.0951 62.3586 62.135 63.4047 62.135 64.6898C62.135 65.975 61.0951 67.0178 59.8175 67.0178C58.5399 67.0178 57.5032 65.9718 57.5032 64.6898C57.5032 63.4078 58.543 62.3586 59.8175 62.3586Z" fill="#524193"/>
<path d="M59.1549 63.7171V66.1216H58.8569V63.4524H59.6844C59.8651 63.4524 60.0109 63.4651 60.1219 63.4875C60.2329 63.513 60.3343 63.5513 60.4231 63.6055C60.5467 63.6788 60.6418 63.7809 60.7147 63.9052C60.7845 64.0296 60.8225 64.1604 60.8225 64.3007C60.8225 64.508 60.7528 64.6834 60.6101 64.8332C60.4675 64.9831 60.2931 65.0629 60.0775 65.0756L60.8225 66.1184H60.4643L59.5512 64.8332H59.8429C60.0363 64.8332 60.1948 64.7822 60.3184 64.6834C60.4389 64.5845 60.5023 64.4569 60.5023 64.3007C60.5023 64.205 60.4833 64.1221 60.4453 64.0456C60.4072 63.969 60.3533 63.902 60.2772 63.8446C60.217 63.7968 60.1441 63.7649 60.0585 63.7426C59.9729 63.7235 59.8207 63.7139 59.602 63.7139H59.1549V63.7171Z" fill="#524193"/>
</g>
<defs>
<clipPath id="clip0_34_572">
<rect width="68" height="68" fill="white"/>
</clipPath>
</defs>
</svg>
