<svg width="25" height="24" viewBox="0 0 25 24" fill="none" xmlns="http://www.w3.org/2000/svg">
<path d="M21.5 11.1833V8.28029C21.5 6.64029 21.5 5.82028 21.0959 5.28529C20.6918 4.75029 19.7781 4.49056 17.9507 3.9711C16.7022 3.6162 15.6016 3.18863 14.7223 2.79829C13.5234 2.2661 12.924 2 12.5 2C12.076 2 11.4766 2.2661 10.2777 2.79829C9.39839 3.18863 8.29784 3.61619 7.04933 3.9711C5.22193 4.49056 4.30822 4.75029 3.90411 5.28529C3.5 5.82028 3.5 6.64029 3.5 8.28029V11.1833C3.5 16.8085 8.56277 20.1835 11.094 21.5194C11.7011 21.8398 12.0046 22 12.5 22C12.9954 22 13.2989 21.8398 13.906 21.5194C16.4372 20.1835 21.5 16.8085 21.5 11.1833Z" stroke="#0B5D1E" stroke-width="1.5" stroke-linecap="round"/>
<path d="M15 11.5C15 12.8807 13.8807 14 12.5 14C11.1193 14 10 12.8807 10 11.5C10 10.1193 11.1193 9 12.5 9C13.8807 9 15 10.1193 15 11.5Z" stroke="#0B5D1E" stroke-width="1.5" stroke-linecap="round" stroke-linejoin="round"/>
</svg>
