<svg width="16" height="16" viewBox="0 0 16 16" fill="none" xmlns="http://www.w3.org/2000/svg">
<path d="M9.15177 2.29616L10.325 4.66196C10.485 4.99129 10.9116 5.30717 11.2716 5.36766L13.398 5.72387C14.7578 5.95239 15.0778 6.94711 14.0979 7.92837L12.4448 9.59517C12.1648 9.87744 12.0115 10.4218 12.0981 10.8117L12.5714 12.875C12.9447 14.5082 12.0848 15.14 10.6516 14.2864L8.65851 13.0968C8.29857 12.8818 7.70531 12.8818 7.33864 13.0968L5.34555 14.2864C3.91904 15.14 3.05247 14.5015 3.42577 12.875L3.89905 10.8117C3.9857 10.4218 3.83239 9.87744 3.55241 9.59517L1.89927 7.92837C0.92604 6.94711 1.23934 5.95239 2.59919 5.72387L4.72562 5.36766C5.07891 5.30717 5.50553 4.99129 5.66551 4.66196L6.83871 2.29616C7.47864 1.01245 8.51851 1.01245 9.15177 2.29616Z" fill="#CDBF2A"/>
</svg>
